<?xml version="1.0" standalone="no"?>
<!DOCTYPE svg PUBLIC "-//W3C//DTD SVG 20010904//EN"
 "http://www.w3.org/TR/2001/REC-SVG-20010904/DTD/svg10.dtd">
<svg version="1.0" xmlns="http://www.w3.org/2000/svg"
 width="318.000000pt" height="318.000000pt" viewBox="0 0 318.000000 318.000000"
 preserveAspectRatio="xMidYMid meet">
<metadata>
Created by potrace 1.14, written by Peter Selinger 2001-2017
</metadata>
<g transform="translate(0.000000,318.000000) scale(0.100000,-0.100000)"
fill="#000000" stroke="none">
<path d="M0 1720 l0 -270 84 0 84 0 1 115 c1 63 4 121 7 129 9 23 35 28 60 11
23 -15 24 -20 24 -135 l0 -120 86 0 86 0 -4 164 c-3 148 -5 167 -24 193 -50
67 -151 75 -216 16 -21 -19 -21 -21 -19 95 l1 72 -85 0 -85 0 0 -270z"/>
<path d="M2565 1981 c-3 -2 -5 -22 -5 -43 l0 -38 50 0 50 0 -3 43 -2 42 -43 0
c-23 1 -45 -1 -47 -4z"/>
<path d="M1095 1864 c-5 -1 -23 -5 -38 -8 -37 -9 -92 -67 -108 -113 -16 -50
-5 -137 23 -179 46 -68 147 -93 223 -54 21 11 40 18 42 16 10 -10 -20 -57 -44
-69 -34 -17 -108 -13 -160 8 -33 14 -37 14 -48 -2 -17 -23 -38 -83 -32 -90 20
-19 151 -41 227 -39 121 5 184 42 209 125 14 48 17 381 3 390 -8 5 -122 6
-154 2 -5 -1 -8 -8 -8 -16 0 -12 -6 -11 -32 5 -32 18 -82 30 -103 24z m102
-130 c14 -4 26 -19 34 -42 11 -33 10 -37 -15 -59 -32 -28 -57 -29 -84 -5 -31
27 -35 55 -11 85 21 27 36 31 76 21z"/>
<path d="M1610 1860 c-123 -23 -194 -137 -166 -269 10 -48 54 -98 111 -129 41
-23 169 -23 210 0 34 18 75 55 75 66 0 4 -18 22 -40 39 l-40 31 -37 -19 c-56
-29 -106 -20 -115 20 -2 11 21 14 122 15 l125 1 2 25 c3 47 -27 131 -60 165
-45 45 -120 68 -187 55z m70 -130 c31 -31 24 -40 -30 -40 -33 0 -50 4 -50 13
0 17 12 33 30 40 25 9 29 8 50 -13z"/>
<path d="M476 1850 c-2 -3 -3 -75 -2 -160 1 -133 4 -159 20 -187 39 -64 139
-81 205 -34 35 26 43 26 39 4 -3 -16 7 -18 80 -21 73 -2 82 -1 83 15 4 75 1
372 -4 379 -4 7 -129 11 -157 5 -3 0 -6 -53 -6 -116 0 -95 -3 -118 -17 -132
-13 -13 -23 -15 -44 -7 l-28 9 -2 119 c-1 65 -5 121 -8 124 -7 7 -156 9 -159
2z"/>
<path d="M2151 1837 c-5 -5 -26 -62 -47 -128 -21 -65 -40 -119 -43 -119 -4 0
-22 56 -41 125 l-35 125 -47 0 -47 0 14 -42 c8 -24 35 -108 61 -188 25 -80 51
-150 56 -157 7 -9 66 -8 76 2 1 1 22 59 45 129 l42 127 43 -131 c35 -105 47
-130 63 -131 66 -4 57 -18 125 191 35 107 64 196 64 198 0 1 -20 2 -44 2 -44
0 -44 0 -60 -47 -37 -116 -59 -199 -57 -208 1 -5 -1 -6 -5 -2 -5 4 -26 65 -49
134 l-40 126 -33 1 c-18 1 -37 -3 -41 -7z"/>
<path d="M2930 1839 c-14 -6 -35 -20 -47 -31 l-23 -21 0 26 c0 25 -3 27 -45
27 l-45 0 0 -195 0 -195 44 0 44 0 4 134 c3 147 11 169 68 181 36 8 85 -17 94
-47 3 -13 6 -78 6 -145 l0 -123 45 0 45 0 1 53 c4 227 -7 291 -58 324 -30 20
-99 26 -133 12z"/>
<path d="M2567 1833 c-2 -5 -3 -91 -3 -193 l1 -185 44 0 45 0 1 193 0 192 -42
0 c-23 0 -44 -3 -46 -7z"/>
<path d="M1584 1292 c-21 -14 -32 -47 -23 -69 10 -27 51 -39 76 -23 15 10 14
10 -10 5 -35 -7 -57 9 -57 41 0 28 36 52 53 35 6 -6 16 -11 22 -11 5 0 1 7 -9
15 -22 17 -35 18 -52 7z"/>
<path d="M1712 1255 c-22 -45 -31 -86 -11 -52 13 22 47 22 71 0 18 -16 17 -13
-2 32 -12 28 -25 53 -29 58 -4 4 -17 -13 -29 -38z m41 -5 c4 -16 0 -20 -19
-20 -22 0 -23 2 -12 20 7 11 16 20 19 20 4 0 9 -9 12 -20z"/>
<path d="M1843 1293 c-25 -10 -14 -44 17 -55 37 -13 34 -34 -5 -31 -20 2 -25
-1 -18 -8 18 -18 58 -6 61 17 2 17 -5 24 -28 33 -35 12 -36 37 -1 34 13 -2 20
1 16 7 -7 11 -22 12 -42 3z"/>
<path d="M1953 1245 c0 -33 2 -45 4 -27 2 18 2 45 0 60 -2 15 -4 0 -4 -33z"/>
<path d="M2165 1277 c-20 -29 -19 -50 3 -70 35 -32 77 -16 87 31 9 49 -62 80
-90 39z m75 -36 c0 -18 -6 -31 -16 -35 -46 -18 -80 35 -43 66 29 24 59 8 59
-31z"/>
<path d="M2374 1283 c4 -12 2 -24 -4 -28 -9 -6 -14 7 -11 28 0 4 -4 7 -10 7
-5 0 -9 -8 -8 -17 1 -10 -1 -26 -6 -35 -13 -31 1 -48 38 -46 30 3 34 6 35 33
0 19 -2 25 -7 16 -5 -8 -14 -11 -20 -7 -7 5 -7 12 1 26 10 16 10 22 -1 32 -11
11 -12 9 -7 -9z m6 -69 c0 -16 -26 -19 -35 -4 -3 6 -4 14 0 20 8 13 35 1 35
-16z"/>
<path d="M2476 1287 c-21 -15 -12 -47 14 -47 22 0 45 -26 31 -34 -6 -4 -22 -4
-37 0 -19 5 -25 4 -20 -5 10 -16 51 -14 66 4 15 18 -2 45 -30 45 -10 0 -20 7
-24 15 -5 15 3 19 39 16 17 -2 17 0 5 8 -19 14 -23 14 -44 -2z"/>
<path d="M2594 1292 c-13 -9 -14 -103 -2 -96 5 3 7 12 4 19 -3 10 5 15 27 17
50 5 50 53 0 62 -11 2 -24 1 -29 -2z m47 -19 c15 -15 3 -33 -22 -33 -13 0 -19
7 -19 24 0 25 20 30 41 9z"/>
<path d="M2720 1280 c-25 -25 -26 -52 -2 -73 52 -47 121 24 72 73 -25 25 -45
25 -70 0z m64 -12 c30 -42 -20 -87 -56 -50 -20 20 -20 22 -4 46 20 32 40 33
60 4z"/>
<path d="M2864 1292 c-12 -8 -13 -76 -1 -88 4 -4 7 0 7 9 0 23 27 21 42 -3 7
-11 16 -20 21 -20 4 0 0 11 -9 25 -9 14 -12 25 -6 25 14 0 22 24 13 39 -9 14
-52 23 -67 13z m51 -28 c0 -13 -7 -19 -22 -19 -13 0 -23 3 -23 8 0 34 1 37 23
33 14 -2 22 -10 22 -22z"/>
<path d="M2986 1288 c3 -5 10 -6 15 -3 5 4 9 -16 9 -44 0 -28 4 -51 8 -51 4 0
8 21 7 48 0 32 4 46 13 45 6 -2 12 1 12 6 0 5 -15 8 -34 8 -19 -1 -32 -5 -30
-9z"/>
<path d="M3113 1293 c-25 -9 -14 -44 17 -54 43 -15 41 -44 -2 -35 -24 5 -29 3
-21 -5 18 -18 58 -7 61 17 2 17 -5 24 -28 33 -39 13 -35 37 6 33 22 -2 26 0
14 8 -16 10 -28 11 -47 3z"/>
<path d="M2010 1281 c0 -5 9 -13 20 -16 11 -3 20 -9 20 -13 0 -4 11 -20 24
-37 l24 -30 3 53 c2 28 1 52 -3 52 -4 0 -8 -17 -10 -37 l-3 -37 -25 37 c-23
34 -50 49 -50 28z"/>
<path d="M2013 1235 c0 -36 14 -40 15 -5 0 17 -3 30 -7 30 -5 0 -8 -11 -8 -25z"/>
</g>
</svg>
