<svg width="17" height="18" viewBox="0 0 17 18" fill="none" xmlns="http://www.w3.org/2000/svg">
<path d="M15.899 7.47587H15.7579V4.93566C15.9741 4.85646 16.1557 4.70317 16.2707 4.50272C16.3858 4.30226 16.4269 4.06746 16.3869 3.83953C16.3469 3.6116 16.2284 3.40513 16.0521 3.25637C15.8758 3.10761 15.6531 3.02607 15.423 3.02607C15.1928 3.02607 14.9701 3.10761 14.7938 3.25637C14.6175 3.40513 14.499 3.6116 14.459 3.83953C14.419 4.06746 14.4601 4.30226 14.5752 4.50272C14.6902 4.70317 14.8718 4.85646 15.088 4.93566V7.47683H14.9465C14.8058 7.47718 14.6697 7.52717 14.5618 7.61811C14.454 7.70905 14.3813 7.83517 14.3564 7.97448H13.5453V6.2615C13.7792 6.1994 13.9862 6.06127 14.1341 5.8686C14.2819 5.67592 14.3623 5.43951 14.3628 5.19613V4.61628C14.3624 4.37189 14.2814 4.13453 14.1324 3.94144C13.9834 3.74836 13.775 3.61046 13.5397 3.54937C13.5082 3.06397 13.2945 2.60876 12.9418 2.27591C12.5891 1.94306 12.1238 1.75746 11.6402 1.75668H10.6962C10.4299 0.748299 8.98136 0 7.18099 0C5.38063 0 3.93206 0.748299 3.66582 1.75668H2.72257C2.23893 1.75746 1.77366 1.94306 1.42098 2.27591C1.0683 2.60876 0.854558 3.06397 0.823048 3.54937C0.587774 3.61046 0.379312 3.74836 0.230358 3.94144C0.081404 4.13453 0.000382293 4.37189 0 4.61628V5.19613C0.000431443 5.43951 0.0808226 5.67592 0.228668 5.8686C0.376513 6.06127 0.583523 6.1994 0.817497 6.2615V11.7385C0.583523 11.8006 0.376513 11.9387 0.228668 12.1314C0.0808226 12.3241 0.000431443 12.5605 0 12.8039V13.3837C0.000398999 13.6271 0.0807778 13.8635 0.228628 14.0562C0.376478 14.2489 0.583507 14.387 0.817497 14.4491V17.6631C0.817497 17.7525 0.852787 17.8381 0.915605 17.9013C0.978422 17.9645 1.06362 18 1.15246 18H13.2111C13.2998 17.9998 13.3848 17.9642 13.4474 17.9011C13.5101 17.8379 13.5453 17.7523 13.5453 17.6631V14.4491C13.7792 14.387 13.9863 14.2489 14.1341 14.0562C14.282 13.8635 14.3624 13.6271 14.3628 13.3837V12.8039C14.3623 12.5605 14.2819 12.3241 14.1341 12.1314C13.9862 11.9387 13.7792 11.8006 13.5453 11.7385V10.0265H14.3564C14.3813 10.1658 14.454 10.2919 14.5618 10.3828C14.6697 10.4738 14.8058 10.5238 14.9465 10.5241H15.899C16.0584 10.5239 16.2111 10.4601 16.3238 10.3468C16.4365 10.2334 16.4998 10.0797 16.5 9.91944V8.08056C16.4998 7.92026 16.4365 7.76658 16.3238 7.65322C16.2111 7.53985 16.0584 7.47608 15.899 7.47587ZM15.423 3.70396C15.4841 3.70396 15.5438 3.72218 15.5946 3.75632C15.6454 3.79046 15.685 3.83899 15.7084 3.89577C15.7318 3.95254 15.7379 4.01502 15.726 4.07529C15.714 4.13556 15.6846 4.19093 15.6414 4.23438C15.5982 4.27784 15.5432 4.30743 15.4832 4.31942C15.4233 4.33141 15.3612 4.32526 15.3047 4.30174C15.2483 4.27822 15.2 4.2384 15.1661 4.1873C15.1321 4.1362 15.114 4.07613 15.114 4.01467C15.1141 3.9323 15.1467 3.85332 15.2046 3.79508C15.2625 3.73683 15.3411 3.70406 15.423 3.70396ZM5.50619 11.701V6.29904H8.8558V11.701H5.50619ZM1.48665 11.701V6.29904H4.83627V11.701H1.48665ZM9.52572 6.29904H12.8753V11.701H9.52572V6.29904ZM2.72257 2.43048H3.95675C4.04559 2.43048 4.13079 2.39499 4.19361 2.33181C4.25642 2.26863 4.29172 2.18293 4.29172 2.09358C4.29172 1.25692 5.81435 0.673797 7.18195 0.673797C8.54955 0.673797 10.0722 1.25692 10.0722 2.09358C10.0722 2.18293 10.1075 2.26863 10.1703 2.33181C10.2331 2.39499 10.3183 2.43048 10.4072 2.43048H11.6413C11.9414 2.43083 12.2311 2.54087 12.4564 2.74009C12.6818 2.93931 12.8275 3.21414 12.8663 3.51337H1.49814C1.53699 3.21423 1.68259 2.93949 1.90783 2.74028C2.13308 2.54107 2.42262 2.43097 2.72257 2.43048ZM0.669157 5.19613V4.61628C0.669309 4.50252 0.714308 4.39346 0.794286 4.31302C0.874265 4.23258 0.982695 4.18732 1.0958 4.18717H13.2662C13.3793 4.18732 13.4877 4.23258 13.5677 4.31302C13.6477 4.39346 13.6927 4.50252 13.6928 4.61628V5.19613C13.6927 5.30989 13.6477 5.41895 13.5677 5.49939C13.4877 5.57983 13.3793 5.62509 13.2662 5.62524H1.0958C0.982695 5.62509 0.874265 5.57983 0.794286 5.49939C0.714308 5.41895 0.669309 5.30989 0.669157 5.19613ZM1.48665 17.3262V14.4866H12.8753V17.3262H1.48665ZM13.6928 12.8039V13.3837C13.6927 13.4975 13.6477 13.6065 13.5677 13.687C13.4877 13.7674 13.3793 13.8127 13.2662 13.8128H1.0958C0.982695 13.8127 0.874265 13.7674 0.794286 13.687C0.714308 13.6065 0.669309 13.4975 0.669157 13.3837V12.8039C0.669309 12.6901 0.714308 12.5811 0.794286 12.5006C0.874265 12.4202 0.982695 12.3749 1.0958 12.3748H13.2662C13.3793 12.3749 13.4877 12.4202 13.5677 12.5006C13.6477 12.5811 13.6927 12.6901 13.6928 12.8039ZM13.5453 8.64732H14.3457V9.35268H13.5453V8.64732ZM15.8301 9.85033H15.0156V8.14967H15.8301V9.85033Z" fill="white"/>
<path d="M9.33738 15.0405H5.35613C4.98422 15.0409 4.62767 15.1897 4.36469 15.4542C4.10171 15.7188 3.95376 16.0774 3.95331 16.4514C3.95331 16.5408 3.9886 16.6265 4.05142 16.6896C4.11423 16.7528 4.19943 16.7883 4.28827 16.7883H10.4052C10.4941 16.7883 10.5793 16.7528 10.6421 16.6896C10.7049 16.6265 10.7402 16.5408 10.7402 16.4514C10.7397 16.0774 10.5918 15.7188 10.3288 15.4542C10.0658 15.1897 9.70929 15.0409 9.33738 15.0405ZM4.70535 16.1145C4.76703 15.9941 4.86049 15.893 4.97548 15.8224C5.09047 15.7518 5.22256 15.7144 5.35728 15.7143H9.33853C9.47322 15.7144 9.60526 15.7519 9.72022 15.8225C9.83517 15.8931 9.9286 15.9941 9.99027 16.1145H4.70535Z" fill="white"/>
<path d="M2.36617 8.42169H3.36225L2.55642 10.0428H3.13581L3.95675 8.34873V7.95715H2.36617V8.42169Z" fill="white"/>
<path d="M6.3857 8.42169H7.38178L6.57596 10.0428H7.15535L7.97629 8.34873V7.95715H6.3857V8.42169Z" fill="white"/>
<path d="M10.4052 8.42169H11.4013L10.5955 10.0428H11.1749L11.9958 8.34873V7.95715H10.4052V8.42169Z" fill="white"/>
<path d="M6.22396 2.62299H8.13803C8.22686 2.62299 8.31206 2.5875 8.37488 2.52432C8.4377 2.46114 8.47299 2.37545 8.47299 2.2861C8.47299 2.19675 8.4377 2.11105 8.37488 2.04787C8.31206 1.98469 8.22686 1.9492 8.13803 1.9492H6.22396C6.13513 1.9492 6.04993 1.98469 5.98711 2.04787C5.92429 2.11105 5.889 2.19675 5.889 2.2861C5.889 2.37545 5.92429 2.46114 5.98711 2.52432C6.04993 2.5875 6.13513 2.62299 6.22396 2.62299Z" fill="white"/>
</svg>
