<svg width="67" height="30" viewBox="0 0 67 30" fill="none" xmlns="http://www.w3.org/2000/svg">
<path d="M57.4034 11.6885C54.0903 11.8903 55.5779 16.1195 59.2406 15.8963C62.8235 15.678 60.9333 11.4734 57.4034 11.6885Z" fill="#333333"/>
<path d="M56.0048 9.07628C53.8938 9.07628 51.8301 9.68986 50.0748 10.8394C48.3195 11.989 46.9514 13.6229 46.1435 15.5346C45.3356 17.4462 45.1243 19.5497 45.5361 21.5791C45.948 23.6085 46.9645 25.4727 48.4573 26.9358C49.9501 28.3989 51.852 29.3953 53.9225 29.799C55.993 30.2026 58.1392 29.9955 60.0896 29.2036C62.0399 28.4118 63.707 27.0709 64.8798 25.3504C66.0527 23.63 66.6787 21.6073 66.6787 19.5381C66.6787 16.7635 65.5541 14.1025 63.5524 12.1405C61.5507 10.1785 58.8357 9.07628 56.0048 9.07628ZM56.0048 28.9036C54.1154 28.9039 52.2684 28.355 50.6972 27.3264C49.1261 26.2978 47.9014 24.8356 47.1781 23.1248C46.4549 21.414 46.2655 19.5313 46.6339 17.715C47.0023 15.8987 47.9119 14.2302 49.2478 12.9206C50.5837 11.611 52.2858 10.7191 54.1389 10.3577C55.992 9.99628 57.9128 10.1816 59.6584 10.8902C61.404 11.5988 62.8961 12.7989 63.9458 14.3387C64.9955 15.8784 65.5558 17.6887 65.5558 19.5406C65.5558 22.0235 64.5496 24.4048 62.7585 26.1606C60.9674 27.9165 58.5381 28.9031 56.0048 28.9036ZM55.683 1.77275C53.149 3.65012 53.5894 6.52919 53.5894 6.52919C53.5894 6.52919 51.9967 2.47707 49.9283 0C49.6493 3.18881 50.6688 7.41392 50.6688 7.41392C50.6688 7.41392 49.3736 4.79433 46.2001 4.6477C48.8324 6.13048 49.8535 8.80197 50.0872 9.51864C51.6559 8.56957 53.4498 8.03751 55.2921 7.9749C55.0845 7.30765 54.3466 4.49613 55.683 1.77275Z" fill="#333333"/>
<path d="M0.929548 20.5637V22.7533H0V17.1121H1.95659C2.61999 17.1121 3.11866 17.2667 3.45261 17.5759C3.78655 17.8851 3.95464 18.3085 3.95688 18.8462C3.95688 19.3794 3.78571 19.799 3.44336 20.1049C3.10102 20.4108 2.60654 20.5637 1.95995 20.5637H0.929548ZM3.008 18.8462C3.008 18.5266 2.91695 18.2827 2.73485 18.1147C2.55276 17.9466 2.26084 17.8629 1.8591 17.8634H0.929548V19.8207H1.8591C2.62447 19.8207 3.00744 19.4959 3.008 18.8462ZM7.79358 22.7533L6.35892 20.5003H5.69831V22.7533H4.76877V17.1121H6.79932C7.45656 17.1121 7.95523 17.2692 8.29533 17.5833C8.63544 17.8975 8.80521 18.3132 8.80465 18.8305C8.80465 19.2699 8.6783 19.632 8.4256 19.9171C8.17291 20.2021 7.80871 20.383 7.33301 20.4599L8.84584 22.7533H7.79358ZM5.69831 19.8528H6.72367C7.47448 19.8528 7.84961 19.528 7.84905 18.8783C7.84905 18.5697 7.758 18.3286 7.5759 18.155C7.39352 17.982 7.11029 17.8955 6.72367 17.8955H5.69831V19.8528ZM13.0767 21.5308H10.6469L10.2065 22.7533H9.21228L11.3319 17.2003H12.4001L14.5114 22.7533H13.5163L13.0767 21.5308ZM12.8153 20.8282L11.8614 18.1921L10.9075 20.8282H12.8153ZM19.207 17.5594C19.6633 17.8897 19.9843 18.3688 20.1122 18.9104H19.1339C19.012 18.6103 18.7964 18.3557 18.5178 18.183C18.2143 17.9968 17.8614 17.9022 17.5034 17.9112C17.1643 17.9058 16.8301 17.9912 16.5369 18.1583C16.25 18.3249 16.0181 18.5688 15.8687 18.861C15.7026 19.1951 15.6215 19.5637 15.6325 19.9352C15.6216 20.3195 15.7055 20.7007 15.8771 21.0465C16.0293 21.3442 16.269 21.5904 16.5655 21.7533C16.8816 21.9216 17.2369 22.0068 17.5967 22.0004C18.0483 22.0081 18.4867 21.8507 18.8263 21.5588C19.1681 21.2689 19.3745 20.8707 19.4457 20.3644H17.332V19.693H20.2257V20.5637C20.1646 20.9695 20.01 21.3563 19.7735 21.6948C19.5336 22.0363 19.2118 22.315 18.8364 22.5062C18.4244 22.7135 17.9664 22.8177 17.5034 22.8093C16.984 22.8198 16.4713 22.6928 16.0192 22.4419C15.5951 22.2024 15.2501 21.8488 15.0249 21.4229C14.7942 20.9587 14.6744 20.4491 14.6744 19.9327C14.6744 19.4164 14.7942 18.9068 15.0249 18.4425C15.2491 18.0184 15.5927 17.6662 16.015 17.4276C16.4664 17.1793 16.9774 17.0539 17.495 17.0644C18.1803 17.0644 18.7509 17.2294 19.207 17.5594ZM26.7888 17.2003V22.7533H25.8509V18.5908L24.2128 22.7533H23.3976L21.7502 18.5908V22.7533H20.8215V17.2003H21.9461L23.8211 21.6346L25.6634 17.2003H26.7888ZM31.3374 21.5308H28.9118L28.4714 22.7533H27.4738L29.5934 17.2003H30.6608L32.7729 22.7533H31.7778L31.3374 21.5308ZM31.0768 20.8282L30.1229 18.1921L29.169 20.8282H31.0768ZM36.7508 17.1121V17.8469H35.1446V22.7533H34.2067V17.8469H32.6098V17.1121H36.7508ZM38.177 17.1121V22.7533H37.2483V17.1121H38.177ZM43.4358 17.5833C43.9074 17.9414 44.2408 18.446 44.3813 19.0142H43.3946C43.2686 18.685 43.0424 18.4017 42.7466 18.2028C42.4239 17.9955 42.0438 17.8908 41.6582 17.903C41.3348 17.8979 41.0166 17.9837 40.7413 18.1501C40.466 18.3228 40.2456 18.5676 40.105 18.8569C39.9521 19.194 39.8731 19.5588 39.8731 19.9278C39.8731 20.2967 39.9521 20.6616 40.105 20.9987C40.2453 21.2883 40.4658 21.5335 40.7413 21.7063C41.0166 21.8728 41.3348 21.9585 41.6582 21.9534C42.0437 21.9658 42.4238 21.8614 42.7466 21.6544C43.0408 21.4574 43.2668 21.1772 43.3946 20.8512H44.3813C44.2416 21.4185 43.9079 21.9217 43.4358 22.2772C42.9685 22.6264 42.3816 22.8011 41.675 22.8011C41.1692 22.8105 40.6703 22.6846 40.232 22.437C39.8157 22.1972 39.479 21.8448 39.2621 21.4221C39.0363 20.9565 38.9191 20.4474 38.9191 19.9319C38.9191 19.4164 39.0363 18.9073 39.2621 18.4417C39.4797 18.0184 39.8162 17.6649 40.232 17.4227C40.6695 17.1729 41.1687 17.0458 41.675 17.0553C42.381 17.0558 42.9679 17.2319 43.4358 17.5833ZM48.766 20.5637V22.7533H47.8373V17.1121H49.7939C50.4561 17.1121 50.9548 17.2667 51.2899 17.5759C51.6249 17.8851 51.793 18.3085 51.7942 18.8462C51.7942 19.3794 51.623 19.799 51.2806 20.1049C50.9383 20.4108 50.4438 20.5637 49.7972 20.5637H48.766ZM50.8478 18.8462C50.8478 18.5266 50.7567 18.2827 50.5746 18.1147C50.3925 17.9466 50.1003 17.8629 49.698 17.8634H48.766V19.8207H49.6955C50.4637 19.8207 50.8478 19.4959 50.8478 18.8462ZM53.3885 22.0424H55.3779V22.7533H52.459V17.1121H53.3885V22.0424ZM59.6331 21.5308H57.2042L56.7638 22.7533H55.7687L57.8892 17.2003H58.9565L61.0686 22.7533H60.0735L59.6331 21.5308ZM59.3726 20.8282L58.4187 18.1921L57.4647 20.8282H59.3726ZM64.7994 17.1121L62.884 20.6996V22.7533H61.9486V20.6996L60.0248 17.1121H61.1014L62.4226 19.7251L63.743 17.1121H64.7994Z" fill="#333333"/>
</svg>
