<svg width="20" height="22" viewBox="0 0 20 22" fill="none" xmlns="http://www.w3.org/2000/svg">
<path d="M10 11.5C10.6922 11.5 11.3689 11.2947 11.9445 10.9101C12.5201 10.5256 12.9687 9.97894 13.2336 9.3394C13.4985 8.69985 13.5678 7.99612 13.4328 7.31719C13.2977 6.63825 12.9644 6.01461 12.4749 5.52513C11.9854 5.03565 11.3618 4.7023 10.6828 4.56726C10.0039 4.43221 9.30015 4.50152 8.66061 4.76643C8.02107 5.03133 7.47444 5.47994 7.08986 6.05551C6.70527 6.63108 6.5 7.30777 6.5 8C6.5 8.92826 6.86875 9.8185 7.52513 10.4749C8.18151 11.1313 9.07174 11.5 10 11.5ZM10 5.5C10.4945 5.5 10.9778 5.64663 11.3889 5.92133C11.8001 6.19603 12.1205 6.58648 12.3097 7.04329C12.4989 7.50011 12.5484 8.00278 12.452 8.48773C12.3555 8.97268 12.1174 9.41814 11.7678 9.76777C11.4181 10.1174 10.9727 10.3555 10.4877 10.452C10.0028 10.5484 9.50011 10.4989 9.04329 10.3097C8.58648 10.1205 8.19603 9.80005 7.92133 9.38893C7.64662 8.97781 7.5 8.49446 7.5 8C7.5 7.33696 7.76339 6.70108 8.23223 6.23224C8.70108 5.7634 9.33696 5.5 10 5.5ZM3.642 5.855C3.29056 6.09155 3.00264 6.41084 2.80357 6.78478C2.6045 7.15873 2.50038 7.57587 2.50038 7.9995C2.50038 8.42314 2.6045 8.84028 2.80357 9.21422C3.00264 9.58817 3.29056 9.90746 3.642 10.144C3.77796 10.2464 3.88176 10.3855 3.94113 10.545C4.0005 10.7045 4.01294 10.8777 3.977 11.044C3.90827 11.4504 3.93776 11.8674 4.06302 12.2601C4.18828 12.6528 4.40567 13.0099 4.69704 13.3014C4.98842 13.593 5.34532 13.8106 5.73794 13.9362C6.13057 14.0617 6.54753 14.0915 6.954 14.023C7.12025 13.9854 7.29383 13.997 7.45362 14.0563C7.61341 14.1156 7.75252 14.2201 7.854 14.357C8.09081 14.7082 8.41025 14.9959 8.78426 15.1949C9.15826 15.3938 9.57539 15.4978 9.999 15.4978C10.4226 15.4978 10.8397 15.3938 11.2137 15.1949C11.5878 14.9959 11.9072 14.7082 12.144 14.357C12.2452 14.2198 12.3843 14.1151 12.5442 14.0557C12.704 13.9964 12.8778 13.985 13.044 14.023C13.4504 14.0914 13.8672 14.0617 14.2598 13.9362C14.6523 13.8107 15.0091 13.5932 15.3005 13.3017C15.5918 13.0103 15.8092 12.6534 15.9346 12.2608C16.0599 11.8682 16.0896 11.4514 16.021 11.045C15.985 10.8788 15.9972 10.7057 16.0564 10.5462C16.1156 10.3867 16.2192 10.2475 16.355 10.145C16.7067 9.9085 16.9948 9.58916 17.194 9.21512C17.3932 8.84107 17.4974 8.42379 17.4974 8C17.4974 7.57622 17.3932 7.15893 17.194 6.78489C16.9948 6.41084 16.7067 6.09151 16.355 5.855C16.2191 5.7526 16.1155 5.61341 16.0563 5.4539C15.9971 5.29439 15.9848 5.12125 16.021 4.955C16.0897 4.54857 16.0602 4.1316 15.935 3.73889C15.8097 3.34618 15.5923 2.98913 15.301 2.69756C15.0096 2.40599 14.6527 2.18836 14.2601 2.06284C13.8674 1.93731 13.4505 1.90754 13.044 1.976C12.8778 2.01345 12.7042 2.00182 12.5444 1.94253C12.3847 1.88324 12.2456 1.77884 12.144 1.642C11.9072 1.29077 11.5878 1.00306 11.2137 0.804153C10.8397 0.605244 10.4226 0.501221 9.999 0.501221C9.57539 0.501221 9.15826 0.605244 8.78426 0.804153C8.41025 1.00306 8.09081 1.29077 7.854 1.642C7.7526 1.77904 7.61351 1.88359 7.45369 1.9429C7.29387 2.00221 7.12025 2.01371 6.954 1.976C6.54765 1.90745 6.13078 1.93708 5.73821 2.06242C5.34563 2.18776 4.98873 2.40518 4.69728 2.69653C4.40584 2.98788 4.1883 3.34471 4.06283 3.73724C3.93735 4.12977 3.90758 4.54662 3.976 4.953C4.01246 5.11955 4.00037 5.29306 3.94117 5.45294C3.88197 5.61283 3.77814 5.75237 3.642 5.855ZM4.201 6.684C4.49841 6.47519 4.72868 6.18441 4.8638 5.84707C4.99891 5.50973 5.03303 5.14039 4.962 4.784C4.92057 4.53493 4.93925 4.27956 5.01648 4.03917C5.09371 3.79877 5.22725 3.5803 5.40599 3.40196C5.58472 3.22361 5.80348 3.09055 6.04405 3.01385C6.28461 2.93715 6.54002 2.91903 6.789 2.961C7.14445 3.02782 7.51158 2.9918 7.84726 2.85717C8.18294 2.72255 8.47322 2.49491 8.684 2.201C8.8371 1.99652 9.03575 1.83053 9.26419 1.7162C9.49262 1.60186 9.74455 1.54234 10 1.54234C10.2555 1.54234 10.5074 1.60186 10.7358 1.7162C10.9643 1.83053 11.1629 1.99652 11.316 2.201C11.5268 2.49491 11.8171 2.72255 12.1527 2.85717C12.4884 2.9918 12.8556 3.02782 13.211 2.961C13.4606 2.91876 13.7166 2.9369 13.9577 3.01391C14.1988 3.09092 14.418 3.22455 14.5969 3.40362C14.7758 3.5827 14.9092 3.80201 14.9859 4.04321C15.0627 4.28441 15.0805 4.54049 15.038 4.79C14.9683 5.14558 15.0032 5.51373 15.1385 5.84988C15.2737 6.18603 15.5035 6.47576 15.8 6.684C16.0157 6.829 16.1925 7.02482 16.3147 7.25423C16.4369 7.48363 16.5009 7.73957 16.5009 7.9995C16.5009 8.25944 16.4369 8.51538 16.3147 8.74478C16.1925 8.97419 16.0157 9.17001 15.8 9.315C15.5035 9.52345 15.2738 9.8134 15.1387 10.1497C15.0036 10.4861 14.969 10.8544 15.039 11.21C15.082 11.4599 15.0645 11.7165 14.9882 11.9583C14.9118 12.2001 14.7787 12.4201 14.6 12.6C14.4219 12.7803 14.2028 12.9147 13.9615 12.9919C13.7201 13.069 13.4636 13.0866 13.214 13.043C12.8586 12.9762 12.4914 13.0122 12.1557 13.1468C11.8201 13.2815 11.5298 13.5091 11.319 13.803C11.1659 14.0075 10.9673 14.1735 10.7388 14.2878C10.5104 14.4021 10.2585 14.4617 10.003 14.4617C9.74755 14.4617 9.49562 14.4021 9.26719 14.2878C9.03875 14.1735 8.84011 14.0075 8.687 13.803C8.51227 13.5547 8.27936 13.3529 8.00863 13.2153C7.73791 13.0778 7.43761 13.0087 7.134 13.014C7.0194 13.0143 6.90502 13.024 6.792 13.043C6.54145 13.0875 6.28383 13.0704 6.04134 12.9933C5.79885 12.9161 5.57875 12.7811 5.4 12.6C5.22161 12.4207 5.08855 12.2014 5.01185 11.9603C4.93515 11.7193 4.91704 11.4634 4.959 11.214C5.0298 10.8575 4.99546 10.4882 4.86018 10.1508C4.7249 9.81351 4.49449 9.52278 4.197 9.314C3.98127 9.16901 3.8045 8.97319 3.68228 8.74378C3.56006 8.51438 3.49613 8.25844 3.49613 7.9985C3.49613 7.73857 3.56006 7.48263 3.68228 7.25323C3.8045 7.02382 3.98127 6.828 4.197 6.683L4.201 6.684ZM0.562002 20.757L3.967 14.629C4.22707 14.8408 4.51262 15.0192 4.817 15.16L2.222 19.83L4.776 18.553C4.8699 18.5058 4.97628 18.4894 5.08004 18.5061C5.1838 18.5228 5.27966 18.5717 5.354 18.646L6.863 20.156L8.58 16.722C8.90214 16.8415 9.23817 16.9194 9.58 16.954L7.445 21.224C7.40954 21.2947 7.35781 21.356 7.29405 21.4029C7.23028 21.4497 7.15632 21.4808 7.07822 21.4934C7.00013 21.5061 6.92014 21.5001 6.84483 21.4759C6.76952 21.4516 6.70103 21.4099 6.645 21.354L4.9 19.608L1.224 21.447C1.12844 21.4953 1.01992 21.5116 0.914392 21.4936C0.808867 21.4755 0.711914 21.4241 0.637799 21.3469C0.563684 21.2696 0.516319 21.1706 0.502675 21.0644C0.48903 20.9582 0.509826 20.8505 0.562002 20.757ZM15.224 18.557L17.778 19.834L15.183 15.164C15.4872 15.0228 15.7727 14.8444 16.033 14.633L19.433 20.761C19.4852 20.8545 19.506 20.9622 19.4923 21.0684C19.4787 21.1746 19.4313 21.2736 19.3572 21.3509C19.2831 21.4281 19.1861 21.4795 19.0806 21.4976C18.9751 21.5156 18.8666 21.4993 18.771 21.451L15.1 19.608L13.355 21.354C13.299 21.4099 13.2305 21.4516 13.1552 21.4759C13.0799 21.5001 12.9999 21.5061 12.9218 21.4934C12.8437 21.4808 12.7697 21.4497 12.706 21.4029C12.6422 21.356 12.5905 21.2947 12.555 21.224L10.42 16.954C10.7618 16.9194 11.0979 16.8415 11.42 16.722L13.137 20.156L14.646 18.646C14.7203 18.5717 14.8162 18.5228 14.92 18.5061C15.0237 18.4894 15.1301 18.5058 15.224 18.553V18.557Z" fill="#EEEEEE"/>
</svg>
