<svg width="159" height="40" viewBox="0 0 159 40" fill="none" xmlns="http://www.w3.org/2000/svg">
<path d="M0 0H8.38091V9.4937C9.67267 7.8323 11.7037 6.31681 14.546 6.31681C18.7909 6.31681 21.4503 9.12407 21.4503 13.6686V26.9676H13.0694V16.363C13.0694 14.6277 12.0364 13.6297 10.7796 13.6297C9.52288 13.6297 8.37896 14.6277 8.37896 16.363V26.9656H0V0Z" fill="white"/>
<path d="M23.6642 20.0943V6.79538H32.0451V17.398C32.0451 19.1333 33.0781 20.1313 34.3349 20.1313C35.5916 20.1313 36.7355 19.1333 36.7355 17.398V6.79538H45.1165V26.9637H36.7355V24.2673C35.4438 25.9287 33.4127 27.4442 30.5705 27.4442C26.3216 27.4461 23.6642 24.6389 23.6642 20.0943Z" fill="white"/>
<path d="M47.1806 30.4382L49.7641 25.3781C52.0169 26.561 54.2678 27.2983 57.0381 27.2983C60.1761 27.2983 61.8375 25.6739 61.8375 22.8647V22.2732C60.6936 23.5669 58.8104 25.0435 56.0051 25.0435C50.7991 25.0435 47.0327 21.3492 47.0327 15.7716V15.6977C47.0327 10.0462 50.873 6.31486 55.5246 6.31486C58.4777 6.31486 60.213 7.42376 61.6896 8.93731V6.79539H70.0705V21.8666C70.0705 25.598 69.2943 28.1465 67.45 29.9927C65.6408 31.802 62.8724 32.9478 58.3688 32.9478C53.9001 32.9498 50.4295 32.0626 47.1806 30.4382ZM61.8744 15.7366V15.6627C61.8744 13.9273 60.5457 12.5227 58.5147 12.5227C56.4467 12.5227 55.1549 13.9643 55.1549 15.7366V15.8105C55.1549 17.5458 56.4837 18.9135 58.5147 18.9135C60.5827 18.9135 61.8744 17.5089 61.8744 15.7366Z" fill="white"/>
<path d="M71.9518 16.9914V16.9175C71.9518 10.8964 76.2706 6.31486 82.3268 6.31486C89.4898 6.31486 92.8126 11.301 92.8126 17.433C92.8126 17.8766 92.8126 18.394 92.7757 18.8376H79.8172C80.4086 20.6099 81.8112 21.534 83.6205 21.534C85.134 21.534 86.3888 20.8317 87.7195 19.466L92.2232 23.0495C90.2291 25.6349 87.3868 27.4461 83.031 27.4461C76.4185 27.4461 71.9518 23.2712 71.9518 16.9914ZM85.169 15.1452C84.9842 13.225 83.8403 12.1161 82.3637 12.1161C80.9611 12.1161 79.965 13.299 79.7063 15.1452H85.169Z" fill="white"/>
<path d="M94.5829 7.46072H99.1606L103.075 20.8336L107.394 7.3868H111.234L115.553 20.8336L119.541 7.46072H124.045L117.658 27.1135H113.633L109.277 13.7775L104.884 27.1135H100.896L94.5829 7.46072Z" fill="white"/>
<path d="M128.066 0.221782H132.865V4.4706H128.066V0.221782ZM128.251 7.46072H132.717V26.9656H128.251V7.46072Z" fill="white"/>
<path d="M138.552 7.46072H143.018V10.4528C144.273 8.64355 146.082 7.05413 149.109 7.05413C153.502 7.05413 156.051 10.0092 156.051 14.5168V26.9656H151.584V15.8844C151.584 12.8554 150.071 11.1201 147.413 11.1201C144.83 11.1201 143.02 12.9293 143.02 15.9584V26.9656H138.554V7.46072H138.552Z" fill="white"/>
<path d="M77.8016 37.3328V37.3172C77.8016 35.8562 78.893 34.6462 80.4124 34.6462C81.3482 34.6462 81.9084 34.9788 82.4259 35.4652L82.0271 35.8932C81.5914 35.4808 81.105 35.1851 80.4046 35.1851C79.2607 35.1851 78.4067 36.115 78.4067 37.3017V37.3172C78.4067 38.5117 79.2685 39.4495 80.4046 39.4495C81.1128 39.4495 81.5777 39.1771 82.0719 38.7043L82.4551 39.0798C81.9162 39.6265 81.3268 39.9864 80.391 39.9864C78.8989 39.9883 77.8016 38.8152 77.8016 37.3328Z" fill="#B08615"/>
<path d="M86.5599 34.6987H87.1047L89.4567 39.8989H88.8303L88.2252 38.5351H85.416L84.8032 39.8989H84.206L86.5599 34.6987ZM87.9976 38.004L86.8245 35.3777L85.6456 38.004H87.9976Z" fill="#B08615"/>
<path d="M91.2115 39.146L91.5734 38.718C92.1122 39.2044 92.6278 39.4475 93.3437 39.4475C94.0363 39.4475 94.4935 39.0779 94.4935 38.5702V38.5546C94.4935 38.076 94.2347 37.8017 93.1511 37.5741C91.9644 37.3154 91.4177 36.9321 91.4177 36.0839V36.0683C91.4177 35.2571 92.1337 34.6598 93.1142 34.6598C93.867 34.6598 94.404 34.8738 94.9273 35.2941L94.5888 35.7434C94.1102 35.3524 93.6297 35.1832 93.0986 35.1832C92.4274 35.1832 91.9994 35.5528 91.9994 36.0158V36.0314C91.9994 36.5177 92.264 36.792 93.4001 37.0352C94.5499 37.2862 95.081 37.7064 95.081 38.4962V38.5118C95.081 39.397 94.3436 39.9728 93.3184 39.9728C92.5013 39.9728 91.8302 39.7004 91.2115 39.146Z" fill="#B08615"/>
<path d="M97.501 34.7357H98.0827V39.8989H97.501V34.7357Z" fill="#B08615"/>
<path d="M100.773 34.7357H101.32L104.571 38.8736V34.7357H105.139V39.8989H104.674L101.341 35.6656V39.8989H100.773V34.7357Z" fill="#B08615"/>
<path d="M107.549 37.3329V37.3173C107.549 35.8932 108.619 34.6462 110.189 34.6462C111.759 34.6462 112.814 35.8777 112.814 37.3017V37.3173C112.814 38.7413 111.744 39.9884 110.174 39.9884C108.604 39.9884 107.549 38.755 107.549 37.3329ZM112.209 37.3329V37.3173C112.209 36.1442 111.353 35.1851 110.174 35.1851C108.995 35.1851 108.154 36.1286 108.154 37.3017V37.3173C108.154 38.4904 109.01 39.4495 110.189 39.4495C111.368 39.4495 112.209 38.504 112.209 37.3329Z" fill="#B08615"/>
<path d="M119.611 39.1693C119.138 39.679 118.593 39.9728 117.922 39.9728C116.992 39.9728 116.3 39.3892 116.3 38.5274V38.5118C116.3 37.825 116.757 37.3309 117.547 37.0216C117.193 36.6091 117.031 36.292 117.031 35.8855V35.8699C117.031 35.1909 117.576 34.6462 118.395 34.6462C119.117 34.6462 119.648 35.1695 119.648 35.8115V35.8271C119.648 36.4847 119.183 36.9049 118.432 37.1694L119.611 38.3717C119.84 38.039 120.047 37.648 120.23 37.22L120.708 37.4418C120.481 37.9282 120.243 38.3717 119.963 38.7394L120.862 39.6615L120.42 40L119.611 39.1693ZM119.257 38.8075L117.878 37.3834C117.193 37.6344 116.889 38.0546 116.889 38.4904V38.5059C116.889 39.0584 117.331 39.4806 117.965 39.4806C118.453 39.4787 118.881 39.2199 119.257 38.8075ZM119.103 35.8563V35.8407C119.103 35.4283 118.794 35.1248 118.374 35.1248C117.909 35.1248 117.592 35.4497 117.592 35.8699V35.8855C117.592 36.187 117.716 36.4166 118.107 36.8368C118.763 36.6169 119.103 36.2998 119.103 35.8563Z" fill="#B08615"/>
<path d="M122.965 39.146L123.327 38.718C123.866 39.2044 124.381 39.4475 125.097 39.4475C125.79 39.4475 126.247 39.0779 126.247 38.5702V38.5546C126.247 38.076 125.988 37.8017 124.904 37.5741C123.718 37.3154 123.171 36.9321 123.171 36.0839V36.0683C123.171 35.2571 123.887 34.6598 124.867 34.6598C125.62 34.6598 126.157 34.8738 126.681 35.2941L126.342 35.7434C125.863 35.3524 125.383 35.1832 124.852 35.1832C124.181 35.1832 123.753 35.5528 123.753 36.0158V36.0314C123.753 36.5177 124.017 36.792 125.153 37.0352C126.303 37.2862 126.834 37.7064 126.834 38.4962V38.5118C126.834 39.397 126.097 39.9728 125.072 39.9728C124.255 39.9728 123.583 39.7004 122.965 39.146Z" fill="#B08615"/>
<path d="M129.202 34.7357H131.134C132.299 34.7357 133.065 35.3563 133.065 36.3738V36.3893C133.065 37.504 132.136 38.078 131.038 38.078H129.785V39.9008H129.202V34.7357ZM131.06 37.5449C131.916 37.5449 132.476 37.0877 132.476 36.4088V36.3932C132.476 35.6559 131.923 35.2726 131.089 35.2726H129.784V37.5449H131.06Z" fill="#B08615"/>
<path d="M135.077 37.3329V37.3173C135.077 35.8932 136.147 34.6462 137.717 34.6462C139.287 34.6462 140.341 35.8777 140.341 37.3017V37.3173C140.341 38.7413 139.271 39.9884 137.701 39.9884C136.132 39.9884 135.077 38.755 135.077 37.3329ZM139.738 37.3329V37.3173C139.738 36.1442 138.882 35.1851 137.703 35.1851C136.524 35.1851 135.682 36.1286 135.682 37.3017V37.3173C135.682 38.4904 136.538 39.4495 137.717 39.4495C138.896 39.4495 139.738 38.504 139.738 37.3329Z" fill="#B08615"/>
<path d="M142.752 34.7357H144.972C145.606 34.7357 146.115 34.9283 146.438 35.2512C146.689 35.5022 146.837 35.864 146.837 36.2687V36.2843C146.837 37.1403 146.248 37.6422 145.437 37.79L147.022 39.8989H146.306L144.81 37.8931H143.335V39.8989H142.752V34.7357ZM144.921 37.3679C145.695 37.3679 146.248 36.9691 146.248 36.3057V36.2901C146.248 35.6559 145.761 35.2726 144.927 35.2726H143.334V37.3679H144.921Z" fill="#B08615"/>
<path d="M150.576 35.2746H148.843V34.7357H152.899V35.2746H151.166V39.8989H150.576V35.2746Z" fill="#B08615"/>
<path d="M154.718 39.146L155.08 38.718C155.619 39.2044 156.134 39.4475 156.85 39.4475C157.543 39.4475 158 39.0779 158 38.5702V38.5546C158 38.076 157.741 37.8017 156.658 37.5741C155.471 37.3154 154.924 36.9321 154.924 36.0839V36.0683C154.924 35.2571 155.64 34.6598 156.621 34.6598C157.374 34.6598 157.911 34.8738 158.434 35.2941L158.095 35.7434C157.617 35.3524 157.136 35.1832 156.605 35.1832C155.934 35.1832 155.506 35.5528 155.506 36.0158V36.0314C155.506 36.5177 155.771 36.792 156.907 37.0352C158.056 37.2862 158.588 37.7064 158.588 38.4962V38.5118C158.588 39.397 157.85 39.9728 156.825 39.9728C156.008 39.9728 155.339 39.7004 154.718 39.146Z" fill="#B08615"/>
</svg>
