<svg width="19" height="18" viewBox="0 0 19 18" fill="none" xmlns="http://www.w3.org/2000/svg">
<path d="M18.4258 7.872C18.33 7.03135 18.1065 6.21027 17.763 5.43713C17.6127 5.06909 17.4322 4.71416 17.2232 4.37602C16.8488 3.74459 16.3953 3.16355 15.8739 2.64698C14.78 1.54864 13.4217 0.750852 11.9301 0.330533C11.5349 0.216122 11.1312 0.133745 10.7228 0.0842039C9.91388 -0.028068 9.09338 -0.028068 8.28449 0.0842039C7.87761 0.133464 7.47542 0.215847 7.08193 0.330533C5.58711 0.749958 4.22556 1.54776 3.12862 2.64698C2.59433 3.17506 2.13549 3.77444 1.76509 4.42812C1.54891 4.76699 1.36504 5.12543 1.21588 5.49871C0.880182 6.27861 0.661609 7.1039 0.567257 7.94779C0.509418 8.36992 0.488822 8.79633 0.505708 9.22207C0.550133 11.3375 1.34951 13.3673 2.75933 14.9445C2.87485 15.0885 2.99984 15.224 3.13336 15.3519C3.28959 15.5082 3.45057 15.6551 3.60681 15.8256C4.24408 16.3686 4.95302 16.8213 5.71366 17.1709C6.09423 17.3503 6.48843 17.4992 6.89255 17.6162C7.73795 17.8744 8.61737 18.0037 9.50126 17.9999C10.6238 18.002 11.7368 17.7931 12.7823 17.3841C13.1579 17.24 13.5219 17.0674 13.8712 16.8678C14.6068 16.4593 15.281 15.949 15.8739 15.3519C15.8976 15.3282 15.9198 15.3031 15.9402 15.2761C16.2221 14.9977 16.4787 14.695 16.7072 14.3713C17.8519 12.8744 18.4784 11.0453 18.4921 9.16049C18.5136 8.72985 18.4913 8.29815 18.4258 7.872ZM16.7593 5.50345C16.8066 5.59819 16.8539 5.69293 16.8966 5.79715C17.2039 6.48898 17.4035 7.22387 17.4884 7.97621L16.2432 7.10459L16.7593 5.50345ZM11.9727 1.3348C13.1835 1.73299 14.2832 2.4114 15.1827 3.31491C15.5311 3.64985 15.8481 4.01615 16.1296 4.40918L15.3247 6.93879L13.0853 7.64462L9.88002 5.29975V2.8033L11.9727 1.3348ZM12.4461 8.35044L11.3335 12.0691H7.54591L6.40963 8.39781L9.43971 6.13348L12.4461 8.35044ZM8.40286 1.02215C8.76694 0.972875 9.13386 0.947556 9.50126 0.946356C9.87023 0.947701 10.2387 0.973018 10.6044 1.02215H10.7464L9.42551 1.96957L8.23241 1.05057L8.40286 1.02215ZM3.81986 3.31491C4.72981 2.4049 5.84308 1.72456 7.06773 1.33006L8.96153 2.78909V5.30449L5.76574 7.67304L3.39849 6.96247L2.66464 4.76446C2.98729 4.23461 3.37542 3.74759 3.81986 3.31491ZM2.05389 5.95821L2.45159 7.21354L1.50469 8.01411C1.59168 7.30666 1.77652 6.61474 2.05389 5.95821ZM1.45261 9.3026L3.09548 7.88147L5.43906 8.58256L6.66056 12.4812L5.71366 14.0492H3.24698C2.14659 12.7056 1.51633 11.0385 1.45261 9.3026ZM4.2365 15.0913L4.13234 14.9966H5.66631L6.13976 16.3088C5.45216 15.9929 4.81164 15.5832 4.2365 15.0913ZM12.0958 16.6167C10.5369 17.1451 8.85422 17.1864 7.27131 16.7351L6.52326 14.575L7.43228 13.0165H11.4661L12.858 14.2955L12.0958 16.6167ZM15.088 14.774C14.5822 15.2637 14.0139 15.6842 13.3978 16.0245L13.2557 16.1003L13.7623 14.6839H15.2347L15.088 14.774ZM16.0112 13.7365H13.6439L12.2236 12.4291L13.3646 8.52572L15.604 7.81989L17.5499 9.17944C17.5324 10.8232 16.9936 12.4189 16.0112 13.7365Z" fill="#EEEEEE"/>
</svg>
