<svg width="18" height="18" viewBox="0 0 18 18" fill="none" xmlns="http://www.w3.org/2000/svg">
<g clip-path="url(#clip0_1571_68702)">
<path d="M13.6406 10.3359C12.4969 10.3359 11.5664 11.2664 11.5664 12.4102C11.5664 13.5539 12.4969 14.4844 13.6406 14.4844C14.7844 14.4844 15.7148 13.5539 15.7148 12.4102C15.7148 11.2664 14.7844 10.3359 13.6406 10.3359ZM13.6406 13.957C12.7877 13.957 12.0938 13.2631 12.0938 12.4102C12.0938 11.5572 12.7877 10.8633 13.6406 10.8633C14.4936 10.8633 15.1875 11.5572 15.1875 12.4102C15.1875 13.2631 14.4936 13.957 13.6406 13.957Z" fill="#EEEEEE"/>
<path d="M17.0929 10.9818C17.0039 10.8664 16.8384 10.8452 16.723 10.9342C16.6078 11.0231 16.5864 11.1887 16.6754 11.304C17.197 11.9797 17.4727 12.7877 17.4727 13.6406C17.4727 14.5984 17.1195 15.4752 16.5365 16.1477C16.3079 15.4895 15.6817 15.0153 14.9475 15.0153H12.3338C11.5996 15.0153 10.9734 15.4895 10.7447 16.1477C10.1618 15.4752 9.80859 14.5984 9.80859 13.6406C9.80859 12.1432 10.672 10.8439 11.927 10.2138C12.4433 9.95467 13.0252 9.80859 13.6406 9.80859C14.4936 9.80859 15.3016 10.0843 15.9773 10.6058C16.0926 10.6948 16.2581 10.6735 16.3472 10.5582C16.4361 10.4429 16.4148 10.2773 16.2996 10.1884C15.5307 9.59491 14.6112 9.28125 13.6406 9.28125C13.0339 9.28125 12.4559 9.40595 11.9306 9.63088L11.1814 8.13256C12.4825 7.37743 13.3594 5.96893 13.3594 4.35938C13.3594 1.9556 11.4038 0 9 0C6.59623 0 4.64062 1.9556 4.64062 4.35938C4.64062 5.96893 5.51753 7.37743 6.81862 8.13256L6.06945 9.63088C5.54411 9.40595 4.96607 9.28125 4.35938 9.28125C1.9556 9.28125 0 11.2369 0 13.6406C0 16.0444 1.9556 18 4.35938 18C6.76315 18 8.71875 16.0444 8.71875 13.6406C8.71875 12.031 7.84181 10.6225 6.54075 9.86745L7.28993 8.36912C7.81527 8.59402 8.39331 8.71875 9 8.71875C9.60669 8.71875 10.1847 8.59402 10.7101 8.36912L11.4593 9.86745C10.1582 10.6225 9.28125 12.031 9.28125 13.6406C9.28125 16.0444 11.2369 18 13.6406 18C16.0444 18 18 16.0444 18 13.6406C18 12.67 17.6863 11.7506 17.0929 10.9818ZM4.35938 17.4727C3.42584 17.4727 2.56936 17.1369 1.90389 16.5801C1.9632 15.9983 2.45609 15.5426 3.05255 15.5426H5.6662C6.2627 15.5426 6.75559 15.9983 6.81486 16.5801C6.14939 17.1369 5.29291 17.4727 4.35938 17.4727ZM8.19141 13.6406C8.19141 14.5984 7.83823 15.4752 7.25527 16.1477C7.02661 15.4895 6.40048 15.0153 5.6662 15.0153H3.05255C2.31831 15.0153 1.69214 15.4895 1.46348 16.1477C0.880523 15.4752 0.527344 14.5984 0.527344 13.6406C0.527344 11.5276 2.24638 9.80859 4.35938 9.80859C4.97482 9.80859 5.55673 9.95467 6.07257 10.2136C7.328 10.8439 8.19141 12.1432 8.19141 13.6406ZM6.10411 6.86644C5.52115 6.19393 5.16797 5.31714 5.16797 4.35938C5.16797 2.24638 6.887 0.527344 9 0.527344C11.113 0.527344 12.832 2.24638 12.832 4.35938C12.832 5.31714 12.4789 6.19393 11.8959 6.86644C11.6672 6.20821 11.0411 5.73402 10.3068 5.73402H7.69317C6.95893 5.73402 6.33277 6.20824 6.10411 6.86644ZM9 8.19141C8.06646 8.19141 7.20998 7.8557 6.54451 7.29886C6.60382 6.71709 7.09671 6.26133 7.69317 6.26133H10.3068C10.9033 6.26133 11.3962 6.71709 11.4555 7.29886C10.79 7.8557 9.93354 8.19141 9 8.19141ZM13.6406 17.4727C12.7071 17.4727 11.8506 17.1369 11.1851 16.5801C11.2444 15.9983 11.7373 15.5426 12.3338 15.5426H14.9475C15.5439 15.5426 16.0368 15.9983 16.0961 16.5801C15.4306 17.1369 14.5742 17.4727 13.6406 17.4727Z" fill="#EEEEEE"/>
<path d="M4.35938 10.3359C3.21564 10.3359 2.28516 11.2664 2.28516 12.4102C2.28516 13.5539 3.21564 14.4844 4.35938 14.4844C5.50311 14.4844 6.43359 13.5539 6.43359 12.4102C6.43359 11.2664 5.50311 10.3359 4.35938 10.3359ZM4.35938 13.957C3.50641 13.957 2.8125 13.2631 2.8125 12.4102C2.8125 11.5572 3.50641 10.8633 4.35938 10.8633C5.21234 10.8633 5.90625 11.5572 5.90625 12.4102C5.90625 13.2631 5.21234 13.957 4.35938 13.957Z" fill="#EEEEEE"/>
<path d="M9 1.05469C7.85626 1.05469 6.92578 1.98517 6.92578 3.12891C6.92578 4.27264 7.85626 5.20312 9 5.20312C10.1437 5.20312 11.0742 4.27264 11.0742 3.12891C11.0742 1.98517 10.1437 1.05469 9 1.05469ZM9 4.67578C8.14704 4.67578 7.45312 3.98187 7.45312 3.12891C7.45312 2.27595 8.14704 1.58203 9 1.58203C9.85296 1.58203 10.5469 2.27595 10.5469 3.12891C10.5469 3.98187 9.85296 4.67578 9 4.67578Z" fill="#EEEEEE"/>
</g>
<defs>
<clipPath id="clip0_1571_68702">
<rect width="18" height="18" fill="white"/>
</clipPath>
</defs>
</svg>
