<svg width="12" height="12" viewBox="0 0 12 12" fill="none" xmlns="http://www.w3.org/2000/svg">
<path d="M5.49128 9.28173C5.62147 9.4063 5.7947 9.47584 5.97489 9.47584C6.15507 9.47584 6.32831 9.4063 6.4585 9.28173L11.3378 4.1002C11.45 3.97052 11.5079 3.80246 11.4991 3.63116C11.4904 3.45985 11.4158 3.29854 11.291 3.18093C11.1661 3.06332 11.0006 2.9985 10.8291 3.00003C10.6576 3.00155 10.4933 3.0693 10.3706 3.18911L5.97489 7.85681L1.57922 3.17184C1.45516 3.07303 1.29986 3.02183 1.14136 3.02746C0.982854 3.03309 0.831583 3.09519 0.714842 3.20255C0.5981 3.30991 0.523576 3.45546 0.504719 3.61294C0.485861 3.77041 0.52391 3.92945 0.612002 4.06134L5.49128 9.28173Z" fill="white"/>
</svg>
