<svg width="187" height="25" viewBox="0 0 187 25" fill="none" xmlns="http://www.w3.org/2000/svg">
<path d="M37.958 5.36019H40.1663L46.3414 19.6398H43.4265L42.0935 16.3741H35.8782L34.5853 19.6398H31.7346L37.958 5.36019ZM41.1941 14.1969L38.9858 8.38581L36.7374 14.1969H41.1941ZM54.7008 19.6398H56.9091L62.6988 5.36019H59.9445L55.9214 16.1499L52.0107 5.36019H49.0797L54.7008 19.6398ZM71.805 5.36019H74.0133L80.1804 19.6398H77.2655L75.9325 16.3741H69.7171L68.4243 19.6398H65.5736L71.805 5.36019ZM75.0411 14.1969L72.8328 8.38581L70.5844 14.1969H75.0411ZM85.8256 19.6398H94.466V17.3426H88.3792V5.36019H85.8256V19.6398ZM105.002 5.36019H107.21L113.377 19.6398H110.462L109.129 16.3741H102.914L101.621 19.6398H98.7702L105.002 5.36019ZM108.238 14.1969L106.029 8.38581L103.781 14.1969H108.238ZM119.014 19.6398H121.568V8.68997H121.608L128.69 19.6398H131.927V5.36019H129.373V15.9739H129.333L122.395 5.36019H119.014V19.6398ZM150.99 7.2572C150.275 6.43276 149.497 5.85646 148.661 5.52028C147.834 5.16809 146.943 5 145.971 5C144.863 5 143.843 5.1841 142.92 5.54429C142.004 5.89648 141.209 6.40075 140.535 7.0571C139.876 7.71345 139.354 8.51387 138.977 9.45838C138.6 10.3869 138.415 11.4194 138.415 12.564C138.415 13.7086 138.608 14.6932 138.977 15.6057C139.354 16.5181 139.876 17.3026 140.535 17.9669C141.209 18.6153 142.004 19.1195 142.92 19.4797C143.851 19.8319 144.871 20 145.971 20C147.079 20 148.019 19.7999 148.942 19.3917C149.874 18.9915 150.661 18.3431 151.311 17.4546L149.207 15.9578C148.734 16.5662 148.22 17.0064 147.666 17.2866C147.128 17.5587 146.566 17.6868 145.987 17.6868C145.241 17.6868 144.566 17.5507 143.964 17.2866C143.37 17.0144 142.856 16.6462 142.422 16.182C141.988 15.7097 141.651 15.1574 141.41 14.5091C141.177 13.8607 141.065 13.1564 141.065 12.3879C141.065 11.6756 141.177 11.0112 141.41 10.3869C141.651 9.77054 141.988 9.23426 142.422 8.77001C142.856 8.29776 143.37 7.93757 143.964 7.68143C144.574 7.40928 145.249 7.28122 145.987 7.28122C146.485 7.28122 146.975 7.37727 147.465 7.56137C147.963 7.75347 148.477 8.12166 148.999 8.68997L150.99 7.2572ZM157.069 19.6398H159.623V13.3485H166.32V19.6398H168.873V5.36019H166.32V11.0512H159.623V5.36019H157.069V19.6398ZM176.116 19.6398H185.969V17.3426H178.662V13.4685H185.239V11.1713H178.662V7.66542H185.608V5.3682H176.116V19.6398Z" fill="#EEEEEE"/>
<path fill-rule="evenodd" clip-rule="evenodd" d="M12.5351 0C5.61129 0 0 5.59852 0 12.5C0 19.4015 5.61661 25 12.5404 25C19.4642 25 25.0808 19.4015 25.0808 12.5C25.0808 5.59852 19.4642 0 12.5351 0ZM11.4723 16.0381L11.4617 16.054C11.1854 16.5413 11.0419 16.785 10.8453 16.9703C10.6328 17.1716 10.3777 17.3199 10.0961 17.4047C9.84102 17.4735 9.55408 17.4735 8.9802 17.4735H6.54651C6.03639 17.4735 5.78133 17.4735 5.62724 17.3729C5.46251 17.2669 5.35624 17.0869 5.34561 16.8909C5.33498 16.7108 5.46251 16.4883 5.71757 16.0487L11.7274 5.49258C11.9825 5.04237 12.1153 4.81992 12.2747 4.73517C12.4501 4.64513 12.6626 4.64513 12.838 4.73517C13.0027 4.81992 13.1302 5.04237 13.3853 5.49258L14.6181 7.64301L14.6234 7.6536C14.8997 8.13559 15.0378 8.37924 15.1016 8.63347C15.1707 8.9142 15.1707 9.20551 15.1016 9.48623C15.0432 9.74576 14.8997 9.98941 14.6181 10.4767L11.4723 16.0381ZM19.5439 17.3729C19.3898 17.4735 19.1294 17.4735 18.614 17.4735H15.1282C14.6127 17.4735 14.3577 17.4735 14.2036 17.3729C14.0389 17.2669 13.9326 17.0816 13.922 16.8856C13.9113 16.7055 14.0389 16.4883 14.2939 16.0487L14.2992 16.0381L16.0421 13.0614C16.2972 12.6218 16.4247 12.4047 16.5895 12.3199C16.7648 12.2299 16.972 12.2299 17.1474 12.3199C17.3068 12.3994 17.429 12.6112 17.6788 13.0244L17.7 13.0561L19.4482 16.0328C19.4535 16.0487 19.4642 16.0593 19.4748 16.0752C19.7192 16.4936 19.8415 16.7055 19.8308 16.8803C19.8149 17.0816 19.7086 17.2617 19.5439 17.3729Z" fill="#EEEEEE"/>
</svg>
