<svg width="18" height="18" viewBox="0 0 18 18" fill="none" xmlns="http://www.w3.org/2000/svg">
<g clip-path="url(#clip0_1571_68721)">
<path d="M9 17.1C4.536 17.1 0.9 13.464 0.9 9.00002C0.9 8.80202 1.062 8.64002 1.26 8.64002C1.458 8.64002 1.62 8.80202 1.62 9.00002C1.62 12.222 3.69 14.958 6.588 15.966C7.182 16.686 8.064 17.1 9 17.1ZM9 0.900024C9.936 0.900024 10.818 1.31402 11.412 2.03402C14.31 3.02402 16.38 5.77802 16.38 9.00002C16.38 9.19802 16.542 9.36002 16.74 9.36002C16.938 9.36002 17.1 9.19802 17.1 9.00002C17.1 4.53602 13.464 0.900024 9 0.900024ZM5.85 14.454C5.796 14.166 5.778 13.878 5.814 13.572C4.374 12.564 3.42 10.89 3.42 9.00002C3.42 8.80202 3.258 8.64002 3.06 8.64002C2.862 8.64002 2.7 8.80202 2.7 9.00002C2.7 11.322 3.96 13.356 5.85 14.454ZM12.15 3.54602C12.204 3.83402 12.222 4.12202 12.186 4.42802C13.626 5.43602 14.58 7.11002 14.58 9.00002C14.58 9.19802 14.742 9.36002 14.94 9.36002C15.138 9.36002 15.3 9.19802 15.3 9.00002C15.3 6.67802 14.04 4.64402 12.15 3.54602ZM10.404 10.854C10.026 11.16 9.522 11.34 9 11.34C8.478 11.34 7.974 11.16 7.596 10.854L6.714 12.906C6.372 13.68 6.48 14.598 6.966 15.282L7.02 15.354C7.47 16.002 8.226 16.38 9 16.38C9.774 16.38 10.53 16.002 10.98 15.354L11.034 15.282C11.52 14.598 11.628 13.68 11.286 12.906L10.404 10.854ZM10.98 2.64602C10.53 1.99802 9.792 1.62002 9 1.62002C8.208 1.62002 7.47 1.99802 7.02 2.64602L6.966 2.70002C6.48 3.38402 6.372 4.30202 6.714 5.07602L7.596 7.12802C7.974 6.84002 8.478 6.66002 9 6.66002C9.522 6.66002 10.026 6.84002 10.404 7.12802L11.286 5.07602C11.628 4.30202 11.52 3.38402 11.034 2.70002L10.98 2.64602ZM9 10.62C9.9 10.62 10.62 9.90002 10.62 9.00002C10.62 8.10002 9.9 7.38002 9 7.38002C8.1 7.38002 7.38 8.10002 7.38 9.00002C7.38 9.90002 8.1 10.62 9 10.62Z" fill="#EEEEEE"/>
</g>
<defs>
<clipPath id="clip0_1571_68721">
<rect width="18" height="18" fill="white"/>
</clipPath>
</defs>
</svg>
