<svg width="104" height="23" viewBox="0 0 104 23" fill="none" xmlns="http://www.w3.org/2000/svg">
<g clip-path="url(#clip0_1578_42715)">
<path d="M9.48667 14.3476C10.4588 14.6077 12.5833 15.1762 12.9211 13.8012C13.2672 12.3953 11.2067 11.9269 10.2013 11.6984C10.089 11.6728 9.98979 11.6503 9.90862 11.6298L9.25441 14.2866C9.32108 14.3033 9.39921 14.3242 9.48667 14.3476Z" fill="#EEEEEE"/>
<path d="M10.4033 10.4654C11.2138 10.6845 12.9816 11.1625 13.2895 9.91276C13.604 8.63448 11.8858 8.24915 11.0467 8.06097C10.9523 8.0398 10.869 8.02112 10.801 8.00395L10.2079 10.4136C10.2639 10.4277 10.3297 10.4455 10.4033 10.4654Z" fill="#EEEEEE"/>
<path fill-rule="evenodd" clip-rule="evenodd" d="M8.22834 22.172C14.0459 23.6415 19.9374 20.0552 21.3877 14.1624C22.8379 8.26927 19.2982 2.2998 13.4809 0.830633C7.66508 -0.638531 1.77355 2.9481 0.323999 8.8416C-1.12691 14.7341 2.41316 20.7029 8.22834 22.172ZM13.2549 7.15903C14.7591 7.68392 15.8592 8.47076 15.643 9.93442C15.4866 11.0059 14.9003 11.5246 14.1219 11.7064C15.1907 12.2702 15.7347 13.1347 15.2165 14.6334C14.5735 16.4948 13.0459 16.6519 11.0144 16.2624L10.5214 18.264L9.33009 17.9633L9.81666 15.9885C9.50789 15.9108 9.19232 15.8283 8.86726 15.7389L8.37899 17.723L7.18901 17.4222L7.68203 15.4168C7.57082 15.3879 7.4589 15.3584 7.34619 15.3286C7.17692 15.2839 7.00586 15.2387 6.83273 15.1947L5.2824 14.8032L5.87383 13.4217C5.87383 13.4217 6.75164 13.6582 6.73976 13.6407C7.07704 13.7252 7.22667 13.5025 7.28571 13.354L8.06478 10.1898C8.09399 10.1969 8.12259 10.2042 8.15019 10.2112C8.16395 10.2147 8.17746 10.2181 8.19067 10.2214C8.14317 10.2022 8.10007 10.1898 8.06681 10.1812L8.62261 7.92248C8.6372 7.66604 8.55 7.34258 8.0675 7.22055C8.08616 7.20783 7.20225 7.00262 7.20225 7.00262L7.51917 5.71357L9.16212 6.12917L9.16076 6.13536C9.40778 6.19757 9.66227 6.25669 9.92151 6.3165L10.4098 4.33447L11.6004 4.63525L11.122 6.57844C11.4416 6.65235 11.7633 6.72694 12.0765 6.806L12.5515 4.87553L13.7429 5.1763L13.2549 7.15903Z" fill="#EEEEEE"/>
<path d="M31.8182 7.1569C32.6987 7.1569 33.4595 7.31674 34.0988 7.63058C34.7411 7.94751 35.2711 8.37445 35.6963 8.91138C36.1156 9.45106 36.4278 10.0818 36.6294 10.8047C36.8296 11.5297 36.93 12.309 36.93 13.1432C36.93 14.4247 36.6982 15.6354 36.2303 16.7766C35.7624 17.9196 35.1276 18.9109 34.32 19.7565C33.5131 20.6011 32.5603 21.2669 31.4616 21.7588C30.3646 22.2511 29.1719 22.4972 27.8913 22.4972C27.7257 22.4972 27.4346 22.4924 27.0234 22.4838C26.6121 22.4752 26.1395 22.4322 25.6101 22.3597C25.0774 22.2844 24.5141 22.173 23.9193 22.0239C23.3248 21.8774 22.7602 21.6722 22.2285 21.4116L26.983 1.17335L31.2414 0.504761L29.539 7.68662C29.9035 7.52025 30.2706 7.39134 30.6371 7.29749C31.0039 7.20503 31.3975 7.1569 31.8182 7.1569ZM28.2463 19.0749C28.8876 19.0749 29.4919 18.915 30.0596 18.6012C30.6289 18.287 31.1203 17.8628 31.5318 17.3345C31.9434 16.8038 32.2692 16.206 32.5067 15.5381C32.7442 14.8702 32.8643 14.1734 32.8643 13.4485C32.8643 12.5578 32.7174 11.8631 32.4246 11.3609C32.1318 10.8608 31.5899 10.6091 30.803 10.6091C30.5451 10.6091 30.2129 10.659 29.801 10.748C29.3877 10.8425 29.0179 11.0388 28.6863 11.3341L26.8737 18.9611C26.983 18.9807 27.0797 18.9993 27.1621 19.0168C27.2429 19.0357 27.3321 19.0491 27.421 19.0584C27.515 19.069 27.6226 19.0745 27.7526 19.0745C27.8825 19.0745 28.045 19.0749 28.2463 19.0749Z" fill="#EEEEEE"/>
<path d="M41.3462 22.1098H37.2788L40.7137 7.46731H44.8089L41.3462 22.1098ZM43.3254 5.68327C42.7577 5.68327 42.243 5.51209 41.7863 5.16903C41.3258 4.82804 41.0978 4.30314 41.0978 3.59571C41.0978 3.20659 41.1758 2.84153 41.3306 2.4971C41.4877 2.15336 41.693 1.8574 41.9502 1.60578C42.207 1.35622 42.5046 1.15684 42.8426 1.00662C43.1826 0.858815 43.5443 0.784913 43.9297 0.784913C44.4971 0.784913 45.0091 0.956099 45.4675 1.29916C45.9242 1.64393 46.1539 2.16883 46.1539 2.87247C46.1539 3.26297 46.0762 3.6294 45.9201 3.97314C45.7651 4.31689 45.5598 4.61285 45.3026 4.86447C45.0478 5.11437 44.7475 5.31306 44.4102 5.4619C44.0699 5.61211 43.7095 5.68327 43.3254 5.68327Z" fill="#EEEEEE"/>
<path d="M48.3734 3.81915L52.6335 3.15056L51.5874 7.46662H56.1498L55.326 10.8621H50.791L49.583 15.9839C49.4717 16.4109 49.4086 16.8096 49.391 17.1802C49.371 17.5524 49.4175 17.8721 49.5274 18.1413C49.6367 18.4111 49.8331 18.6191 50.1182 18.7662C50.4018 18.9157 50.808 18.991 51.3407 18.991C51.7794 18.991 52.207 18.9487 52.6203 18.8648C53.0312 18.7823 53.4475 18.6675 53.8689 18.5173L54.1723 21.6921C53.6226 21.8963 53.0274 22.072 52.3861 22.2198C51.7438 22.3697 50.9834 22.4419 50.1046 22.4419C48.841 22.4419 47.8614 22.2518 47.1634 21.8733C46.4664 21.4921 45.9738 20.9713 45.6789 20.312C45.3881 19.6551 45.2581 18.8978 45.2945 18.0447C45.3321 17.1894 45.4594 16.2905 45.6789 15.3439L48.3734 3.81915Z" fill="#EEEEEE"/>
<path d="M55.9707 16.2627C55.9707 15.0015 56.1722 13.8121 56.575 12.6988C56.9771 11.5843 57.5563 10.6098 58.3078 9.77349C59.0567 8.94128 59.9691 8.28198 61.0431 7.79798C62.1119 7.31674 63.3087 7.07406 64.6276 7.07406C65.4531 7.07406 66.1905 7.15313 66.8392 7.31159C67.4907 7.47143 68.0801 7.67803 68.6132 7.93721L67.2105 11.1684C66.844 11.0178 66.4636 10.8852 66.0704 10.7648C65.6768 10.6421 65.1963 10.583 64.6279 10.583C63.2703 10.583 62.1971 11.057 61.3983 12.002C60.6026 12.9476 60.2019 14.2205 60.2019 15.8172C60.2019 16.7635 60.4035 17.5287 60.8079 18.1141C61.2104 18.6995 61.9538 18.9907 63.0331 18.9907C63.5659 18.9907 64.0799 18.9343 64.5723 18.8243C65.0684 18.7129 65.5064 18.5727 65.8922 18.407L66.1959 21.7193C65.6815 21.9214 65.1142 22.104 64.4919 22.2638C63.8682 22.4181 63.1258 22.4982 62.2649 22.4982C61.1286 22.4982 60.1666 22.3298 59.3797 21.9981C58.5925 21.6612 57.9421 21.214 57.4297 20.6475C56.9146 20.0796 56.5448 19.4166 56.3161 18.6555C56.0874 17.8951 55.9707 17.0963 55.9707 16.2627Z" fill="#EEEEEE"/>
<path d="M74.0392 22.4982C73.0684 22.4982 72.2252 22.3484 71.5099 22.0517C70.7967 21.755 70.2059 21.3388 69.7387 20.7991C69.2708 20.2622 68.9206 19.6259 68.6807 18.8927C68.4408 18.1598 68.3254 17.3482 68.3254 16.459C68.3254 15.3435 68.5022 14.2284 68.8595 13.1164C69.2151 12.002 69.7428 11.0007 70.4411 10.1107C71.1339 9.21938 71.9887 8.49063 72.9951 7.92242C74.0005 7.35799 75.1569 7.07406 76.4558 7.07406C77.4089 7.07406 78.2477 7.22427 78.9728 7.52093C79.6945 7.81689 80.289 8.23661 80.759 8.77354C81.2238 9.31322 81.577 9.94674 81.8146 10.681C82.0538 11.4125 82.1719 12.2261 82.1719 13.1161C82.1719 14.2281 81.9975 15.3432 81.6514 16.4586C81.3049 17.5686 80.7909 18.5723 80.1122 19.4643C79.435 20.3543 78.588 21.0827 77.5708 21.6485C76.5549 22.2143 75.3767 22.4982 74.0392 22.4982ZM76.072 10.5834C75.469 10.5834 74.936 10.7607 74.4796 11.111C74.0215 11.4654 73.6367 11.9109 73.3266 12.4482C73.0131 12.9878 72.7806 13.5763 72.6235 14.216C72.4678 14.8571 72.3915 15.4632 72.3915 16.0389C72.3915 16.9681 72.5394 17.6917 72.8302 18.2124C73.1251 18.7304 73.6547 18.991 74.4246 18.991C75.0296 18.991 75.56 18.815 76.0191 18.4609C76.4744 18.1093 76.8596 17.6635 77.1721 17.1252C77.4836 16.5882 77.718 15.998 77.8751 15.3573C78.0288 14.7183 78.1072 14.1088 78.1072 13.5341C78.1072 12.6073 77.9599 11.882 77.6664 11.3619C77.3733 10.8439 76.8412 10.5834 76.072 10.5834Z" fill="#EEEEEE"/>
<path d="M86.604 22.1098H82.5332L85.9681 7.46731H90.0653L86.604 22.1098ZM88.5802 5.68327C88.0128 5.68327 87.4984 5.51209 87.0424 5.16903C86.5843 4.82804 86.3543 4.30314 86.3543 3.59571C86.3543 3.20659 86.4333 2.84153 86.5884 2.4971C86.7434 2.15336 86.9501 1.8574 87.2073 1.60578C87.4628 1.35622 87.7631 1.15684 88.1004 1.00662C88.4383 0.858815 88.8 0.784913 89.1841 0.784913C89.7528 0.784913 90.2665 0.956099 90.7239 1.29916C91.1817 1.64393 91.4128 2.16883 91.4128 2.87247C91.4128 3.26297 91.3307 3.6294 91.1769 3.97314C91.0232 4.31689 90.8166 4.61285 90.5604 4.86447C90.3025 5.11437 90.006 5.31306 89.668 5.4619C89.3273 5.61211 88.9663 5.68327 88.5802 5.68327Z" fill="#EEEEEE"/>
<path d="M92.9967 8.13314C93.3055 8.0417 93.6502 7.93171 94.0251 7.81208C94.4014 7.69246 94.8219 7.58109 95.2915 7.48072C95.756 7.37725 96.2802 7.29337 96.8567 7.2284C97.4332 7.16206 98.0901 7.12974 98.82 7.12974C100.965 7.12974 102.444 7.76259 103.26 9.02447C104.076 10.2864 104.217 12.0133 103.688 14.2023L101.817 22.1084H97.7227L99.536 14.3687C99.6466 13.8854 99.7335 13.4182 99.7976 12.9617C99.8624 12.5093 99.8586 12.1106 99.783 11.7655C99.7107 11.4245 99.5404 11.1454 99.276 10.9292C99.0076 10.7164 98.6022 10.6095 98.0521 10.6095C97.5218 10.6095 96.9823 10.6672 96.4316 10.7786L93.7656 22.1081H89.6697L92.9967 8.13314Z" fill="#EEEEEE"/>
</g>
<defs>
<clipPath id="clip0_1578_42715">
<rect width="104" height="22" fill="white" transform="translate(0 0.5)"/>
</clipPath>
</defs>
</svg>
