<svg width="24" height="24" viewBox="0 0 24 24" fill="none" xmlns="http://www.w3.org/2000/svg">
<g clip-path="url(#clip0_917_99510)">
<path d="M16.2848 8.96572L13.2077 12L16.2848 15.0343C16.3705 15.1145 16.4387 15.2114 16.4854 15.319C16.5321 15.4266 16.5562 15.5427 16.5562 15.66C16.5562 15.7773 16.5321 15.8934 16.4854 16.001C16.4387 16.1086 16.3705 16.2055 16.2848 16.2857C16.2048 16.3652 16.1098 16.428 16.0053 16.4707C15.9009 16.5133 15.7891 16.5349 15.6763 16.5343C15.4514 16.5333 15.2359 16.4441 15.0763 16.2857L11.9991 13.2086L8.96484 16.2857C8.80519 16.4441 8.58971 16.5333 8.36485 16.5343C8.25204 16.5349 8.14021 16.5133 8.03578 16.4707C7.93135 16.428 7.83637 16.3652 7.75627 16.2857C7.59663 16.1251 7.50702 15.9079 7.50702 15.6814C7.50702 15.455 7.59663 15.2377 7.75627 15.0771L10.7906 12L7.75627 8.96572C7.61585 8.80174 7.54247 8.59082 7.55081 8.3751C7.55914 8.15938 7.64857 7.95474 7.80122 7.80209C7.95387 7.64944 8.15851 7.56001 8.37423 7.55168C8.58995 7.54335 8.80087 7.61672 8.96484 7.75714L11.9991 10.7914L15.0334 7.75714C15.1128 7.67497 15.2075 7.60924 15.3123 7.56369C15.4171 7.51815 15.5298 7.49368 15.644 7.49169C15.7582 7.4897 15.8717 7.51023 15.978 7.5521C16.0842 7.59397 16.1812 7.65636 16.2634 7.73572C16.3456 7.81507 16.4113 7.90984 16.4569 8.0146C16.5024 8.11936 16.5269 8.23206 16.5289 8.34628C16.5309 8.46049 16.5103 8.57398 16.4685 8.68027C16.4266 8.78655 16.3642 8.88355 16.2848 8.96572ZM20.4848 20.4857C18.8066 22.1638 16.6684 23.3066 14.3406 23.7695C12.0129 24.2324 9.60015 23.9947 7.40751 23.0864C5.21487 22.1781 3.3408 20.6401 2.02228 18.6667C0.703757 16.6933 0 14.3733 0 12C0 9.62668 0.703757 7.30665 2.02228 5.33329C3.3408 3.35992 5.21487 1.82186 7.40751 0.913568C9.60015 0.00528063 12.0129 -0.232431 14.3406 0.230492C16.6684 0.693416 18.8066 1.83618 20.4848 3.51429C21.5993 4.62861 22.4833 5.95153 23.0864 7.40752C23.6896 8.8635 24 10.424 24 12C24 13.576 23.6896 15.1365 23.0864 16.5925C22.4833 18.0485 21.5993 19.3714 20.4848 20.4857ZM19.2763 4.72286C17.8364 3.28795 16.0036 2.31188 14.0093 1.91789C12.0151 1.52391 9.94878 1.72969 8.07139 2.50923C6.19401 3.28878 4.58971 4.60715 3.46108 6.29785C2.33245 7.98855 1.7301 9.97577 1.7301 12.0086C1.7301 14.0414 2.33245 16.0286 3.46108 17.7193C4.58971 19.41 6.19401 20.7284 8.07139 21.5079C9.94878 22.2875 12.0151 22.4932 14.0093 22.0992C16.0036 21.7053 17.8364 20.7292 19.2763 19.2943C20.2352 18.3387 20.996 17.2032 21.5151 15.953C22.0343 14.7027 22.3015 13.3623 22.3015 12.0086C22.3015 10.6548 22.0343 9.3144 21.5151 8.06415C20.996 6.81391 20.2352 5.67844 19.2763 4.72286Z" fill="#333333"/>
</g>
<defs>
<clipPath id="clip0_917_99510">
<rect width="24" height="24" fill="white"/>
</clipPath>
</defs>
</svg>
