<svg width="19" height="18" viewBox="0 0 19 18" fill="none" xmlns="http://www.w3.org/2000/svg">
<g clip-path="url(#clip0_1571_68791)">
<path d="M6.99649 1.12356C7.1095 1.05831 7.22392 0.995527 7.34201 0.934554C7.76234 0.717422 8.2059 0.531431 8.6606 0.382898C8.87498 0.31284 9.11114 0.376951 9.2608 0.545382C9.41102 0.714796 9.44636 0.956427 9.35115 1.16141C8.18254 3.67824 8.246 6.53517 9.52622 8.9988C11.0261 11.8859 13.9809 13.7214 17.2363 13.7875C17.461 13.7921 17.6619 13.929 17.7483 14.1365C17.8347 14.3441 17.7901 14.5834 17.6352 14.7462C17.0843 15.3237 16.4461 15.8239 15.7376 16.2329C15.6231 16.299 15.5067 16.3629 15.3881 16.4242C13.3193 17.4987 10.9559 17.7044 8.73241 17.0018C6.50921 16.2998 4.69279 14.774 3.61911 12.7067C1.46061 8.55163 2.94406 3.46323 6.99649 1.12356ZM9.07466 15.9199C11.0095 16.5309 13.066 16.3531 14.8659 15.4175C14.9696 15.3635 15.0713 15.3081 15.171 15.2505C15.4093 15.1129 15.6392 14.9631 15.8584 14.8025C12.7369 14.3125 10.0004 12.372 8.52009 9.52204C7.28849 7.15284 7.05498 4.46091 7.83058 1.96005C4.10361 3.92053 2.70195 8.47889 4.62679 12.1839C5.56157 13.9822 7.14107 15.3087 9.07466 15.9199Z" fill="#EEEEEE"/>
</g>
<defs>
<clipPath id="clip0_1571_68791">
<rect width="18" height="18" fill="white" transform="matrix(-1 0 0 1 18.5 0)"/>
</clipPath>
</defs>
</svg>
