<svg width="169" height="31" viewBox="0 0 169 31" fill="none" xmlns="http://www.w3.org/2000/svg">
<g clip-path="url(#clip0_1578_42720)">
<path d="M38.0016 16.391C37.999 16.5502 37.9334 16.7019 37.8192 16.8129C37.705 16.9239 37.5515 16.9852 37.3922 16.9834H26.1681C26.4559 19.7593 28.5382 22.2982 31.4839 22.2982C33.4985 22.2982 34.9882 21.5366 36.1056 19.9286C36.1576 19.8441 36.2296 19.7737 36.3152 19.7235C36.4008 19.6733 36.4974 19.6449 36.5965 19.6408C36.6705 19.6387 36.744 19.6517 36.8128 19.6791C36.8815 19.7064 36.9439 19.7475 36.9962 19.7997C37.0485 19.852 37.0896 19.9145 37.1169 19.9832C37.1443 20.0519 37.1573 20.1255 37.1552 20.1994C37.1556 20.3015 37.1262 20.4015 37.0705 20.4871C35.9363 22.4506 33.6847 23.4154 31.4839 23.4154C27.7087 23.4154 25 20.0301 25 16.4248C25 12.8196 27.6918 9.43433 31.4839 9.43433C35.276 9.43433 37.9847 12.7857 38.0016 16.391ZM36.7997 15.8663C36.5627 13.0904 34.4296 10.5515 31.4839 10.5515C28.5382 10.5515 26.4559 13.0904 26.1681 15.8663H36.7997Z" fill="#EEEEEE"/>
<path d="M51.6466 9.70514C51.7934 9.7094 51.9331 9.76962 52.0369 9.87346C52.1408 9.9773 52.201 10.1169 52.2053 10.2637C52.2074 10.3376 52.1944 10.4112 52.167 10.4799C52.1397 10.5486 52.0986 10.6111 52.0463 10.6634C51.994 10.7157 51.9316 10.7567 51.8629 10.784C51.7941 10.8114 51.7205 10.8244 51.6466 10.8223H48.6332V22.6537C48.6319 22.8014 48.5726 22.9427 48.4681 23.0472C48.3636 23.1517 48.2223 23.2109 48.0745 23.2123C47.9277 23.208 47.7881 23.1478 47.6842 23.0439C47.5804 22.9401 47.5201 22.8005 47.5159 22.6537V10.8223H44.621C44.547 10.8244 44.4734 10.8114 44.4047 10.784C44.336 10.7567 44.2736 10.7157 44.2213 10.6634C44.169 10.6111 44.1279 10.5486 44.1005 10.4799C44.0732 10.4112 44.0602 10.3376 44.0623 10.2637C44.0636 10.116 44.1229 9.97468 44.2274 9.87021C44.3319 9.76575 44.4732 9.70647 44.621 9.70514H47.5159V5.38896C47.5162 5.24594 47.5675 5.10771 47.6606 4.99912C47.7536 4.89053 47.8824 4.8187 48.0237 4.79655C48.1027 4.78606 48.1831 4.79274 48.2592 4.81615C48.3354 4.83955 48.4056 4.87912 48.4651 4.93215C48.5246 4.98518 48.5719 5.05043 48.6038 5.12342C48.6358 5.19642 48.6516 5.27545 48.6501 5.35511V9.70514H51.6466Z" fill="#EEEEEE"/>
<path d="M70.0148 15.4262V22.586C70.0106 22.7328 69.9503 22.8724 69.8465 22.9762C69.7426 23.0801 69.603 23.1403 69.4562 23.1446C69.3822 23.1467 69.3086 23.1336 69.2399 23.1063C69.1712 23.079 69.1087 23.0379 69.0564 22.9856C69.0041 22.9333 68.9631 22.8709 68.9357 22.8022C68.9084 22.7335 68.8954 22.6599 68.8975 22.586V15.4262C68.8975 13.0058 67.5262 10.6022 64.8345 10.6022C61.3809 10.6022 59.8911 13.6151 60.0943 16.7126C60.0943 16.7972 60.1281 17.1527 60.1281 17.2035V22.5691C60.1279 22.7121 60.0766 22.8503 59.9835 22.9589C59.8904 23.0675 59.7616 23.1393 59.6203 23.1615C59.5413 23.172 59.4609 23.1653 59.3848 23.1419C59.3086 23.1185 59.2384 23.0789 59.1789 23.0259C59.1194 22.9728 59.0721 22.9076 59.0402 22.8346C59.0083 22.7616 58.9925 22.6826 58.9939 22.6029V-0.941435C58.9952 -1.08917 59.0545 -1.23047 59.159 -1.33494C59.2635 -1.4394 59.4048 -1.49867 59.5526 -1.5C59.6994 -1.49574 59.839 -1.43553 59.9429 -1.33168C60.0467 -1.22784 60.107 -1.08823 60.1112 -0.941435V12.3626C61.0762 10.6361 62.803 9.46818 64.8175 9.46818C68.1357 9.46818 70.0148 12.3626 70.0148 15.4262Z" fill="#EEEEEE"/>
<path d="M90.1775 16.391C90.1749 16.5502 90.1092 16.7019 89.995 16.8129C89.8808 16.9239 89.7273 16.9852 89.5681 16.9834H78.344C78.6318 19.7593 80.7141 22.2982 83.6598 22.2982C85.6744 22.2982 87.1641 21.5366 88.2815 19.9286C88.3335 19.8441 88.4054 19.7737 88.491 19.7235C88.5766 19.6733 88.6733 19.6449 88.7724 19.6408C88.8463 19.6387 88.9199 19.6517 88.9887 19.6791C89.0574 19.7064 89.1198 19.7475 89.1721 19.7997C89.2244 19.852 89.2655 19.9145 89.2928 19.9832C89.3202 20.0519 89.3332 20.1255 89.3311 20.1994C89.3315 20.3015 89.302 20.4015 89.2464 20.4871C88.1122 22.4506 85.8606 23.4154 83.6598 23.4154C79.8846 23.4154 77.1759 20.0301 77.1759 16.4248C77.1759 12.8196 79.8676 9.43433 83.6598 9.43433C87.4181 9.43433 90.1606 12.7857 90.1775 16.391ZM88.9586 15.8663C88.7216 13.0904 86.5885 10.5515 83.6428 10.5515C80.6972 10.5515 78.6149 13.0904 78.3271 15.8663H88.9586Z" fill="#EEEEEE"/>
<path d="M103.975 10.2299C103.986 10.3801 103.936 10.5286 103.838 10.6427C103.74 10.7569 103.6 10.8275 103.45 10.8392C100.149 11.3301 98.6591 14.0213 98.6591 17.1527V22.5183C98.6588 22.6613 98.6075 22.7995 98.5144 22.9081C98.4213 23.0167 98.2925 23.0885 98.1512 23.1107C98.0722 23.1212 97.9919 23.1145 97.9157 23.0911C97.8395 23.0677 97.7693 23.0281 97.7098 22.9751C97.6504 22.9221 97.603 22.8568 97.5711 22.7838C97.5392 22.7108 97.5234 22.6318 97.5248 22.5521V10.3145C97.5251 10.1715 97.5764 10.0332 97.6695 9.92465C97.7626 9.81606 97.8914 9.74423 98.0327 9.72207C98.1117 9.71158 98.192 9.71827 98.2682 9.74167C98.3443 9.76507 98.4146 9.80464 98.474 9.85768C98.5335 9.91071 98.5808 9.97595 98.6128 10.049C98.6447 10.1219 98.6605 10.201 98.6591 10.2806V12.7688C99.5902 11.1947 101.435 9.70514 103.365 9.70514C103.653 9.70514 103.975 9.90826 103.975 10.2299Z" fill="#EEEEEE"/>
<path d="M122.428 16.391C122.425 16.5502 122.359 16.7019 122.245 16.8129C122.131 16.9239 121.978 16.9852 121.818 16.9834H110.594C110.882 19.7593 112.964 22.2982 115.91 22.2982C117.925 22.2982 119.414 21.5366 120.532 19.9286C120.584 19.8441 120.656 19.7737 120.741 19.7235C120.827 19.6733 120.923 19.6449 121.023 19.6408C121.097 19.6387 121.17 19.6517 121.239 19.6791C121.308 19.7064 121.37 19.7475 121.422 19.7997C121.475 19.852 121.516 19.9145 121.543 19.9832C121.57 20.0519 121.583 20.1255 121.581 20.1994C121.582 20.3015 121.552 20.4015 121.497 20.4871C120.362 22.4506 118.111 23.4154 115.91 23.4154C112.135 23.4154 109.426 20.0301 109.426 16.4248C109.426 12.8196 112.118 9.43433 115.91 9.43433C119.702 9.43433 122.411 12.7857 122.428 16.391ZM121.226 15.8663C120.989 13.0904 118.856 10.5515 115.91 10.5515C112.964 10.5515 110.882 13.0904 110.594 15.8663H121.226Z" fill="#EEEEEE"/>
<path d="M140.576 10.3653V22.6537C140.572 22.8005 140.511 22.9401 140.407 23.0439C140.304 23.1478 140.164 23.208 140.017 23.2123C139.943 23.2144 139.87 23.2013 139.801 23.174C139.732 23.1467 139.67 23.1056 139.617 23.0533C139.565 23.001 139.524 22.9386 139.497 22.8699C139.469 22.8012 139.456 22.7276 139.459 22.6537V20.3179C138.527 22.1628 136.885 23.5 134.786 23.5C131.451 23.5 129.606 20.6056 129.606 17.542V10.3483C129.607 10.2006 129.666 10.0593 129.771 9.95484C129.875 9.85038 130.017 9.7911 130.164 9.78978C130.311 9.79403 130.451 9.85425 130.555 9.95809C130.659 10.0619 130.719 10.2015 130.723 10.3483V17.542C130.723 19.9624 132.094 22.3659 134.786 22.3659C138.561 22.3659 139.459 18.8284 139.459 14.9184V10.3314C139.46 10.2409 139.483 10.1519 139.525 10.072C139.568 9.99217 139.629 9.92368 139.704 9.8723C139.778 9.82093 139.864 9.78816 139.954 9.77675C140.044 9.76533 140.135 9.77561 140.22 9.8067C140.327 9.85615 140.417 9.93503 140.48 10.034C140.543 10.133 140.576 10.2479 140.576 10.3653Z" fill="#EEEEEE"/>
<path d="M169 15.3754V22.5691C168.996 22.7159 168.936 22.8555 168.832 22.9593C168.728 23.0632 168.588 23.1234 168.441 23.1276C168.367 23.1297 168.294 23.1167 168.225 23.0894C168.156 23.0621 168.094 23.021 168.042 22.9687C167.989 22.9164 167.948 22.854 167.921 22.7853C167.894 22.7166 167.881 22.643 167.883 22.5691V15.3754C167.883 12.955 166.511 10.5853 163.82 10.5853C160.434 10.5853 159.147 14.2075 159.147 17.0173V22.5691C159.143 22.7159 159.083 22.8555 158.979 22.9593C158.875 23.0632 158.735 23.1234 158.589 23.1276C158.515 23.1297 158.441 23.1167 158.372 23.0894C158.304 23.0621 158.241 23.021 158.189 22.9687C158.137 22.9164 158.095 22.854 158.068 22.7853C158.041 22.7166 158.028 22.643 158.03 22.5691V15.3754C158.03 12.955 156.659 10.5853 153.967 10.5853C150.547 10.5853 149.142 13.2766 149.261 16.8649C149.261 16.9496 149.294 17.1019 149.261 17.1527V22.5521C149.26 22.6952 149.209 22.8334 149.116 22.942C149.023 23.0506 148.894 23.1224 148.753 23.1446C148.674 23.155 148.593 23.1484 148.517 23.125C148.441 23.1015 148.371 23.062 148.311 23.0089C148.252 22.9559 148.204 22.8907 148.173 22.8177C148.141 22.7447 148.125 22.6656 148.126 22.586V10.3145C148.127 10.1715 148.178 10.0332 148.271 9.92465C148.364 9.81606 148.493 9.74423 148.634 9.72207C148.713 9.71158 148.793 9.71827 148.87 9.74167C148.946 9.76507 149.016 9.80464 149.076 9.85768C149.135 9.91071 149.182 9.97595 149.214 10.049C149.246 10.1219 149.262 10.201 149.261 10.2806V12.3287C150.225 10.6022 151.952 9.46818 153.967 9.46818C156.252 9.46818 158.03 10.9238 158.758 13.0396C159.689 10.9408 161.5 9.46818 163.82 9.46818C167.121 9.46818 169 12.3287 169 15.3754Z" fill="#EEEEEE"/>
<path opacity="0.6" d="M9.01521 11.5813L0 15.7547L9.01521 21.1902L18.0413 15.7547L9.01521 11.5813Z" fill="#EEEEEE"/>
<path opacity="0.8" fill-rule="evenodd" clip-rule="evenodd" d="M9.01521 21.19L0 15.7546L9.01521 0.5L18.0413 15.7546L9.01521 21.19Z" fill="#EEEEEE"/>
<g opacity="0.8">
<path d="M0 17.5037L9.01521 30.4557V22.928L0 17.5037Z" fill="#EEEEEE"/>
<path d="M9.01521 22.928V30.4557L18.0413 17.5037L9.01521 22.928Z" fill="#EEEEEE"/>
</g>
</g>
<defs>
<clipPath id="clip0_1578_42720">
<rect width="169" height="30" fill="white" transform="translate(0 0.5)"/>
</clipPath>
</defs>
</svg>
