<svg width="91" height="16" viewBox="0 0 91 16" fill="none" xmlns="http://www.w3.org/2000/svg">
<path d="M15.3814 1.65571H24.8625V3.7389H17.8461V6.78183H22.5198V8.87067H17.8461V12.2693H25.0775V14.3525H15.3814V1.65571Z" fill="#EEEEEE"/>
<path d="M24.8624 5.33089H27.3853L29.5884 11.62L31.6346 5.33089H34.0819L30.6929 14.3524H28.4317L24.8624 5.33089Z" fill="#EEEEEE"/>
<path fill-rule="evenodd" clip-rule="evenodd" d="M34.1575 9.86416C34.1575 7.10351 36.1281 5.16145 38.9475 5.16145C41.7435 5.16145 43.72 7.1148 43.72 9.86416C43.72 12.574 41.7087 14.5273 38.8893 14.5273C36.0933 14.5273 34.1575 12.6135 34.1575 9.86416ZM41.2378 9.92061V9.84158C41.2378 8.1197 40.3717 7.08657 38.9533 7.08657C37.5116 7.08657 36.6455 8.1197 36.6455 9.84158V9.92061C36.6455 11.603 37.4884 12.5966 38.9126 12.5966C40.3542 12.5966 41.2378 11.5973 41.2378 9.92061Z" fill="#EEEEEE"/>
<path d="M45.2953 1.48065H47.76V14.3524H45.2953V1.48065Z" fill="#EEEEEE"/>
<path d="M49.626 10.7336V5.33089H52.0733V10.6038C52.0733 11.8063 52.6604 12.512 53.7649 12.512C55.0496 12.512 55.5844 11.4619 55.5844 9.90939V5.33089H58.0259V14.3524H55.5844V13.0709C55.0903 14.008 54.2416 14.5274 53.0383 14.5274C50.9339 14.5274 49.626 13.0709 49.626 10.7336Z" fill="#EEEEEE"/>
<path d="M60.7231 11.9587V7.23903H59.4036V5.33085H60.7231V3.62026L63.1065 2.3218V5.31956H64.9376V7.23338H63.0832V11.7216C63.0832 12.1619 63.3041 12.3539 63.7575 12.3708H64.8388V14.3467H62.9495C61.1533 14.2564 60.7638 13.4604 60.7231 11.9587Z" fill="#EEEEEE"/>
<path d="M66.5187 1.6895H69.059V4.00415H66.5187V1.6895ZM66.5536 5.33085H69.0183V14.3524H66.5536V5.33085Z" fill="#EEEEEE"/>
<path fill-rule="evenodd" clip-rule="evenodd" d="M70.5996 9.86416C70.5996 7.10351 72.5644 5.16145 75.3837 5.16145C78.1798 5.16145 80.1562 7.1148 80.1562 9.86416C80.1562 12.574 78.1449 14.5273 75.3256 14.5273C72.5295 14.5273 70.5996 12.6135 70.5996 9.86416ZM77.6682 9.92061V9.84158C77.6682 8.1197 76.8021 7.08657 75.3837 7.08657C73.9421 7.08657 73.0759 8.1197 73.0759 9.84158V9.92061C73.0759 11.603 73.9188 12.5966 75.3372 12.5966C76.7788 12.5966 77.6682 11.5973 77.6682 9.92061Z" fill="#EEEEEE"/>
<path d="M81.7141 5.33089H84.1556V6.79872C84.6439 5.74866 85.5565 5.1333 86.8703 5.1333C88.9048 5.1333 90.1023 6.45435 90.1023 8.93837V14.3524H87.6608V9.07951C87.6608 7.82056 87.1667 7.17133 86.0216 7.17133C84.8648 7.17133 84.1498 8.0859 84.1498 9.76826V14.3581H81.7025L81.7141 5.33089Z" fill="#EEEEEE"/>
<path d="M9.63222 2.82426C7.40001 -0.0210764 3.35994 -0.828383 0 0.916077C1.31375 3.77835 2.29034 7.14307 8.76026 7.33501C9.51596 7.3576 10.353 7.33501 11.2657 7.26727C11.1378 5.46635 10.5332 3.97594 9.63222 2.82426Z" fill="#EEEEEE"/>
<path d="M8.44055 8.6786C4.5458 8.87054 2.72632 10.2424 1.58696 11.9417C0.912649 12.941 0.482483 14.0475 0 15.0862C4.71438 17.5307 10.8065 14.9564 11.2657 8.72941C10.2193 8.65037 9.27763 8.63908 8.44055 8.6786Z" fill="#EEEEEE"/>
</svg>
