<svg width="18" height="18" viewBox="0 0 18 18" fill="none" xmlns="http://www.w3.org/2000/svg">
<g clip-path="url(#clip0_1605_93053)">
<path d="M6.1284 18C4.91632 18 3.73148 17.6405 2.7237 16.9671C1.71592 16.2936 0.930469 15.3365 0.466666 14.2167C0.00286191 13.0968 -0.118461 11.8646 0.118037 10.6758C0.354536 9.48705 0.938235 8.39509 1.79532 7.53805C2.65241 6.681 3.7444 6.09735 4.93319 5.8609C6.12198 5.62446 7.35419 5.74584 8.474 6.20969C9.59381 6.67355 10.5509 7.45905 11.2243 8.46686C11.8977 9.47467 12.2571 10.6595 12.2571 11.8716C12.2553 13.4964 11.609 15.0542 10.46 16.2031C9.31103 17.352 7.75324 17.9983 6.1284 18ZM6.1284 6.51492C5.06888 6.51492 4.03316 6.8291 3.1522 7.41775C2.27125 8.00639 1.58463 8.84305 1.17918 9.82193C0.773734 10.8008 0.667665 11.8779 0.874388 12.9171C1.08111 13.9562 1.59134 14.9108 2.34055 15.6599C3.08977 16.4091 4.04431 16.9193 5.08348 17.126C6.12265 17.3326 7.19977 17.2265 8.17862 16.821C9.15747 16.4155 9.9941 15.7288 10.5827 14.8479C11.1713 13.9669 11.4854 12.9311 11.4854 11.8716C11.4837 10.4514 10.9188 9.08979 9.91452 8.08556C8.91024 7.08134 7.54863 6.51648 6.1284 6.51492Z" fill="white"/>
<path d="M13.0199 9.96043C12.9175 9.96043 12.8194 9.91978 12.747 9.84741C12.6747 9.77505 12.634 9.6769 12.634 9.57456C12.634 9.47222 12.6747 9.37407 12.747 9.3017C12.8194 9.22934 12.9175 9.18868 13.0199 9.18868C13.8522 9.18868 14.6659 8.94186 15.3579 8.47943C16.05 8.017 16.5894 7.35973 16.9079 6.59074C17.2264 5.82175 17.3098 4.97558 17.1474 4.15923C16.9849 3.34288 16.5841 2.59303 15.9955 2.00449C15.407 1.41596 14.6571 1.01517 13.8407 0.852824C13.0244 0.690476 12.1782 0.773856 11.4092 1.09242C10.6403 1.41098 9.98303 1.95042 9.52064 2.64251C9.05826 3.33461 8.81149 4.14828 8.81154 4.98062C8.81154 5.08296 8.77089 5.18111 8.69852 5.25348C8.62616 5.32584 8.52801 5.3665 8.42567 5.3665C8.32333 5.3665 8.22518 5.32584 8.15282 5.25348C8.08045 5.18111 8.03979 5.08296 8.03979 4.98062C8.03974 3.99564 8.33177 3.03276 8.87896 2.21375C9.42614 1.39474 10.2039 0.756389 11.1139 0.379414C12.0239 0.00243956 13.0252 -0.0962231 13.9913 0.0959032C14.9573 0.288029 15.8447 0.762315 16.5412 1.45878C17.2378 2.15525 17.7121 3.04262 17.9043 4.00867C18.0965 4.97472 17.9978 5.97606 17.6209 6.88607C17.244 7.79608 16.6057 8.57388 15.7867 9.12112C14.9677 9.66835 14.0049 9.96043 13.0199 9.96043Z" fill="white"/>
<path d="M6.70275 15.7031C6.60046 15.703 6.5024 15.6622 6.43006 15.5899C6.35773 15.5176 6.31703 15.4195 6.31688 15.3172V14.7429C6.31688 14.6929 6.29703 14.645 6.26169 14.6097C6.22635 14.5743 6.17842 14.5545 6.12844 14.5545H5.55441C5.52964 14.5544 5.50511 14.5593 5.48221 14.5687C5.45932 14.5782 5.43851 14.5921 5.42098 14.6096C5.40345 14.6271 5.38955 14.6479 5.38006 14.6707C5.37057 14.6936 5.36569 14.7181 5.36569 14.7429V15.3172C5.36708 15.3688 5.35814 15.42 5.33938 15.4681C5.32062 15.5161 5.29243 15.5598 5.25647 15.5968C5.22051 15.6337 5.17752 15.6631 5.13003 15.6831C5.08254 15.7032 5.03151 15.7135 4.97996 15.7135C4.92841 15.7135 4.87738 15.7032 4.82989 15.6831C4.78239 15.6631 4.7394 15.6337 4.70344 15.5968C4.66749 15.5598 4.6393 15.5161 4.62054 15.4681C4.60178 15.42 4.59283 15.3688 4.59422 15.3172V14.7429C4.59422 14.6929 4.57437 14.645 4.53903 14.6097C4.50369 14.5743 4.45576 14.5545 4.40579 14.5545H3.83147C3.77994 14.5559 3.72865 14.5469 3.68064 14.5282C3.63262 14.5094 3.58885 14.4812 3.55191 14.4453C3.51497 14.4093 3.48561 14.3663 3.46556 14.3188C3.44551 14.2713 3.43518 14.2203 3.43518 14.1687C3.43518 14.1172 3.44551 14.0662 3.46556 14.0187C3.48561 13.9712 3.51497 13.9282 3.55191 13.8922C3.58885 13.8563 3.63262 13.8281 3.68064 13.8093C3.72865 13.7906 3.77994 13.7816 3.83147 13.783H4.40579C4.45576 13.783 4.50369 13.7632 4.53903 13.7278C4.57437 13.6925 4.59422 13.6445 4.59422 13.5946V10.149C4.59422 10.099 4.57437 10.0511 4.53903 10.0157C4.50369 9.98039 4.45576 9.96054 4.40579 9.96054H3.83147C3.72913 9.96054 3.63098 9.91988 3.55862 9.84752C3.48625 9.77515 3.4456 9.677 3.4456 9.57466C3.4456 9.47232 3.48625 9.37417 3.55862 9.30181C3.63098 9.22944 3.72913 9.18879 3.83147 9.18879H4.40579C4.43053 9.18879 4.45503 9.18391 4.4779 9.17444C4.50076 9.16497 4.52153 9.15109 4.53903 9.13359C4.55653 9.1161 4.57041 9.09532 4.57988 9.07246C4.58935 9.0496 4.59422 9.02509 4.59422 9.00035V8.42604C4.59694 8.32554 4.63877 8.23006 4.71081 8.15994C4.78285 8.08982 4.87942 8.05058 4.97996 8.05058C5.08049 8.05058 5.17706 8.08982 5.2491 8.15994C5.32115 8.23006 5.36298 8.32554 5.36569 8.42604V9.00007C5.36569 9.02484 5.37057 9.04936 5.38006 9.07224C5.38955 9.09513 5.40345 9.11591 5.42098 9.13341C5.43851 9.15091 5.45932 9.16479 5.48221 9.17424C5.50511 9.18369 5.52964 9.18854 5.55441 9.1885H6.12844C6.17842 9.1885 6.22635 9.16865 6.26169 9.13331C6.29703 9.09797 6.31688 9.05004 6.31688 9.00007V8.42604C6.31688 8.3237 6.35753 8.22555 6.4299 8.15318C6.50226 8.08082 6.60041 8.04016 6.70275 8.04016C6.80509 8.04016 6.90324 8.08082 6.97561 8.15318C7.04797 8.22555 7.08863 8.3237 7.08863 8.42604V9.10638C7.08863 9.14526 7.10067 9.18318 7.12307 9.21496C7.14548 9.24673 7.17716 9.27079 7.21379 9.28385C7.42487 9.35701 7.61719 9.47589 7.77701 9.63199C7.93683 9.78809 8.0602 9.97756 8.13831 10.1869C8.21641 10.3962 8.24733 10.6201 8.22885 10.8428C8.21036 11.0654 8.14293 11.2812 8.03138 11.4748C8.00704 11.5169 7.99997 11.5668 8.01167 11.614C8.02337 11.6612 8.05291 11.702 8.0941 11.7279C8.37436 11.9054 8.58946 12.1691 8.70709 12.4793C8.82472 12.7895 8.83852 13.1295 8.74643 13.4483C8.65433 13.767 8.46132 14.0472 8.19636 14.2469C7.93141 14.4466 7.60883 14.5549 7.27707 14.5556C7.22709 14.5556 7.17916 14.5755 7.14382 14.6108C7.10848 14.6461 7.08863 14.6941 7.08863 14.744V15.3183C7.08818 15.4204 7.04735 15.5182 6.97505 15.5903C6.90275 15.6624 6.80485 15.703 6.70275 15.7031ZM5.55441 12.2575C5.52964 12.2575 5.50511 12.2623 5.48221 12.2718C5.45932 12.2812 5.43851 12.2951 5.42098 12.3126C5.40345 12.3301 5.38955 12.3509 5.38006 12.3738C5.37057 12.3966 5.36569 12.4212 5.36569 12.4459V13.5946C5.36569 13.6193 5.37057 13.6439 5.38006 13.6667C5.38955 13.6896 5.40345 13.7104 5.42098 13.7279C5.43851 13.7454 5.45932 13.7593 5.48221 13.7687C5.50511 13.7782 5.52964 13.783 5.55441 13.783H7.27707C8.28647 13.783 8.28535 12.2575 7.27707 12.2575H5.55441ZM5.55441 9.96054C5.52964 9.9605 5.50511 9.96535 5.48221 9.9748C5.45932 9.98425 5.43851 9.99813 5.42098 10.0156C5.40345 10.0331 5.38955 10.0539 5.38006 10.0768C5.37057 10.0997 5.36569 10.1242 5.36569 10.149V11.2973C5.36569 11.3221 5.37057 11.3466 5.38006 11.3695C5.38955 11.3924 5.40345 11.4132 5.42098 11.4307C5.43851 11.4482 5.45932 11.462 5.48221 11.4715C5.50511 11.4809 5.52964 11.4858 5.55441 11.4858H6.70275C7.71244 11.4858 7.71104 9.96054 6.70275 9.96054H5.55441Z" fill="white"/>
<path d="M12.634 7.85195C12.6275 7.82382 12.6658 7.64073 12.5015 7.58954C12.2783 7.52207 12.0731 7.40498 11.9015 7.24704C11.7299 7.08909 11.5962 6.89437 11.5104 6.67745C11.4743 6.58175 11.4777 6.47562 11.5199 6.38242C11.562 6.28922 11.6394 6.21658 11.7351 6.18048C11.8308 6.14438 11.937 6.14777 12.0302 6.18991C12.1234 6.23206 12.196 6.3095 12.2321 6.4052C12.2991 6.55232 12.4088 6.67592 12.5469 6.75997C12.685 6.84402 12.8452 6.88464 13.0067 6.87657C13.7292 6.87657 14.373 5.92735 12.8784 5.33954C10.949 4.58017 11.219 2.8516 12.5086 2.3957C12.6754 2.33635 12.6261 2.15073 12.634 2.10939C12.634 2.00705 12.6747 1.9089 12.747 1.83653C12.8194 1.76417 12.9175 1.72351 13.0199 1.72351C13.1222 1.72351 13.2204 1.76417 13.2927 1.83653C13.3651 1.9089 13.4058 2.00705 13.4058 2.10939C13.4122 2.13751 13.374 2.3206 13.5382 2.37179C13.7615 2.43923 13.9666 2.55628 14.1382 2.71418C14.3099 2.87207 14.4436 3.06674 14.5294 3.2836C14.5655 3.37934 14.5622 3.48553 14.5201 3.57881C14.478 3.67209 14.4005 3.74482 14.3048 3.781C14.209 3.81717 14.1028 3.81384 14.0096 3.77172C13.9163 3.7296 13.8436 3.65216 13.8074 3.55642C13.5424 2.85329 12.2571 2.94442 12.2571 3.7862C12.2571 4.6862 14.5541 4.64682 14.5541 6.17514C14.5515 6.48505 14.4513 6.78625 14.2676 7.0359C14.084 7.28555 13.8263 7.47092 13.5312 7.56564C13.3641 7.6247 13.4136 7.8106 13.4058 7.85195C13.4058 7.95429 13.3651 8.05244 13.2927 8.1248C13.2204 8.19717 13.1222 8.23782 13.0199 8.23782C12.9175 8.23782 12.8194 8.19717 12.747 8.1248C12.6747 8.05244 12.634 7.95429 12.634 7.85195Z" fill="white"/>
<path d="M11.8435 16.9423C14.953 16.7173 17.414 13.747 17.2171 10.4592C17.2138 10.3587 17.2498 10.261 17.3175 10.1867C17.3852 10.1124 17.4792 10.0674 17.5795 10.0614C17.6799 10.0553 17.7786 10.0887 17.8547 10.1543C17.9308 10.2199 17.9783 10.3127 17.9871 10.4128C18.2121 14.1767 15.482 17.4511 11.8995 17.7121C11.7974 17.7195 11.6966 17.686 11.6191 17.6191C11.5417 17.5522 11.494 17.4572 11.4866 17.3551C11.4792 17.2531 11.5126 17.1522 11.5796 17.0748C11.6465 16.9974 11.7414 16.9497 11.8435 16.9423Z" fill="white"/>
<path d="M0.289146 6.08968C0.460514 4.41789 1.24432 2.86861 2.48965 1.74015C3.17457 1.11324 3.98354 0.637203 4.86416 0.34287C5.74479 0.0485377 6.67742 -0.0575235 7.60165 0.0315572C7.70197 0.0431882 7.79373 0.0936874 7.85724 0.172215C7.92075 0.250742 7.95094 0.351039 7.94133 0.451575C7.93172 0.552112 7.88308 0.644874 7.80585 0.709951C7.72862 0.775028 7.62895 0.807232 7.52824 0.799651C5.95838 0.654895 4.39522 1.13896 3.1819 2.14557C1.96858 3.15219 1.20424 4.59911 1.05668 6.16871C1.04429 6.26893 0.993109 6.36029 0.914123 6.4232C0.835138 6.48611 0.73464 6.51555 0.634194 6.50521C0.533748 6.49487 0.441358 6.44557 0.37685 6.36788C0.312341 6.29019 0.280854 6.19032 0.289146 6.08968Z" fill="white"/>
</g>
<defs>
<clipPath id="clip0_1605_93053">
<rect width="18" height="18" fill="white"/>
</clipPath>
</defs>
</svg>
