<svg width="24" height="24" viewBox="0 0 24 24" fill="none" xmlns="http://www.w3.org/2000/svg">
<path d="M16.5865 2C15.5607 2 14.5803 2.23568 13.6726 2.70055C13.0547 3.01693 12.487 3.43728 12 3.93601C11.5129 3.43728 10.9453 3.01693 10.3274 2.70055C9.41965 2.23568 8.43927 2 7.41348 2C3.8771 2 1 4.88361 1 8.42803C1 10.9385 2.32286 13.6048 4.93179 16.3529C7.1101 18.6475 9.77705 20.5603 11.6307 21.7608L12 22L12.3693 21.7608C14.223 20.5603 16.8899 18.6475 19.0683 16.3529C21.6772 13.6048 23 10.9385 23 8.42803C23 4.88361 20.1229 2 16.5865 2ZM18.0824 15.4128C16.1356 17.4634 13.7642 19.2068 12 20.3735C10.2358 19.2067 7.86441 17.4634 5.91766 15.4128C3.55749 12.9267 2.36082 10.5767 2.36082 8.42803C2.36082 5.63567 4.62746 3.3639 7.41352 3.3639C9.01753 3.3639 10.491 4.10237 11.456 5.38989L12 6.11571L12.544 5.38989C13.509 4.10237 14.9825 3.3639 16.5865 3.3639C19.3725 3.3639 21.6392 5.63567 21.6392 8.42803C21.6392 10.5767 20.4425 12.9267 18.0824 15.4128Z" fill="#EEEEEE"/>
</svg>
