<svg width="112" height="30" viewBox="0 0 112 30" fill="none" xmlns="http://www.w3.org/2000/svg">
<path fill-rule="evenodd" clip-rule="evenodd" d="M11.632 12.808C10.2936 13.2808 8.8703 13.5172 7.06457 13.5172C3.26191 13.5172 0.0115967 11.0029 0.0115967 7.17765C0.0115967 2.90115 3.00699 0 7.48945 0C9.16772 0 10.5061 0.32235 11.6108 0.816619L10.8885 2.83668C10.5273 2.51433 9.33767 1.78367 7.36199 1.78367C4.26038 1.78367 2.51838 3.73925 2.51838 6.74785C2.51838 9.92837 4.72774 11.841 7.17079 11.841C8.04179 11.841 8.65786 11.755 9.16772 11.5831C9.25269 10.8739 9.25269 9.54155 9.25269 8.87536C9.25269 8.01576 9.25269 7.32808 9.16772 6.70487H11.6745C11.632 7.45702 11.632 8.3596 11.632 9.26218C11.632 10.2292 11.632 11.755 11.6745 12.7865L11.632 12.808Z" fill="#EEEEEE"/>
<path fill-rule="evenodd" clip-rule="evenodd" d="M0.0115967 23.639C0.0115967 19.212 3.21943 16.5043 7.19204 16.5043C8.8703 16.5043 9.97499 16.6977 11.0159 17.192L10.2512 19.298C9.91126 18.8252 8.80657 18.2235 7.21328 18.2235C4.49406 18.2235 2.56087 20.0716 2.56087 23.2307C2.56087 26.2393 4.57904 28.2163 7.21328 28.2163C8.44543 28.2163 9.42265 27.9585 10.3786 27.3352L11.0797 29.0115C9.82628 29.7206 8.57289 29.9785 6.83089 29.9785C2.9645 29.9785 0.0115967 27.3997 0.0115967 23.639Z" fill="#EEEEEE"/>
<path fill-rule="evenodd" clip-rule="evenodd" d="M18.0264 16.5258C14.1388 16.5258 11.1646 19.2765 11.1646 23.4671C11.1646 27.3997 13.9476 30 18.0264 30C21.8503 30 24.867 27.2923 24.867 23.0802C24.867 19.1261 22.1053 16.5258 18.0264 16.5258ZM18.0264 28.2808C15.4134 28.2808 13.7776 26.2393 13.7776 23.2521C13.7776 20.265 15.3709 18.245 18.0264 18.245C20.5332 18.245 22.2752 20.2221 22.2752 23.2521C22.2752 26.2607 20.5757 28.2808 18.0264 28.2808Z" fill="#EEEEEE"/>
<path fill-rule="evenodd" clip-rule="evenodd" d="M20.3208 0.12894H18.0689C16.3906 4.04011 13.7776 10.1218 12.2481 13.3453H14.6274C14.7549 12.937 15.031 12.3352 15.2222 11.8625C15.5409 11.2178 15.8383 10.4226 16.1145 9.69198H21.4255C21.6804 10.4226 21.999 11.1748 22.2752 11.884C22.4664 12.3782 22.6364 12.8725 22.8063 13.3453H25.5468C23.7623 9.28367 21.6591 3.8467 20.3208 0.12894ZM16.7943 7.90831C17.0492 7.26361 17.3891 6.53295 17.644 5.86676C18.1326 4.66332 18.6 3.54585 18.9612 2.53582C19.5135 4.21203 20.1296 6.01719 20.8944 7.90831H16.7943Z" fill="#EEEEEE"/>
<path fill-rule="evenodd" clip-rule="evenodd" d="M37.7833 29.7851C37.7833 26.3252 37.677 22.7149 37.5071 19.6203C37.2946 20.2436 37.0397 20.9312 36.7423 21.7693C35.8288 24.2837 34.6816 27.5716 33.8531 29.7851H31.665C30.5391 26.4542 29.1795 22.3711 28.3085 19.6203C27.9898 22.6719 27.6712 26.3897 27.5437 29.7851H25.3343C25.9716 25.3152 26.2903 21.1461 26.4603 16.7192H29.4344C30.0505 18.8897 30.9002 21.2536 31.7075 23.5315C32.1961 24.9069 32.6422 26.1103 33.0034 27.3138C34.2143 24.2622 35.6801 20.0287 36.8273 16.7192H39.674C39.674 20.4799 39.9926 25.4871 40.375 29.7851H37.7833Z" fill="#EEEEEE"/>
<path fill-rule="evenodd" clip-rule="evenodd" d="M38.5055 13.3238C38.5055 9.8639 38.3993 6.25358 38.2294 3.13754C37.9957 3.76074 37.7408 4.46991 37.4221 5.30802C36.5511 7.77937 35.3827 11.1103 34.5542 13.3238H32.3661C31.2401 9.99284 29.8805 5.90974 29.0095 3.13754C28.6696 6.2106 28.3297 9.92837 28.2447 13.3238H26.0354C26.6727 8.85387 26.9914 4.68481 27.1613 0.23639H30.1355C30.7515 2.38539 31.6013 4.77077 32.4086 7.02722C32.8759 8.40258 33.322 9.62751 33.7044 10.8309C34.9153 7.75788 36.3812 3.52436 37.5071 0.23639H40.375C40.375 3.97564 40.6937 9.0043 41.0761 13.3238H38.5055Z" fill="#EEEEEE"/>
<path fill-rule="evenodd" clip-rule="evenodd" d="M53.7587 29.7851C53.7587 26.3252 53.6525 22.7149 53.4825 19.6203C53.2488 20.2436 52.9939 20.9312 52.6752 21.7693C51.783 24.2837 50.6358 27.5716 49.8073 29.7851H47.5979C46.4508 26.4542 45.1549 22.3711 44.2626 19.6203C43.9227 22.6719 43.5828 26.3897 43.4554 29.7851H41.2673C41.9046 25.3152 42.202 21.1461 42.3719 16.7192H45.3673C45.9834 18.8897 46.8119 21.2536 47.6192 23.5315C48.1078 24.9069 48.5539 26.1103 48.9363 27.3138C50.1472 24.2622 51.5918 20.0287 52.739 16.7192H55.5856C55.5856 20.4799 55.9043 25.4871 56.2867 29.7851H53.7587Z" fill="#EEEEEE"/>
<path fill-rule="evenodd" clip-rule="evenodd" d="M49.17 6.27507C50.5084 5.88825 51.5493 4.68481 51.5493 3.4384C51.5493 1.46132 49.7011 0.25788 46.5357 0.25788H42.5631C42.6906 2.81519 42.6906 4.36246 42.6906 6.96275C42.6906 9.41261 42.6906 10.8954 42.5631 13.3238H46.5782C50.2747 13.3238 52.1016 11.9484 52.1016 9.41261C52.1229 7.84384 50.9757 6.68338 49.17 6.27507ZM45.0274 1.97708C45.3673 1.89112 45.8772 1.89112 46.2596 1.89112C48.384 1.89112 49.2337 2.5788 49.2337 3.76075C49.2337 5.00716 48.2565 5.69484 46.1958 5.69484H44.9849C44.9637 4.38395 44.9637 3.07307 45.0274 1.97708ZM46.3021 11.6046H45.0062C44.9637 10.1648 44.9637 8.85387 44.9637 7.39255H46.2596C48.6389 7.39255 49.7436 8.10172 49.7436 9.47708C49.7436 10.8309 48.8938 11.6046 46.3021 11.6046Z" fill="#EEEEEE"/>
<path fill-rule="evenodd" clip-rule="evenodd" d="M55.6919 10.0143C55.6919 10.5301 55.7131 11.0244 55.7131 11.5616C57.6676 11.5616 60.1744 11.5616 61.5127 11.4756L60.8329 13.3238H53.2701C53.3975 10.8954 53.3975 9.41261 53.3975 6.96275C53.3975 4.34097 53.3975 2.81519 53.2701 0.25788H55.7768C55.7556 1.13897 55.7556 1.9341 55.7344 2.60029C55.7131 3.86819 55.6494 5.351 55.6494 6.96275C55.6494 8.12321 55.6707 9.04728 55.6919 10.0143Z" fill="#EEEEEE"/>
<path fill-rule="evenodd" clip-rule="evenodd" d="M57.71 29.7851C57.8375 27.4427 57.8375 25.8954 57.8375 23.4671C57.8375 20.8023 57.8375 19.298 57.71 16.6977H60.2168C60.0894 19.2765 60.0894 20.8023 60.0894 23.4671C60.0894 25.8954 60.0894 27.4427 60.2168 29.7851H57.71Z" fill="#EEEEEE"/>
<path fill-rule="evenodd" clip-rule="evenodd" d="M69.5854 19.1476C69.0118 18.6533 68.0983 18.1805 66.8024 18.1805C65.2304 18.1805 64.4444 18.8682 64.4444 19.7923C64.4444 20.5659 64.8055 21.1246 66.4838 21.8553C66.8874 22.0272 67.3548 22.2421 67.7796 22.4355C69.7766 23.3596 70.5838 24.3481 70.5838 26.1318C70.5838 28.6676 68.5444 29.9785 65.8252 29.9785C64.2319 29.9785 62.8086 29.7206 61.5764 29.1404L62.2987 27.2278C63.2759 27.8725 64.5506 28.3238 65.7827 28.3238C67.546 28.3238 68.162 27.4857 68.162 26.4756C68.162 25.5301 67.5247 24.9284 66.2076 24.3266C65.7615 24.1117 65.1454 23.8324 64.6993 23.639C62.9148 22.8009 62.0438 21.8123 62.0438 20.1361C62.0438 18.0516 63.9345 16.4828 66.8237 16.4828C68.417 16.4828 69.5641 16.7407 70.3502 17.1705L69.5854 19.1476Z" fill="#EEEEEE"/>
<path fill-rule="evenodd" clip-rule="evenodd" d="M62.5112 13.3238C62.6386 10.8954 62.6386 9.41261 62.6386 6.96275C62.6386 4.34097 62.6386 2.81519 62.5112 0.25788H65.0179C65.0179 0.881089 64.9967 1.48281 64.9967 1.99857C64.9754 3.6533 64.9117 4.96418 64.9117 6.96275C64.9117 8.81089 64.9542 10.1003 64.9967 11.6691C64.9967 12.1633 65.0179 12.7436 65.0179 13.3453H62.5112" fill="#EEEEEE"/>
<path fill-rule="evenodd" clip-rule="evenodd" d="M77.743 0.25788C77.6581 2.81519 77.6581 4.36246 77.6581 6.96275C77.6581 9.41261 77.6581 10.8954 77.743 13.3238H75.4912C73.1544 9.67049 70.5414 5.73782 68.6931 3.13754C68.6931 7.52149 68.6931 9.8639 68.8206 13.3238H66.5475C66.675 10.8954 66.675 9.41261 66.675 6.96275C66.675 4.34097 66.675 2.81519 66.5475 0.25788H69.1605C71.6673 3.6533 74.1103 7.22063 75.6399 9.60602C75.6399 5.73782 75.6399 3.33095 75.5124 0.25788H77.743Z" fill="#EEEEEE"/>
<path fill-rule="evenodd" clip-rule="evenodd" d="M79.0602 19.1476C78.4653 18.6533 77.5731 18.1805 76.2772 18.1805C74.7052 18.1805 73.8979 18.8682 73.8979 19.7923C73.8979 20.5659 74.2803 21.1246 75.9585 21.8553C76.3834 22.0272 76.8296 22.2421 77.2544 22.4355C79.2301 23.3596 80.0586 24.3481 80.0586 26.1318C80.0586 28.6676 78.0192 29.9785 75.3212 29.9785C73.6854 29.9785 72.3046 29.7206 71.0724 29.1404L71.7947 27.2278C72.772 27.8725 74.0041 28.3238 75.2787 28.3238C77.042 28.3238 77.6581 27.4857 77.6581 26.4756C77.6581 25.5301 77.0207 24.9284 75.7036 24.3266C75.2575 24.1117 74.6414 23.8324 74.1953 23.639C72.4108 22.8009 71.5398 21.8123 71.5398 20.1361C71.5398 18.0516 73.4305 16.4828 76.3197 16.4828C77.913 16.4828 79.0602 16.7407 79.8462 17.1705L79.0602 19.1476Z" fill="#EEEEEE"/>
<path fill-rule="evenodd" clip-rule="evenodd" d="M90.5956 12.808C89.2572 13.2808 87.8126 13.5172 86.0282 13.5172C82.2255 13.5172 78.9539 11.0029 78.9539 7.17765C78.9539 2.90115 81.9706 0 86.4743 0C88.1313 0 89.4909 0.32235 90.5956 0.816619L89.8733 2.7937C89.321 2.23496 87.8551 1.76218 86.4105 1.76218C83.2027 1.76218 81.482 3.71776 81.482 6.72636C81.482 9.90688 83.6701 11.8195 86.1344 11.8195C87.0054 11.8195 87.6002 11.7335 88.0888 11.5616C88.1738 10.8524 88.1738 9.52006 88.1738 8.85387C88.1738 7.99427 88.1738 7.30659 88.0888 6.68338H90.6168C90.5744 7.43553 90.5744 8.33811 90.5744 9.24069C90.5744 10.2077 90.5744 11.7335 90.6168 12.765L90.5956 12.808Z" fill="#EEEEEE"/>
<path fill-rule="evenodd" clip-rule="evenodd" d="M81.3545 29.7851C81.482 27.4427 81.482 25.8954 81.482 23.4671C81.482 20.8023 81.482 19.298 81.3545 16.6977H83.8613C83.7338 19.2765 83.7338 20.8023 83.7338 23.4671C83.7338 25.8954 83.7338 27.4427 83.8613 29.7851H81.3545Z" fill="#EEEEEE"/>
<path fill-rule="evenodd" clip-rule="evenodd" d="M91.8915 16.5258C88.0038 16.5258 85.0509 19.2765 85.0509 23.4671C85.0509 27.3997 87.8126 30 91.8915 30C95.7579 30 98.7533 27.2923 98.7533 23.0802C98.7533 19.1261 95.9915 16.5258 91.8915 16.5258ZM91.8915 28.2808C89.3422 28.2808 87.6427 26.2393 87.6427 23.2521C87.6427 20.265 89.2785 18.245 91.8915 18.245C94.4195 18.245 96.1827 20.2221 96.1827 23.2521C96.1615 26.2607 94.462 28.2808 91.8915 28.2808Z" fill="#EEEEEE"/>
<path fill-rule="evenodd" clip-rule="evenodd" d="M111.075 16.6977C110.99 19.2765 110.99 20.8023 110.99 23.4671C110.99 25.8954 110.99 27.4427 111.075 29.7851H108.908C106.486 26.1318 103.894 22.1991 102.046 19.6203C102.046 24.0043 102.046 26.4112 102.174 29.7851H99.9854V29.4198C100.007 28.2808 100.113 25.6375 100.113 23.4671C100.113 20.8023 100.028 18.0086 99.9854 16.6977H102.535C105.084 20.1361 107.463 23.7249 109.014 26.0888C109.014 22.3066 109.014 19.7923 108.887 16.6977H111.075Z" fill="#EEEEEE"/>
</svg>
