<svg width="209" height="20" viewBox="0 0 209 20" fill="none" xmlns="http://www.w3.org/2000/svg">
<path d="M0.351318 0.853046H7.52208C10.7305 0.853046 11.8626 0.948646 12.8044 1.32614C14.5977 2.17919 15.6346 3.88528 15.6346 5.87572C15.6346 7.77056 15.0686 8.71921 13.1826 9.66785C15.1637 10.3321 16.4837 12.227 16.2958 14.313C16.2958 17.4409 13.8438 19.5269 10.2572 19.5269H0.351318V16.4922H1.76644V3.88528H0.351318V0.853046ZM5.63363 3.88528V8.43486H9.31295C10.6329 8.53046 11.8602 7.58181 11.9553 6.25567C11.9553 6.16007 11.9553 6.06692 11.9553 6.06692C11.9553 4.83393 10.7281 3.88773 9.02992 3.88773H5.63363V3.88528ZM5.63363 11.3739V16.4922H9.59597C11.1062 16.5878 12.4262 15.5436 12.5214 14.0287C12.5214 14.0287 12.5214 14.0287 12.5214 13.9331C12.5214 12.3226 11.2014 11.2783 9.22023 11.2783L5.63363 11.3739Z" fill="#EEEEEE"/>
<path d="M31.9549 14.8817C31.2937 18.0096 28.7465 19.9044 25.3502 19.9044C21.3878 19.9044 18.4624 16.7766 18.4624 12.4157C18.4624 8.05491 21.3878 4.92707 25.3502 4.92707C27.5192 4.92707 29.5956 5.96887 30.8228 7.86616C31.767 9.47665 32.3331 11.2783 32.2379 13.1732H22.049C22.4272 16.8697 24.7841 17.0585 25.4453 17.0585C26.7653 17.1541 27.9926 16.2054 28.3707 14.9724L31.9549 14.8817ZM28.3707 10.7096C28.3707 9.09915 27.0508 7.86616 25.5405 7.86616H25.4453C23.8423 7.86616 22.5199 9.09915 22.2369 10.614L28.3707 10.7096Z" fill="#EEEEEE"/>
<path d="M43.7492 10.2365H50.2588V19.5245H48.1824V16.5878C47.8043 17.2521 47.3334 17.8208 46.7673 18.3895C45.5401 19.4313 44.0322 20 42.522 20C38.1814 20 34.7851 15.7348 34.7851 10.2365C34.7851 4.73833 38.1814 0.379949 42.4268 0.379949C44.7862 0.284349 46.86 1.61294 47.9921 3.60338V0.664297H49.9733V6.63562H47.897C47.7091 5.78257 47.3309 5.02513 46.86 4.36083C45.9158 3.12783 44.408 2.37039 42.8977 2.27479C40.6335 2.27479 37.2372 4.26523 37.2372 10.0478C37.2372 14.5974 39.6893 17.914 42.8977 17.914C45.4449 17.8184 47.5212 15.9235 47.9921 13.46C48.0873 12.9869 48.0873 12.4182 48.0873 11.9426H43.6541L43.7492 10.2365Z" fill="#EEEEEE"/>
<path d="M66.1081 19.6201H62.0506V17.0609C61.1064 18.8626 59.2204 19.9044 57.2392 19.9044C54.8799 20.0931 52.806 18.1983 52.6157 15.8279C52.6157 15.7323 52.6157 15.6392 52.6157 15.5436C52.6157 12.7957 54.975 11.4671 60.6355 10.8984L61.9555 10.8028V9.38105C61.9555 7.77056 60.7282 6.72632 58.7471 6.72632C56.7659 6.72632 55.729 7.39061 55.3508 9.28545H53.1817C53.3696 8.14806 53.9357 7.10626 54.7847 6.34637C55.8217 5.49332 57.2368 5.11337 58.5592 5.11337C61.4846 5.11337 63.9367 6.43952 63.9367 10.0429V17.9091H65.9178L66.1081 19.6201ZM62.0506 12.227L60.7307 12.4157C56.3902 12.9844 54.975 13.7419 54.975 15.5436C55.0702 17.1541 56.3902 18.2915 57.9004 18.2915C59.9768 18.1959 61.7676 16.681 62.0506 14.5949V12.227Z" fill="#EEEEEE"/>
<path d="M72.0517 7.96176C72.7129 7.01311 73.9377 5.02267 76.58 5.02267C78.4661 5.02267 79.5054 5.97132 79.8812 7.96176C80.2594 7.29746 80.6351 6.72877 81.2011 6.16007C82.0502 5.40262 83.0872 4.92707 84.2193 4.92707C86.3883 4.92707 87.6156 6.34882 87.6156 8.81236V17.8159H89.5967V19.522H85.6344V9.5698C85.6344 7.57936 84.9732 6.63071 83.5581 6.63071C81.106 6.63071 79.7836 9.5698 79.7836 10.6116V17.8159H81.8599V19.522H77.7097V9.2879C77.7097 7.48621 77.0485 6.72877 75.6334 6.72877C73.4643 6.72877 71.8589 9.47665 71.8589 10.8052V17.914H73.9352V19.6201H67.8038V17.914H69.8802V6.91997H67.8038V5.21387H71.9541L72.0517 7.96176Z" fill="#EEEEEE"/>
<path d="M91.7682 0H95.7306V8.24611C96.2966 7.20431 97.8996 5.11827 100.354 5.11827C103.563 5.11827 106.015 8.43486 106.015 12.6069C106.015 16.4922 103.372 19.8113 100.354 19.8113C97.8069 19.8113 96.5796 18.1052 95.7306 16.9678V19.6225H91.6755V17.9164H93.6567V1.70609H91.7707V0H91.7682ZM95.7306 13.5531C95.7306 15.9235 97.5238 17.8184 99.788 18.0071C102.24 18.0071 103.75 15.8279 103.75 12.3201C103.75 8.81235 102.147 6.72877 99.788 6.72877C97.7117 6.72877 95.6378 9.00356 95.6378 11.0896L95.7306 13.5531Z" fill="#EEEEEE"/>
<path d="M107.225 0H111.282V17.914H113.168V19.6201H107.13V17.914H109.206V1.61049H107.225V0Z" fill="#EEEEEE"/>
<path d="M127.036 15.6392C126.849 16.4922 126.47 17.1565 125.904 17.8184C124.772 19.1445 123.169 19.9044 121.376 19.9044C117.509 19.9044 114.771 16.8722 114.771 12.5113C114.771 8.34171 117.506 5.11827 120.998 5.11827C124.489 5.11827 127.319 7.86616 127.319 12.8913H117.035C117.223 14.9773 117.697 16.2079 118.638 17.1565C119.392 17.8208 120.337 18.1983 121.281 18.1983C122.884 18.1983 123.923 17.4409 124.677 15.7348L127.036 15.6392ZM124.963 11.2783C124.963 9.9522 124.492 8.71921 123.547 7.67741C122.886 7.10871 122.037 6.72877 121.188 6.82437C119.395 6.91997 117.887 8.15051 117.414 9.8566C117.318 10.3297 117.131 10.8052 117.131 11.2783H124.963Z" fill="#EEEEEE"/>
<path d="M136.001 0.853046H140.529L145.719 16.5878H147.134V19.6201H142.888L141.661 15.5436H135.056L133.829 19.6201H129.489V16.5878H130.904L136.001 0.853046ZM138.265 4.36083L135.813 12.7025H140.719L138.265 4.36083Z" fill="#EEEEEE"/>
<path d="M146.943 5.30702H152.604V8.05491H151.189L153.17 16.4898L155.529 5.30457H159.209L161.568 16.2986L163.454 8.05246H162.039V5.30702H167.699V8.05491H166.472L163.454 19.5245H159.679L157.32 9.66785L155.056 19.5245H151.281L148.168 8.05491H146.941L146.943 5.30702Z" fill="#EEEEEE"/>
<path d="M181.097 16.8722H182.324V19.6201H177.891V17.914C176.854 19.2401 175.248 19.9044 173.55 19.9044C170.72 19.9044 168.551 18.0096 168.551 15.4504C168.551 11.2808 173.267 10.8052 177.795 10.4277C177.795 8.24856 177.042 7.58426 175.248 7.58426C173.455 7.58426 172.796 8.43731 172.701 9.76345V9.85905L169.305 9.76345C169.493 6.91997 171.757 5.11827 175.153 5.11827C179.115 5.11827 181.192 6.91997 181.192 10.1409L181.097 16.8722ZM177.7 12.8913C174.399 13.1756 172.228 13.46 172.228 15.4504C172.228 16.5878 173.172 17.3453 174.587 17.3453C176.285 17.3453 177.7 16.0191 177.795 14.313V12.8913H177.7Z" fill="#EEEEEE"/>
<path d="M189.011 7.58181C189.956 5.78012 190.993 5.02267 192.596 5.02267C193.162 5.02267 193.633 5.11827 194.199 5.21142V8.53046C193.633 8.43486 193.067 8.34171 192.501 8.34171C190.707 8.24611 189.199 9.5747 189.104 11.2808V16.779H190.802V19.5269H184.198V16.7766H185.613V8.05736H184.198V5.30702H189.009V7.58181H189.011Z" fill="#EEEEEE"/>
<path d="M208.445 14.8817C207.784 18.0096 205.237 19.9044 201.84 19.9044C197.878 19.9044 194.953 16.7766 194.953 12.4157C194.953 8.05491 197.878 4.92707 201.84 4.92707C204.009 4.92707 206.086 5.96887 207.313 7.86616C208.257 9.47665 208.823 11.2783 208.728 13.1732H198.539C198.917 16.8697 201.274 17.0585 201.935 17.0585C203.255 17.1541 204.483 16.2054 204.861 14.9724L208.445 14.8817ZM204.766 10.7096C204.766 9.09915 203.446 7.86616 201.935 7.86616H201.84C200.237 7.86616 198.915 9.09915 198.632 10.614L204.766 10.7096Z" fill="#EEEEEE"/>
</svg>
