<svg width="104" height="30" viewBox="0 0 104 30" fill="none" xmlns="http://www.w3.org/2000/svg">
<path d="M39.0284 11.4442C39.1041 11.7068 39.0284 11.8599 38.812 11.9256L36.8428 12.5164C36.7993 12.5377 36.7514 12.5481 36.703 12.5468C36.6547 12.5455 36.6074 12.5326 36.565 12.509C36.5226 12.4854 36.4865 12.452 36.4595 12.4114C36.4326 12.3708 36.4156 12.3243 36.41 12.2757C36.2994 11.7933 36.0185 11.3683 35.6202 11.0803C35.2218 10.7923 34.7333 10.6611 34.2461 10.7111C33.9033 10.67 33.5557 10.7095 33.2305 10.8267C32.9054 10.9438 32.6113 11.1354 32.3715 11.3864C32.1316 11.6375 31.9523 11.9412 31.8477 12.2738C31.7431 12.6065 31.716 12.9591 31.7684 13.3041V16.7286C31.7684 18.2275 32.3851 19.3326 34.2461 19.3326C34.5572 19.383 34.8757 19.3592 35.1761 19.2632C35.4766 19.1672 35.7507 19.0015 35.9766 18.7794C36.2025 18.5574 36.374 18.285 36.4775 17.984C36.5809 17.6831 36.6134 17.3618 36.5723 17.0459V16.5973H34.5382C34.4995 16.601 34.4604 16.5957 34.4239 16.582C34.3874 16.5682 34.3544 16.5464 34.3274 16.518C34.3004 16.4896 34.28 16.4555 34.2678 16.4181C34.2556 16.3807 34.2519 16.341 34.2569 16.3019V14.4092C34.2534 14.3389 34.2758 14.2698 34.3198 14.2152C34.3638 14.1606 34.4262 14.1245 34.495 14.1138H38.9743C39.012 14.1089 39.0502 14.1125 39.0863 14.1242C39.1225 14.1359 39.1557 14.1555 39.1835 14.1816C39.2114 14.2077 39.2332 14.2396 39.2475 14.2751C39.2619 14.3107 39.2683 14.349 39.2664 14.3873V17.21C39.2745 17.8641 39.1476 18.5127 38.8938 19.1144C38.64 19.716 38.2649 20.2576 37.7924 20.7044C37.32 21.1513 36.7606 21.4936 36.15 21.7095C35.5394 21.9254 34.891 22.0102 34.2461 21.9584C30.6215 21.9584 28.9229 19.7702 28.9229 16.8052V13.1947C28.9229 10.2079 30.6215 8.03062 34.2461 8.03062C35.3088 7.94609 36.3674 8.2384 37.2401 8.85733C38.1128 9.47627 38.7451 10.3832 39.0284 11.4223V11.4442ZM49.0149 14.8359V21.4879C49.0164 21.5224 49.0111 21.5569 48.9994 21.5893C48.9877 21.6217 48.9697 21.6515 48.9466 21.6769C48.9235 21.7023 48.8956 21.7228 48.8647 21.7373C48.8337 21.7519 48.8002 21.76 48.7661 21.7615H46.732C46.6979 21.7645 46.6635 21.7606 46.6309 21.7501C46.5982 21.7396 46.5679 21.7227 46.5418 21.7003C46.5157 21.6779 46.4941 21.6506 46.4785 21.6197C46.4629 21.5889 46.4534 21.5553 46.4507 21.5208V20.4267C46.1661 20.9118 45.7604 21.3127 45.2743 21.5892C44.7881 21.8658 44.2386 22.0082 43.6809 22.0022C43.2666 22.0312 42.851 21.9702 42.462 21.8233C42.073 21.6765 41.7195 21.4472 41.4254 21.1508C41.1313 20.8544 40.9033 20.4978 40.7567 20.1049C40.6101 19.7121 40.5484 19.292 40.5756 18.8731C40.5756 17.024 41.7225 15.919 44.5248 15.7221C45.1333 15.6728 45.7448 15.6728 46.3533 15.7221V14.989C46.381 14.7991 46.3642 14.6053 46.3042 14.4232C46.2442 14.2411 46.1427 14.0757 46.008 13.9405C45.8732 13.8053 45.7089 13.704 45.5284 13.6448C45.3478 13.5856 45.156 13.5701 44.9684 13.5995C44.6636 13.5575 44.3542 13.6302 44.0989 13.8036C43.8436 13.9771 43.6602 14.2393 43.5835 14.5405C43.4861 14.7593 43.4104 14.803 43.2156 14.7483L41.214 14.2341C41.0084 14.2341 40.9976 14.07 41.03 13.9168C41.3005 12.4726 42.6638 11.4004 45.0766 11.4004C47.4894 11.4004 49.0149 12.5492 49.0149 14.8359ZM46.3317 18.3041V17.3413C45.7984 17.3086 45.2636 17.3086 44.7304 17.3413C43.7133 17.4726 43.1615 17.7899 43.1615 18.5777C43.1615 19.3654 43.6376 19.6717 44.4274 19.6717C44.8488 19.6844 45.2627 19.5577 45.6064 19.3109C45.95 19.0641 46.2047 18.7106 46.3317 18.3041ZM56.2425 11.3238C56.8023 11.3107 57.3507 11.4849 57.8026 11.8192C58.2546 12.1535 58.5847 12.6294 58.7418 13.1728C59.0318 12.6355 59.4541 12.1829 59.9678 11.859C60.4815 11.5351 61.0691 11.3507 61.6739 11.3238C63.4375 11.3238 64.4438 12.7462 64.4438 14.8577V21.4223C64.4411 21.4621 64.4305 21.501 64.4125 21.5366C64.3946 21.5722 64.3697 21.6037 64.3393 21.6292C64.309 21.6548 64.2738 21.6739 64.236 21.6853C64.1982 21.6968 64.1584 21.7003 64.1192 21.6958H62.0202C61.9809 21.7003 61.9412 21.6968 61.9034 21.6853C61.8655 21.6739 61.8304 21.6548 61.8 21.6292C61.7697 21.6037 61.7448 21.5722 61.7268 21.5366C61.7089 21.501 61.6982 21.4621 61.6956 21.4223V15.3501C61.6956 14.4311 61.2952 13.8731 60.6136 13.8731C59.932 13.8731 59.3153 14.5076 59.0448 15.4595V21.4879C59.0478 21.5558 59.0247 21.6222 58.9803 21.6732C58.9359 21.7242 58.8737 21.7559 58.8067 21.7615H56.4913C56.329 21.7615 56.2641 21.652 56.2641 21.4879V15.3501C56.2641 14.4311 55.853 13.8731 55.1821 13.8731C54.5113 13.8731 53.8621 14.5405 53.6133 15.4814V21.4879C53.6163 21.521 53.6127 21.5543 53.6029 21.586C53.5931 21.6177 53.5771 21.6471 53.556 21.6725C53.5349 21.698 53.509 21.7189 53.4798 21.7342C53.4507 21.7494 53.4188 21.7587 53.3861 21.7615H51.0923C51.0596 21.7645 51.0266 21.7609 50.9953 21.7509C50.964 21.741 50.9349 21.7249 50.9098 21.7035C50.8846 21.6822 50.8639 21.656 50.8488 21.6265C50.8337 21.597 50.8245 21.5648 50.8218 21.5317V11.8162C50.8204 11.7822 50.8257 11.7483 50.8376 11.7165C50.8494 11.6847 50.8675 11.6557 50.8908 11.6311C50.914 11.6066 50.942 11.5871 50.9729 11.5737C51.0038 11.5604 51.0371 11.5536 51.0707 11.5536H53.2346C53.3017 11.5505 53.3674 11.5739 53.4179 11.6188C53.4683 11.6637 53.4996 11.7266 53.5051 11.7943V12.9759C53.7952 12.4957 54.1976 12.0949 54.6768 11.8087C55.1559 11.5225 55.6973 11.3598 56.2533 11.3348L56.2425 11.3238ZM75.9018 11.5427C75.9018 11.7834 75.9018 11.9693 75.6637 12.0241L73.7378 12.593C73.6943 12.6143 73.6464 12.6247 73.598 12.6234C73.5497 12.6221 73.5024 12.6091 73.46 12.5856C73.4177 12.562 73.3815 12.5285 73.3545 12.488C73.3276 12.4474 73.3106 12.4009 73.3051 12.3523C73.2228 11.8614 72.9616 11.4195 72.5731 11.1137C72.1846 10.8079 71.6968 10.6604 71.206 10.7002C69.5506 10.7002 69.0421 11.7943 69.0421 13.2932V16.7177C69.0421 18.2166 69.648 19.3216 71.206 19.3216C71.7309 19.3615 72.2505 19.193 72.6545 18.8519C73.0585 18.5108 73.3152 18.0238 73.37 17.4945C73.3755 17.4459 73.3925 17.3994 73.4194 17.3588C73.4464 17.3182 73.4826 17.2848 73.5249 17.2612C73.5673 17.2376 73.6146 17.2247 73.663 17.2234C73.7113 17.2221 73.7592 17.2325 73.8028 17.2538L75.7395 17.8774C75.7879 17.8908 75.8331 17.9143 75.8719 17.9465C75.9108 17.9787 75.9425 18.0189 75.965 18.0643C75.9874 18.1098 76.0002 18.1595 76.0023 18.2102C76.0045 18.261 75.996 18.3116 75.9775 18.3588C75.5231 20.3501 74.0949 21.9693 71.152 21.9693C67.8303 21.9693 66.1533 19.7812 66.1533 16.8162V13.2057C66.1533 10.2188 67.8736 8.04156 71.152 8.04156C72.2326 7.93159 73.3154 8.22934 74.1921 8.87761C75.0688 9.52588 75.6777 10.4789 75.9018 11.5536V11.5427ZM85.6395 14.8249V21.477C85.6425 21.5449 85.6194 21.6113 85.575 21.6623C85.5306 21.7133 85.4684 21.7449 85.4014 21.7505H83.3241C83.254 21.7567 83.1843 21.735 83.1297 21.6901C83.0752 21.6451 83.0401 21.5805 83.0319 21.5098V20.4157C82.749 20.9024 82.3437 21.3045 81.8572 21.5813C81.3706 21.858 80.8203 21.9995 80.2621 21.9912C79.847 22.0219 79.4302 21.9621 79.0398 21.816C78.6495 21.6699 78.2947 21.4408 77.9994 21.1442C77.704 20.8477 77.475 20.4905 77.3278 20.0968C77.1806 19.7031 77.1186 19.2821 77.146 18.8621C77.146 17.0131 78.2929 15.9081 81.106 15.7111C81.711 15.6619 82.3188 15.6619 82.9237 15.7111V14.9781C82.9514 14.7882 82.9346 14.5944 82.8746 14.4122C82.8146 14.2301 82.7131 14.0648 82.5784 13.9296C82.4436 13.7944 82.2794 13.6931 82.0988 13.6339C81.9182 13.5746 81.7264 13.5591 81.5388 13.5886C81.2344 13.549 80.9261 13.6226 80.6714 13.7957C80.4166 13.9688 80.2327 14.2296 80.1539 14.5295C80.0673 14.7483 79.9916 14.7921 79.7969 14.7374L77.7844 14.2232C77.5896 14.2232 77.568 14.0591 77.6113 13.9059C77.8818 12.4617 79.245 11.3895 81.647 11.3895C84.049 11.3895 85.5962 12.5492 85.5962 14.8359L85.6395 14.8249ZM82.9237 18.3041V17.3413C82.3905 17.3086 81.8557 17.3086 81.3224 17.3413C80.3054 17.4726 79.7536 17.7899 79.7536 18.5777C79.7536 19.3654 80.2296 19.6717 81.0087 19.6717C81.4318 19.6868 81.8482 19.5613 82.1941 19.3143C82.54 19.0673 82.7963 18.7124 82.9237 18.3041ZM93.3972 11.7396V13.709C93.3972 13.9497 93.3106 14.0372 93.0726 14.0372H92.748C92.1749 13.9644 91.5952 14.1037 91.1159 14.4295C90.6366 14.7553 90.2901 15.2456 90.1404 15.8096V21.4879C90.1434 21.521 90.1399 21.5543 90.13 21.586C90.1202 21.6177 90.1043 21.6471 90.0832 21.6725C90.062 21.698 90.0361 21.7189 90.007 21.7342C89.9778 21.7494 89.946 21.7587 89.9132 21.7615H87.6411C87.577 21.7537 87.5177 21.7229 87.474 21.6747C87.4304 21.6266 87.4052 21.5642 87.4031 21.4989V11.8162C87.4016 11.7831 87.4066 11.7501 87.4178 11.719C87.429 11.6879 87.4461 11.6594 87.4682 11.635C87.4903 11.6106 87.517 11.5908 87.5467 11.5769C87.5763 11.5629 87.6084 11.555 87.6411 11.5536H89.805C90.0214 11.5536 90.0755 11.7068 90.0755 11.849V13.2166C90.3417 12.664 90.76 12.2007 91.2801 11.8825C91.8002 11.5642 92.4 11.4044 93.0076 11.4223C93.3755 11.4223 93.4404 11.4223 93.4404 11.7396H93.3972ZM96.9785 17.5054V17.8884C96.9521 18.1377 96.9818 18.3899 97.0654 18.626C97.149 18.862 97.2843 19.076 97.4612 19.2517C97.6381 19.4274 97.852 19.5604 98.087 19.6408C98.3219 19.7211 98.5717 19.7466 98.8178 19.7155C99.2146 19.773 99.6191 19.6971 99.969 19.4994C100.319 19.3017 100.595 18.9932 100.755 18.6214C100.917 18.337 100.993 18.3151 101.274 18.4354L102.713 19.1685C103.005 19.3216 103.027 19.4639 102.897 19.7374C102.502 20.4672 101.904 21.0637 101.177 21.4527C100.45 21.8417 99.6257 22.0061 98.807 21.9256C95.8857 21.9256 94.3601 20.175 94.3601 17.779V15.4814C94.3601 13.1619 95.7991 11.3348 98.7853 11.3348C99.3384 11.2784 99.897 11.3441 100.423 11.5273C100.948 11.7105 101.428 12.0068 101.829 12.3959C102.23 12.7849 102.543 13.2574 102.746 13.7807C102.949 14.304 103.038 14.8655 103.005 15.4267V17.0459C103.005 17.3194 102.918 17.5054 102.54 17.5054H96.9785ZM96.9785 15.3173V15.6674H100.495V15.3501C100.46 14.9026 100.26 14.4849 99.9339 14.1802C99.608 13.8755 99.1805 13.7063 98.7367 13.7063C98.2928 13.7063 97.8653 13.8755 97.5394 14.1802C97.2135 14.4849 97.0132 14.9026 96.9785 15.3501V15.3173ZM12.8557 0H0.629465C0.581156 0 0.53332 0.00961958 0.488688 0.0283139C0.444056 0.0470081 0.403502 0.0744099 0.369343 0.108952C0.335183 0.143495 0.308086 0.184505 0.289599 0.229637C0.271112 0.274769 0.261597 0.32314 0.261597 0.371991V18.3917C0.261597 21.4704 1.47106 24.423 3.62391 26.6C4.68989 27.6779 5.9554 28.533 7.34817 29.1163C8.74095 29.6997 10.2337 30 11.7412 30H12.8232C14.3335 30.0043 15.8297 29.7072 17.2262 29.1258C18.6228 28.5443 19.8921 27.69 20.9615 26.6116C22.031 25.5332 22.8795 24.2521 23.4584 22.8416C24.0373 21.431 24.3353 19.9188 24.3353 18.3917V11.6521C24.3353 8.57335 23.1259 5.62074 20.973 3.44376C18.8202 1.26678 15.9003 0.0437646 12.8557 0.0437646V0ZM20.6458 18.5448C20.6458 22.9212 17.4757 26.2035 12.5311 26.2035C6.67765 26.2035 3.94028 22.6914 3.94028 17.8774V12.1006C3.94028 7.28664 6.67765 3.77461 12.5311 3.77461C17.2701 3.77461 19.4124 6.50984 20.2671 9.24506C20.3015 9.31899 20.3195 9.39965 20.3197 9.48136C20.3199 9.56306 20.3023 9.64382 20.2683 9.71791C20.2342 9.792 20.1845 9.85763 20.1226 9.91015C20.0607 9.96267 19.9882 10.0008 19.9101 10.0219L16.7399 10.9737C16.3504 11.0941 16.1448 10.9737 16.0258 10.5799C15.848 9.80026 15.3947 9.1132 14.7512 8.64779C14.1076 8.18239 13.3181 7.9707 12.5311 8.05251C9.52322 8.05251 8.52781 9.83587 8.52781 12.2538V17.779C8.52781 20.1969 9.52322 21.9803 12.5311 21.9803C14.998 21.9803 16.2963 20.8205 16.2963 18.2932V17.5711H12.9963C12.9357 17.5749 12.875 17.565 12.8185 17.5422C12.7621 17.5194 12.7114 17.4843 12.67 17.4393C12.6286 17.3943 12.5976 17.3406 12.5792 17.282C12.5608 17.2235 12.5554 17.1615 12.5635 17.1006V14.0262C12.5573 13.9657 12.564 13.9045 12.5831 13.8468C12.6022 13.7891 12.6333 13.7362 12.6743 13.6916C12.7153 13.6471 12.7652 13.6119 12.8208 13.5885C12.8763 13.565 12.9362 13.5539 12.9963 13.5558H20.1806C20.2418 13.5473 20.3041 13.5529 20.3628 13.5721C20.4216 13.5913 20.4753 13.6237 20.52 13.6668C20.5647 13.7099 20.5992 13.7626 20.621 13.8211C20.6428 13.8795 20.6513 13.9421 20.6458 14.0044V18.5448Z" fill="#EEEEEE"/>
</svg>
