<svg width="18" height="18" viewBox="0 0 18 18" fill="none" xmlns="http://www.w3.org/2000/svg">
<path d="M8.94298 10.6544C8.71488 10.6544 8.52477 10.7342 8.35369 10.8937C8.20162 11.0533 8.12556 11.2527 8.12556 11.492C8.12556 11.7514 8.20162 11.9707 8.3727 12.1104C8.52477 12.2698 8.71488 12.3297 8.94298 12.3297C9.15211 12.3297 9.3422 12.2698 9.49425 12.1104C9.66532 11.9508 9.74136 11.7514 9.74136 11.492C9.74136 11.2527 9.66532 11.0533 9.51327 10.8937C9.3612 10.7342 9.17112 10.6544 8.94298 10.6544Z" fill="#EEEEEE"/>
<path d="M14.7788 3.27507C13.2961 2.17814 11.2621 1.5 8.99999 1.5C6.75694 1.5 4.70391 2.17814 3.2212 3.27507C1.70048 4.41188 0.75 5.98752 0.75 7.72263C0.75 9.47762 1.70048 11.0533 3.2212 12.1901C4.70391 13.287 6.75694 13.9651 8.99999 13.9651C9.39921 13.9651 9.79838 13.945 10.1976 13.9052C10.5397 13.8654 10.8819 13.8056 11.2051 13.7456L15.121 16.119C15.197 16.1588 15.3111 16.1788 15.4251 16.1588C15.6342 16.0991 15.7483 15.8598 15.6913 15.6602L14.7598 12.1901C15.5012 11.6515 16.1094 11.0134 16.5277 10.2954C17.0029 9.49769 17.25 8.64003 17.25 7.72263C17.25 5.98752 16.3186 4.41188 14.7788 3.27507ZM15.8623 9.85653C15.4631 10.5546 14.8549 11.1728 14.0945 11.6715C13.9424 11.7713 13.8854 11.9707 13.9424 12.1303L14.6838 14.9023L11.4712 12.9479C11.3762 12.8882 11.2811 12.8882 11.186 12.908C10.8439 12.9878 10.4827 13.0475 10.1026 13.0876C9.76036 13.1274 9.3802 13.1473 8.99999 13.1473C6.90899 13.1473 5.02708 12.5092 3.67744 11.5119C2.34675 10.5347 1.52937 9.19847 1.52937 7.72263C1.52937 6.26668 2.34675 4.93043 3.67744 3.95325C5.02708 2.93599 6.90899 2.31782 8.99999 2.31782C11.091 2.31782 12.973 2.93599 14.3416 3.95325C15.6533 4.93043 16.4706 6.26668 16.4706 7.72263C16.4706 8.48048 16.2616 9.19847 15.8623 9.85653Z" fill="#EEEEEE"/>
<path d="M10.4447 4.07277C10.0455 3.87333 9.58928 3.77371 9.07603 3.77371C8.50579 3.77371 8.0115 3.89329 7.59331 4.13272C7.1751 4.37203 6.85196 4.69115 6.64288 5.05016C6.41473 5.40917 6.30069 5.78809 6.30069 6.14693C6.30069 6.30651 6.37673 6.46609 6.50978 6.62568C6.66189 6.76532 6.83296 6.84501 7.02303 6.84501C7.36518 6.84501 7.59331 6.62568 7.72638 6.20689C7.85947 5.80803 8.0115 5.48887 8.20161 5.28943C8.3917 5.07011 8.67682 4.97031 9.07603 4.97031C9.41821 4.97031 9.68433 5.07012 9.8934 5.26954C10.1025 5.48887 10.2166 5.74808 10.2166 6.0473C10.2166 6.18695 10.1786 6.34652 10.1215 6.46609C10.0455 6.60574 9.95047 6.72548 9.8554 6.8251C9.76035 6.9448 9.58928 7.10439 9.36119 7.30381C9.09503 7.54308 8.88594 7.76245 8.73388 7.94194C8.58178 8.10152 8.44872 8.3209 8.35368 8.54022C8.25864 8.77969 8.22063 9.05881 8.22063 9.35803C8.22063 9.61726 8.27765 9.81668 8.4107 9.93638C8.54375 10.0559 8.69586 10.1358 8.88594 10.1358C9.24714 10.1358 9.45623 9.93637 9.53226 9.53752C9.57028 9.35803 9.58928 9.2184 9.60828 9.15861C9.6273 9.07876 9.66531 8.99903 9.70333 8.93907C9.72233 8.85939 9.77936 8.77969 9.8554 8.6998C9.93146 8.60017 10.0265 8.50038 10.1596 8.38064C10.5968 7.96189 10.9009 7.68273 11.072 7.50324C11.2431 7.32376 11.3952 7.12433 11.5092 6.86495C11.6423 6.62568 11.6993 6.34652 11.6993 6.02736C11.6993 5.6285 11.5852 5.2496 11.3762 4.89059C11.1481 4.55152 10.8439 4.27219 10.4447 4.07277Z" fill="#EEEEEE"/>
</svg>
