<svg width="14" height="14" viewBox="0 0 14 14" fill="none" xmlns="http://www.w3.org/2000/svg">
<g clip-path="url(#clip0_1628_1396)">
<path d="M8.73808 7.11793L9.53323 6.32278C9.59109 6.53923 9.625 6.76553 9.625 7.00003C9.625 8.4475 8.44747 9.62503 7 9.62503C6.7655 9.62503 6.5392 9.59112 6.32275 9.53326L7.11791 8.73811C7.98733 8.67882 8.6788 7.98736 8.73808 7.11793ZM13.9449 6.78751C13.8911 6.69071 13.1278 5.35339 11.636 4.22004L10.9993 4.85671C12.0871 5.65657 12.7764 6.58943 13.0478 7.00068C12.5292 7.79026 10.4951 10.5 7 10.5C6.47587 10.5 5.9885 10.433 5.52989 10.326L4.81097 11.0449C5.47192 11.2476 6.19839 11.375 7 11.375C11.5799 11.375 13.8505 7.3824 13.9449 7.21254C14.0184 7.08031 14.0184 6.91975 13.9449 6.78751ZM12.1218 2.49684L2.49681 12.1218C2.41139 12.2073 2.29939 12.25 2.1875 12.25C2.07561 12.25 1.96361 12.2073 1.87819 12.1218C1.70723 11.9509 1.70723 11.6741 1.87819 11.5032L3.10275 10.2787C1.12306 9.08351 0.117141 7.32421 0.055125 7.21254C-0.018375 7.08031 -0.018375 6.91964 0.055125 6.7874C0.149516 6.61765 2.42014 2.62503 7 2.62503C8.1842 2.62503 9.20992 2.89518 10.0868 3.29462L11.5032 1.87821C11.6741 1.70726 11.951 1.70726 12.1218 1.87821C12.2927 2.04917 12.2928 2.326 12.1218 2.49684ZM3.75517 9.62623L4.86281 8.51859C4.55689 8.0894 4.375 7.56604 4.375 7.00003C4.375 5.55256 5.55253 4.37503 7 4.37503C7.56602 4.37503 8.08938 4.55692 8.51856 4.86273L9.41423 3.96706C8.70658 3.68367 7.90245 3.50003 7 3.50003C3.50492 3.50003 1.47077 6.20979 0.952328 6.99937C1.28155 7.49834 2.22786 8.7614 3.75517 9.62623ZM5.49795 7.88334L7.88331 5.49798C7.62311 5.34431 7.32353 5.25003 7 5.25003C6.03509 5.25003 5.25 6.03512 5.25 7.00003C5.25 7.32356 5.34428 7.62314 5.49795 7.88334Z" fill="#EEEEEE"/>
</g>
<defs>
<clipPath id="clip0_1628_1396">
<rect width="14" height="14" fill="white"/>
</clipPath>
</defs>
</svg>
