<svg width="18" height="18" viewBox="0 0 18 18" fill="none" xmlns="http://www.w3.org/2000/svg">
<g clip-path="url(#clip0_1571_68737)">
<path d="M16.3505 14.472C16.1764 15.0078 16.1186 15.4546 16.0765 15.7807C16.0632 15.8999 16.045 16.0186 16.0218 16.1363L15.9971 16.1446L15.8625 16.1854C15.5507 16.2818 15.2276 16.3816 14.9454 16.3816C14.763 16.3816 14.3853 16.3816 13.988 15.5992C13.9151 15.4559 13.8039 15.3356 13.6667 15.2518C13.2653 15.0037 12.8721 14.7427 12.4878 14.4689C13.176 14.2232 14.2789 13.7781 16.0592 13.0278C16.3054 13.6392 16.4504 14.1646 16.3505 14.472ZM8.76572 10.5901C8.74389 10.3631 8.63359 10.1537 8.45866 10.0073C8.28373 9.8609 8.05823 9.7892 7.83086 9.80769C7.05536 9.87065 5.92251 10.449 5.97982 11.7834C6.00327 12.3252 6.31373 13.132 6.81872 14.4038L7.01542 14.9014C4.24515 12.5654 2.34288 10.5806 1.6781 9.33049C1.94905 8.67093 2.87392 6.92063 4.35978 5.73089L12.991 13.436C12.3718 13.6778 11.9576 13.8272 11.7188 13.9019C10.2368 12.7621 8.84561 11.4173 8.76572 10.5901ZM6.77356 4.60281C7.59596 4.47387 8.41039 4.29846 9.21296 4.07742V4.08002L12.6823 12.1381L5.00328 5.28278C5.53736 4.95496 6.12615 4.70615 6.77356 4.60281ZM12.0071 5.22851C12.0158 5.23719 12.5794 5.86028 13.2424 6.9901L11.4791 7.41476L9.94721 3.8564C10.9081 3.5416 11.6728 3.19293 12.2715 2.84556C12.1286 3.35865 11.9771 3.86935 11.8174 4.37746C11.7715 4.52349 11.765 4.67901 11.7983 4.82839C11.8316 4.97777 11.9036 5.11577 12.0071 5.22851ZM15.3345 11.4412C15.4751 11.7312 15.6167 12.0243 15.7478 12.31C15.138 12.5668 14.5266 12.8198 13.9137 13.069L11.7935 8.14423L13.6332 7.70047C13.846 8.11253 14.0605 8.56932 14.2615 9.07344C14.6045 9.93188 14.9927 10.7334 15.3345 11.4412ZM15.0683 8.75126C14.0145 6.11386 12.6454 4.63885 12.6454 4.63885C12.6454 4.63885 13.8729 0.749627 13.5077 0.750061C13.47 0.750061 13.4148 0.791745 13.3397 0.884232C12.539 1.86772 10.5573 3.11911 6.63678 3.74525C2.71586 4.37051 0.678982 9.2328 0.751929 9.40475C1.60081 11.4173 5.28378 14.6157 7.26292 16.2366C7.37928 16.3317 7.50911 16.3738 7.63503 16.3738C8.00932 16.3738 8.34974 16.0043 8.19951 15.5827C7.70451 14.1837 6.87473 12.3852 6.84694 11.746C6.80526 10.7625 7.90121 10.6731 7.90121 10.6731C8.02018 11.9154 9.71273 13.459 11.1556 14.5627C11.1673 14.5801 11.1743 14.6001 11.1895 14.6157C11.2416 14.6691 11.2885 14.7147 11.3792 14.7321C12.3823 15.4828 13.2129 15.9922 13.2129 15.9922C13.7149 16.9795 14.3379 17.2501 14.9454 17.2501C15.41 17.2501 15.8651 17.0916 16.2489 16.9756C17.1343 16.7073 16.7548 16.0369 17.1759 14.7408C17.5971 13.4446 16.1225 11.3882 15.0683 8.75126Z" fill="#EEEEEE"/>
</g>
<defs>
<clipPath id="clip0_1571_68737">
<rect width="18" height="18" fill="white"/>
</clipPath>
</defs>
</svg>
