<svg width="24" height="24" viewBox="0 0 24 24" fill="none" xmlns="http://www.w3.org/2000/svg">
<path d="M18.5703 19.9701C17.2371 21.3017 15.539 22.2081 13.6908 22.5749C11.8425 22.9416 9.92697 22.7522 8.18633 22.0305C6.44568 21.3089 4.95804 20.0874 3.91143 18.5205C2.86481 16.9536 2.3062 15.1116 2.3062 13.2273C2.3062 11.343 2.86481 9.50098 3.91143 7.93407C4.95804 6.36716 6.44568 5.1457 8.18633 4.42406C9.92697 3.70241 11.8425 3.51299 13.6908 3.87972C15.539 4.24646 17.2371 5.15289 18.5703 6.48445C20.3556 8.27438 21.3582 10.6992 21.3582 13.2273C21.3582 15.7553 20.3556 18.1802 18.5703 19.9701ZM19.8562 6.07225L20.7605 5.14326C20.8764 5.02742 20.9415 4.87029 20.9415 4.70646C20.9415 4.54262 20.8764 4.3855 20.7605 4.26965C20.6447 4.1538 20.4876 4.08872 20.3237 4.08872C20.1599 4.08872 20.0028 4.1538 19.8869 4.26965L18.9825 5.19864C17.1728 3.58144 14.8662 2.62886 12.4427 2.49781V1.23045H14.6083C14.7715 1.23045 14.928 1.16563 15.0433 1.05025C15.1587 0.934875 15.2235 0.77839 15.2235 0.615223C15.2235 0.452056 15.1587 0.295571 15.0433 0.180195C14.928 0.064818 14.7715 0 14.6083 0H9.0713C8.90813 0 8.75164 0.064818 8.63627 0.180195C8.52089 0.295571 8.45607 0.452056 8.45607 0.615223C8.45607 0.77839 8.52089 0.934875 8.63627 1.05025C8.75164 1.16563 8.90813 1.23045 9.0713 1.23045H11.2246V2.49781C8.79679 2.62611 6.48544 3.57886 4.67245 5.19864L3.74346 4.26965C3.62761 4.1538 3.47049 4.08872 3.30665 4.08872C3.14282 4.08872 2.9857 4.1538 2.86985 4.26965C2.754 4.3855 2.68891 4.54262 2.68891 4.70646C2.68891 4.87029 2.754 5.02742 2.86985 5.14326L3.80499 6.07225C2.42181 7.62102 1.51631 9.53692 1.19772 11.5888C0.879129 13.6408 1.16106 15.741 2.00949 17.6363C2.85793 19.5315 4.23663 21.1408 5.97928 22.27C7.72192 23.3992 9.75407 24 11.8306 24C13.9071 24 15.9392 23.3992 17.6819 22.27C19.4245 21.1408 20.8032 19.5315 21.6516 17.6363C22.5001 15.741 22.782 13.6408 22.4634 11.5888C22.1448 9.53692 21.2393 7.62102 19.8562 6.07225Z" fill="white"/>
<path d="M11.8275 8.30551C11.9906 8.30551 12.1471 8.24069 12.2625 8.12532C12.3779 8.00994 12.4427 7.85346 12.4427 7.69029V5.84462C12.4427 5.68145 12.3779 5.52497 12.2625 5.40959C12.1471 5.29421 11.9906 5.2294 11.8275 5.2294C11.6643 5.2294 11.5078 5.29421 11.3925 5.40959C11.2771 5.52497 11.2123 5.68145 11.2123 5.84462V7.69029C11.2123 7.85346 11.2771 8.00994 11.3925 8.12532C11.5078 8.24069 11.6643 8.30551 11.8275 8.30551Z" fill="white"/>
<path d="M11.8275 18.1491C11.6643 18.1491 11.5078 18.2139 11.3925 18.3293C11.2771 18.4447 11.2123 18.6011 11.2123 18.7643V20.61C11.2123 20.7731 11.2771 20.9296 11.3925 21.045C11.5078 21.1604 11.6643 21.2252 11.8275 21.2252C11.9906 21.2252 12.1471 21.1604 12.2625 21.045C12.3779 20.9296 12.4427 20.7731 12.4427 20.61V18.7643C12.4427 18.6011 12.3779 18.4447 12.2625 18.3293C12.1471 18.2139 11.9906 18.1491 11.8275 18.1491Z" fill="white"/>
<path d="M19.2102 12.6121H17.3645C17.2013 12.6121 17.0448 12.6769 16.9295 12.7923C16.8141 12.9076 16.7493 13.0641 16.7493 13.2273C16.7493 13.3905 16.8141 13.5469 16.9295 13.6623C17.0448 13.7777 17.2013 13.8425 17.3645 13.8425H19.2102C19.3733 13.8425 19.5298 13.7777 19.6452 13.6623C19.7606 13.5469 19.8254 13.3905 19.8254 13.2273C19.8254 13.0641 19.7606 12.9076 19.6452 12.7923C19.5298 12.6769 19.3733 12.6121 19.2102 12.6121Z" fill="white"/>
<path d="M6.29047 12.6121H4.4448C4.28163 12.6121 4.12515 12.6769 4.00977 12.7923C3.8944 12.9076 3.82958 13.0641 3.82958 13.2273C3.82958 13.3905 3.8944 13.5469 4.00977 13.6623C4.12515 13.7777 4.28163 13.8425 4.4448 13.8425H6.29047C6.45364 13.8425 6.61012 13.7777 6.7255 13.6623C6.84088 13.5469 6.90569 13.3905 6.90569 13.2273C6.90569 13.0641 6.84088 12.9076 6.7255 12.7923C6.61012 12.6769 6.45364 12.6121 6.29047 12.6121Z" fill="white"/>
<path d="M12.4796 13.8794C12.3043 14.0479 12.0706 14.1419 11.8275 14.1419C11.5844 14.1419 11.3507 14.0479 11.1754 13.8794C11.0462 13.7504 10.9582 13.586 10.9225 13.4069C10.8868 13.2279 10.905 13.0423 10.9748 12.8736C11.0446 12.7049 11.1629 12.5607 11.3147 12.4593C11.4665 12.3578 11.6449 12.3037 11.8275 12.3037C12.0101 12.3037 12.1885 12.3578 12.3403 12.4593C12.4921 12.5607 12.6104 12.7049 12.6802 12.8736C12.75 13.0423 12.7682 13.2279 12.7325 13.4069C12.6968 13.586 12.6088 13.7504 12.4796 13.8794ZM17.0692 8.87767C17.127 8.8191 17.1726 8.74972 17.2036 8.6735C17.2346 8.59728 17.2502 8.5157 17.2496 8.43344C17.249 8.35117 17.2323 8.26982 17.2003 8.19404C17.1683 8.11826 17.1216 8.04952 17.0631 7.99175C17.0045 7.93399 16.9351 7.88832 16.8589 7.85737C16.7827 7.82641 16.7011 7.81078 16.6188 7.81135C16.5366 7.81192 16.4552 7.82869 16.3794 7.8607C16.3036 7.89271 16.2349 7.93933 16.1771 7.9979L12.8365 11.3386C12.4301 11.1258 11.9674 11.0452 11.513 11.1081C11.0586 11.1709 10.6351 11.3741 10.3018 11.6892C9.90283 12.0964 9.68159 12.645 9.68653 13.215C9.68891 13.5701 9.77984 13.919 9.95108 14.2301L9.23127 14.9561C9.11668 15.0713 9.05237 15.2273 9.05237 15.3898C9.05237 15.5523 9.11668 15.7083 9.23127 15.8235C9.34654 15.9381 9.50247 16.0024 9.665 16.0024C9.82753 16.0024 9.98346 15.9381 10.0987 15.8235L10.8247 15.1037C11.2305 15.3245 11.6969 15.4081 12.1542 15.342C12.6115 15.2759 13.0351 15.0637 13.3618 14.737C13.6885 14.4103 13.9008 13.9867 13.9669 13.5294C14.033 13.0721 13.9494 12.6057 13.7285 12.1999L17.0692 8.87767Z" fill="white"/>
</svg>
