<svg width="19" height="18" viewBox="0 0 19 18" fill="none" xmlns="http://www.w3.org/2000/svg">
<g clip-path="url(#clip0_1571_68745)">
<path d="M0.5 0H18.5V18H0.5V0Z" fill="#012169"/>
<path d="M18.5 0V2.25L11.8203 9L18.5 15.5742V18H16.1445L9.42969 11.3906L2.89062 18H0.5V15.6094L7.03906 9.03516L0.5 2.60156V0H2.67969L9.42969 6.60938L15.9688 0H18.5Z" fill="#EEEEEE"/>
<path d="M6.96875 11.3906L7.35547 12.5859L1.97656 18H0.5V17.8945L6.96875 11.3906ZM11.3281 10.9688L13.2266 11.25L18.5 16.418V18L11.3281 10.9688ZM18.5 0L11.75 6.89062L11.6094 5.34375L16.8828 0H18.5ZM0.5 0.0351562L7.28516 6.67969L5.21094 6.39844L0.5 1.72266V0.0351562Z" fill="#C8102E"/>
<path d="M6.6875 0V18H12.3125V0H6.6875ZM0.5 6.1875V11.8125H18.5V6.1875H0.5Z" fill="#EEEEEE"/>
<path d="M0.5 7.3125V10.6875H18.5V7.3125H0.5ZM7.8125 0V18H11.1875V0H7.8125Z" fill="#C8102E"/>
</g>
<defs>
<clipPath id="clip0_1571_68745">
<rect x="0.5" width="18" height="18" rx="6" fill="white"/>
</clipPath>
</defs>
</svg>
