<svg width="19" height="18" viewBox="0 0 19 18" fill="none" xmlns="http://www.w3.org/2000/svg">
<g clip-path="url(#clip0_1571_68795)">
<path d="M9.50028 3.47558C6.45394 3.47558 3.97558 5.95394 3.97558 9.00028C3.97558 12.0472 6.45394 14.5261 9.50028 14.5261C12.5466 14.5261 15.025 12.0472 15.025 9.00028C15.025 5.95394 12.5466 3.47558 9.50028 3.47558ZM9.50028 13.3981C7.07607 13.3981 5.10364 11.4251 5.10364 9.00028C5.10364 6.57607 7.07607 4.60364 9.50028 4.60364C11.9245 4.60364 13.8969 6.57607 13.8969 9.00028C13.8969 11.4251 11.9245 13.3981 9.50028 13.3981Z" fill="#EEEEEE"/>
<path d="M9.50028 3.35656C9.81163 3.35656 10.0643 3.10444 10.0643 2.79253V0.564034C10.0643 0.252123 9.81163 0 9.50028 0C9.18893 0 8.93625 0.252123 8.93625 0.564034V2.79253C8.93625 3.10444 9.18837 3.35656 9.50028 3.35656Z" fill="#EEEEEE"/>
<path d="M9.50028 14.644C9.18893 14.644 8.93625 14.8961 8.93625 15.208V17.4365C8.93625 17.7484 9.18893 18.0006 9.50028 18.0006C9.81163 18.0006 10.0643 17.7484 10.0643 17.4365V15.208C10.0643 14.8961 9.81163 14.644 9.50028 14.644Z" fill="#EEEEEE"/>
<path d="M17.936 8.43625H15.7075C15.3961 8.43625 15.1434 8.68837 15.1434 9.00028C15.1434 9.31219 15.3961 9.56432 15.7075 9.56432H17.936C18.2473 9.56432 18.5 9.31219 18.5 9.00028C18.5 8.68837 18.2473 8.43625 17.936 8.43625Z" fill="#EEEEEE"/>
<path d="M3.85656 9.00028C3.85656 8.68837 3.60388 8.43625 3.29253 8.43625H1.06403C0.752687 8.43625 0.5 8.68837 0.5 9.00028C0.5 9.31219 0.752687 9.56432 1.06403 9.56432H3.29253C3.60388 9.56432 3.85656 9.31219 3.85656 9.00028Z" fill="#EEEEEE"/>
<path d="M4.8126 4.8913C4.92315 5.00749 5.07205 5.06671 5.22152 5.06671C5.3614 5.06671 5.50128 5.01482 5.61014 4.9116C5.83575 4.69671 5.84534 4.33967 5.63044 4.11406L4.09458 2.49923C3.88025 2.27419 3.52265 2.26572 3.29704 2.47949C3.07142 2.69439 3.06184 3.05142 3.27673 3.27704L4.8126 4.8913Z" fill="#EEEEEE"/>
<path d="M14.1874 13.1093C13.9731 12.8848 13.616 12.8758 13.3899 13.0895C13.1642 13.3044 13.1547 13.6615 13.3696 13.8871L14.9054 15.5019C15.016 15.6181 15.1649 15.6773 15.3143 15.6773C15.4542 15.6773 15.5941 15.6254 15.703 15.5222C15.9286 15.3073 15.9382 14.9503 15.7233 14.7247L14.1874 13.1093Z" fill="#EEEEEE"/>
<path d="M4.8126 13.1104L3.27674 14.7241C3.06241 14.9497 3.07087 15.3067 3.29648 15.5216C3.4059 15.6254 3.54578 15.6767 3.6851 15.6767C3.834 15.6767 3.98291 15.6181 4.09402 15.5013L5.62989 13.8876C5.84422 13.662 5.83576 13.305 5.61015 13.0901C5.38453 12.8769 5.02806 12.8859 4.8126 13.1104Z" fill="#EEEEEE"/>
<path d="M13.779 5.06615C13.9279 5.06615 14.0768 5.00749 14.188 4.89073L15.7238 3.27591C15.9387 3.05029 15.9297 2.69326 15.7035 2.47836C15.4785 2.26347 15.1214 2.27306 14.906 2.4981L13.3701 4.11293C13.1552 4.33854 13.1642 4.69558 13.3904 4.91048C13.4993 5.01539 13.6392 5.06615 13.779 5.06615Z" fill="#EEEEEE"/>
</g>
<defs>
<clipPath id="clip0_1571_68795">
<rect width="18" height="18" fill="white" transform="translate(0.5)"/>
</clipPath>
</defs>
</svg>
