<svg width="25" height="24" viewBox="0 0 25 24" fill="none" xmlns="http://www.w3.org/2000/svg">
<path d="M21.7454 3H11.1896C9.61483 3 8.33484 4.05263 8.33484 5.34526V6.35158H3.22326C1.77483 6.35158 0.600098 7.32 0.600098 8.51158V15.1726C0.600098 16.3642 1.77483 17.3326 3.22326 17.3326H4.2422L7.69905 20.5537C7.77616 20.6272 7.8788 20.668 7.98536 20.6674C8.04327 20.6684 8.10073 20.6569 8.15378 20.6337C8.22874 20.6003 8.29247 20.546 8.33729 20.4773C8.38211 20.4086 8.40611 20.3284 8.40641 20.2463V17.3326H12.7475C14.1959 17.3326 15.3706 16.3642 15.3706 15.1726V15.0758H16.0443V18.3432C16.0444 18.4258 16.0688 18.5066 16.1144 18.5755C16.1601 18.6444 16.225 18.6983 16.3012 18.7305C16.3526 18.7541 16.4088 18.7657 16.4654 18.7642C16.5723 18.7645 16.6757 18.7255 16.7559 18.6547L20.6001 15.0758H21.7454C23.3201 15.0758 24.6001 14.0232 24.6001 12.7263V5.34526C24.6001 4.05263 23.3201 3 21.7454 3ZM14.5285 15.1726C14.5285 15.8884 13.7117 16.4905 12.7475 16.4905H7.98536C7.87369 16.4905 7.76659 16.5349 7.68763 16.6139C7.60867 16.6928 7.56431 16.7999 7.56431 16.9116V19.2779L4.69273 16.6042C4.61508 16.5315 4.51279 16.4909 4.40641 16.4905H3.22326C2.2422 16.4905 1.4422 15.9011 1.4422 15.1726V8.51158C1.4422 7.78737 2.2422 7.19368 3.22326 7.19368H8.33484V12.7263C8.33484 14.0232 9.61483 15.0758 11.1896 15.0758H14.5285V15.1726ZM23.758 12.7263C23.758 13.5558 22.8527 14.2337 21.7454 14.2337H20.4317C20.326 14.2335 20.224 14.2725 20.1454 14.3432L16.8864 17.3789V14.6547C16.887 14.5993 16.8765 14.5443 16.8555 14.4929C16.8345 14.4416 16.8036 14.395 16.7643 14.3558C16.7251 14.3165 16.6785 14.2855 16.6272 14.2646C16.5758 14.2436 16.5208 14.2331 16.4654 14.2337H11.1896C10.0822 14.2337 9.17694 13.5558 9.17694 12.7263V5.34526C9.17694 4.51579 10.0822 3.84211 11.1896 3.84211H21.7454C22.8527 3.84211 23.758 4.51579 23.758 5.34526V12.7263Z" fill="white"/>
<path d="M12.2254 7.38745C11.9137 7.38787 11.6091 7.48065 11.3501 7.65407C11.0911 7.8275 10.8893 8.07379 10.7703 8.36183C10.6512 8.64988 10.6201 8.96675 10.681 9.27243C10.7419 9.57812 10.8921 9.85889 11.1125 10.0793C11.3329 10.2997 11.6137 10.4498 11.9193 10.5107C12.225 10.5716 12.5419 10.5406 12.8299 10.4215C13.118 10.3024 13.3643 10.1006 13.5377 9.84165C13.7111 9.58266 13.8039 9.27809 13.8043 8.9664C13.8042 8.54767 13.6378 8.14612 13.3417 7.85004C13.0456 7.55395 12.6441 7.38756 12.2254 7.38745ZM12.2254 9.69903C12.0801 9.69861 11.9381 9.65511 11.8175 9.57403C11.6969 9.49295 11.6031 9.37793 11.5479 9.24352C11.4926 9.10911 11.4785 8.96133 11.5073 8.81889C11.536 8.67645 11.6064 8.54573 11.7094 8.44327C11.8125 8.34081 11.9436 8.27121 12.0862 8.24327C12.2288 8.21533 12.3765 8.2303 12.5106 8.2863C12.6447 8.34229 12.7592 8.43679 12.8396 8.55785C12.9199 8.67891 12.9626 8.82108 12.9622 8.9664C12.9611 9.16109 12.883 9.34743 12.7449 9.4847C12.6068 9.62198 12.4201 9.69903 12.2254 9.69903Z" fill="white"/>
<path d="M16.4654 7.38745C16.1537 7.38787 15.8491 7.48065 15.5901 7.65407C15.3311 7.8275 15.1293 8.07379 15.0103 8.36183C14.8912 8.64988 14.8601 8.96675 14.921 9.27243C14.9819 9.57812 15.1321 9.85889 15.3525 10.0793C15.5729 10.2997 15.8536 10.4498 16.1593 10.5107C16.465 10.5716 16.7819 10.5406 17.0699 10.4215C17.358 10.3024 17.6043 10.1006 17.7777 9.84165C17.9511 9.58266 18.0439 9.27809 18.0443 8.9664C18.0444 8.75903 18.0036 8.55369 17.9242 8.3621C17.8449 8.1705 17.7286 7.99642 17.582 7.84979C17.4353 7.70316 17.2613 7.58686 17.0697 7.50753C16.8781 7.4282 16.6727 7.3874 16.4654 7.38745ZM16.4654 9.69903C16.32 9.69861 16.1781 9.65511 16.0575 9.57403C15.9369 9.49295 15.8431 9.37793 15.7879 9.24352C15.7326 9.10911 15.7185 8.96133 15.7473 8.81889C15.776 8.67645 15.8464 8.54573 15.9494 8.44327C16.0525 8.34081 16.1836 8.27121 16.3262 8.24327C16.4688 8.21533 16.6165 8.2303 16.7506 8.2863C16.8847 8.34229 16.9992 8.43679 17.0795 8.55785C17.1599 8.67891 17.2026 8.82108 17.2022 8.9664C17.2022 9.06295 17.183 9.15854 17.1459 9.24767C17.1088 9.33681 17.0545 9.41774 16.986 9.48582C16.9175 9.55389 16.8363 9.60777 16.747 9.64436C16.6576 9.68095 16.5619 9.69953 16.4654 9.69903Z" fill="white"/>
<path d="M20.7096 7.38745C20.3979 7.38787 20.0933 7.48065 19.8343 7.65407C19.5753 7.8275 19.3735 8.07379 19.2545 8.36183C19.1354 8.64988 19.1043 8.96675 19.1652 9.27243C19.2261 9.57812 19.3763 9.85889 19.5967 10.0793C19.8171 10.2997 20.0978 10.4498 20.4035 10.5107C20.7092 10.5716 21.0261 10.5406 21.3141 10.4215C21.6022 10.3024 21.8485 10.1006 22.0219 9.84165C22.1953 9.58266 22.2881 9.27809 22.2885 8.9664C22.2884 8.54767 22.122 8.14612 21.8259 7.85004C21.5298 7.55395 21.1283 7.38756 20.7096 7.38745ZM20.7096 9.69903C20.5642 9.69861 20.4223 9.65511 20.3017 9.57403C20.1811 9.49295 20.0873 9.37793 20.0321 9.24352C19.9768 9.10911 19.9627 8.96133 19.9915 8.81889C20.0202 8.67645 20.0906 8.54573 20.1936 8.44327C20.2967 8.34081 20.4278 8.27121 20.5704 8.24327C20.713 8.21533 20.8607 8.2303 20.9948 8.2863C21.1289 8.34229 21.2434 8.43679 21.3237 8.55785C21.4041 8.67891 21.4468 8.82108 21.4464 8.9664C21.4462 9.06292 21.427 9.15845 21.3899 9.24754C21.3528 9.33663 21.2984 9.41751 21.23 9.48557C21.1615 9.55362 21.0803 9.6075 20.991 9.64413C20.9017 9.68076 20.8061 9.69942 20.7096 9.69903Z" fill="white"/>
</svg>
