<svg width="24" height="24" viewBox="0 0 24 24" fill="none" xmlns="http://www.w3.org/2000/svg">
<path d="M22.4078 17.9615C23.451 16.1481 24 14.0927 24 12.0006C24 9.90852 23.451 7.85308 22.4078 6.03963C22.4021 6.02705 22.3978 6.01396 22.3909 6.00164C22.3839 5.98932 22.3749 5.97982 22.3672 5.96879C21.3187 4.17552 19.8256 2.68278 18.0321 1.63462C18.0213 1.62545 18.01 1.61688 17.9982 1.60895C17.9856 1.60245 17.9727 1.59662 17.9594 1.59149C16.1461 0.548765 14.0909 0 11.9991 0C9.9073 0 7.85211 0.548765 6.03875 1.59149C6.02566 1.59765 6.01309 1.60176 5.99974 1.6092C5.98799 1.61714 5.97668 1.62571 5.96586 1.63487C4.1731 2.68324 2.68076 4.17587 1.63276 5.96879C1.62506 5.97982 1.61608 5.98983 1.60915 6.00164C1.60222 6.01345 1.59785 6.02731 1.59221 6.03963C0.549019 7.85308 0 9.90852 0 12.0006C0 14.0927 0.549019 16.1481 1.59221 17.9615C1.59785 17.9741 1.60222 17.9872 1.60915 17.9995C1.61608 18.0119 1.62198 18.0149 1.62788 18.0237C2.67648 19.8209 4.17141 21.317 5.96791 22.3671C5.97895 22.375 5.98896 22.384 6.00076 22.3909C6.01257 22.3979 6.02053 22.3984 6.03003 22.403C7.84568 23.4493 9.90444 24 12 24C14.0956 24 16.1543 23.4493 17.97 22.403C17.9795 22.3984 17.9897 22.3963 17.9992 22.3909C18.0087 22.3856 18.0211 22.375 18.0321 22.3671C19.8286 21.317 21.3235 19.8209 22.3721 18.0237C22.378 18.0149 22.3857 18.0085 22.3909 17.9995C22.396 17.9906 22.4021 17.9741 22.4078 17.9615ZM7.85198 20.0809C9.00078 20.6692 10.2617 21.0062 11.5508 21.0696V23.0904C9.90748 23.0257 8.29945 22.5942 6.84449 21.8275L7.85198 20.0809ZM12.4492 21.0696C13.7383 21.0062 14.9992 20.6691 16.148 20.0809L17.1555 21.8275C15.7006 22.5942 14.0925 23.0257 12.4492 23.0904V21.0696ZM16.0962 19.0906C14.8508 19.8075 13.439 20.1847 12.0021 20.1847C10.5651 20.1847 9.15332 19.8075 7.90793 19.0906C6.66538 18.37 5.632 17.3381 4.9096 16.0966C4.19276 14.8512 3.81547 13.4395 3.81547 12.0026C3.81547 10.5658 4.19276 9.15404 4.9096 7.90871C5.63033 6.66615 6.66239 5.63281 7.90408 4.91052C9.14962 4.19348 10.5616 3.81608 11.9988 3.81608C13.4361 3.81608 14.8481 4.19348 16.0936 4.91052C17.3356 5.63141 18.3684 6.6633 19.0904 7.90461C19.8076 9.15015 20.185 10.5622 20.185 11.9994C20.185 13.4367 19.8076 14.8487 19.0904 16.0943C18.3694 17.3361 17.3375 18.3688 16.0962 19.0906ZM0.909681 12.4498H2.93056C2.994 13.7388 3.33105 14.9996 3.91931 16.1484L2.17385 17.1559C1.40674 15.7011 0.974799 14.0931 0.909681 12.4498ZM2.17257 6.84532L3.91931 7.85276C3.33098 9.00151 2.99393 10.2623 2.93056 11.5514H0.909681C0.974402 9.90817 1.4059 8.30021 2.17257 6.84532ZM16.148 3.91926C14.9992 3.33095 13.7383 2.99392 12.4492 2.93055V0.9108C14.0925 0.975517 15.7006 1.40699 17.1555 2.17363L16.148 3.91926ZM11.5508 2.93158C10.2617 2.99502 9.00081 3.33205 7.85198 3.92028L6.84449 2.17491C8.29945 1.40828 9.90748 0.9768 11.5508 0.912083V2.93158ZM23.0903 11.5514H21.0694C21.006 10.2623 20.669 9.00154 20.0807 7.85276L21.8274 6.84532C22.5941 8.30021 23.0256 9.90817 23.0903 11.5514ZM21.0694 12.4498H23.0903C23.0256 14.093 22.5941 15.701 21.8274 17.1559L20.0807 16.1484C20.669 14.9997 21.0061 13.7388 21.0694 12.4498ZM21.3775 6.06837L19.632 7.07504C18.9301 5.99326 18.0079 5.07161 16.9258 4.37023L17.9325 2.62486C19.3195 3.50582 20.4953 4.68153 21.3764 6.06837H21.3775ZM6.0675 2.6246L7.07422 4.36997C5.99249 5.07157 5.0708 5.9933 4.36928 7.07504L2.62382 6.06837C3.50483 4.68146 4.68059 3.50567 6.0675 2.6246ZM2.62357 17.9328L4.36902 16.9261C5.07065 18.0078 5.99242 18.9294 7.07422 19.6309L6.0675 21.3763C4.68052 20.4953 3.50468 19.3196 2.62357 17.9328ZM17.9325 21.3766L16.9258 19.6312C18.0075 18.9296 18.9292 18.0079 19.6307 16.9261L21.3762 17.9328C20.4952 19.3197 19.3194 20.4955 17.9325 21.3766Z" fill="#EEEEEE"/>
<path d="M15.7707 9.99212C16.0022 9.99204 16.2315 9.94624 16.4453 9.85735C16.6591 9.76847 16.8533 9.63825 17.0166 9.47416C17.2246 9.26593 17.377 9.00889 17.4601 8.72655C17.5431 8.44422 17.554 8.14558 17.4918 7.85794C17.4296 7.5703 17.2963 7.30283 17.1041 7.07998C16.9119 6.85713 16.6669 6.686 16.3915 6.58225C16.1161 6.4785 15.8191 6.44542 15.5276 6.48605C15.2361 6.52668 14.9595 6.63971 14.7229 6.81481C14.4864 6.98992 14.2975 7.22152 14.1736 7.48843C14.0496 7.75535 13.9946 8.04907 14.0134 8.34275L12.7241 9.63227C12.2516 9.48918 11.7473 9.48918 11.2749 9.63227L9.98554 8.343C10.0018 8.09304 9.9644 7.8425 9.87586 7.60818C9.78731 7.37386 9.64967 7.16119 9.47217 6.98444C9.26717 6.78006 9.01494 6.62937 8.73782 6.54572C8.46069 6.46206 8.16721 6.44801 7.88336 6.50482C7.59951 6.56162 7.33404 6.68753 7.11046 6.87139C6.88688 7.05526 6.71207 7.2914 6.60152 7.55893C6.49097 7.82645 6.44809 8.11711 6.47666 8.40516C6.50524 8.69321 6.60439 8.96978 6.76535 9.21037C6.9263 9.45097 7.14409 9.64817 7.39944 9.78453C7.65479 9.92088 7.93982 9.99219 8.2293 9.99212C8.26652 9.99212 8.30425 9.98879 8.34173 9.98622L9.6308 11.2755C9.48364 11.7477 9.48364 12.2535 9.6308 12.7257L8.34199 14.0144C7.98481 13.9914 7.62911 14.0778 7.32228 14.2621C7.01544 14.4463 6.77204 14.7197 6.62452 15.0458C6.47699 15.3719 6.43234 15.7352 6.49651 16.0873C6.56069 16.4394 6.73064 16.7636 6.98372 17.0166C7.2368 17.2697 7.561 17.4396 7.91312 17.5038C8.26523 17.568 8.62854 17.5233 8.95463 17.3758C9.28073 17.2283 9.55413 16.9849 9.73839 16.6781C9.92266 16.3713 10.0091 16.0156 9.98605 15.6584L11.2749 14.3697C11.7471 14.5168 12.2529 14.5168 12.7251 14.3697L14.0139 15.6584C13.9911 16.0156 14.0776 16.3712 14.2619 16.6779C14.4463 16.9846 14.7198 17.2279 15.0459 17.3753C15.372 17.5227 15.7353 17.5672 16.0874 17.5028C16.4394 17.4385 16.7635 17.2684 17.0165 17.0153C17.2694 16.7621 17.4392 16.4379 17.5032 16.0858C17.5672 15.7337 17.5223 15.3704 17.3746 15.0445C17.2269 14.7185 16.9834 14.4453 16.6765 14.2612C16.3696 14.0771 16.0139 13.991 15.6567 14.0142L14.3682 12.7257C14.5153 12.2535 14.5153 11.7477 14.3682 11.2755L15.6572 9.98622C15.6963 9.98879 15.7335 9.99212 15.7707 9.99212ZM15.1618 7.61919C15.2419 7.5391 15.337 7.47557 15.4417 7.43223C15.5463 7.38889 15.6585 7.36658 15.7717 7.36658C15.885 7.36658 15.9971 7.38889 16.1018 7.43223C16.2064 7.47557 16.3015 7.5391 16.3816 7.61919C16.4617 7.69928 16.5252 7.79435 16.5686 7.89899C16.6119 8.00363 16.6342 8.11578 16.6342 8.22904C16.6342 8.3423 16.6119 8.45445 16.5686 8.55909C16.5252 8.66373 16.4617 8.75881 16.3816 8.8389C16.2798 8.94136 16.1539 9.01665 16.0155 9.05786C15.8771 9.09907 15.7305 9.10489 15.5892 9.07478L15.5813 9.07247C15.4217 9.03669 15.2756 8.95631 15.16 8.84071C15.0444 8.7251 14.964 8.57902 14.9283 8.41949C14.9276 8.4168 14.9269 8.41414 14.9259 8.41154C14.8959 8.27027 14.9018 8.12374 14.943 7.98532C14.9842 7.8469 15.0594 7.72102 15.1618 7.61919ZM14.5247 14.5252C14.4623 14.5879 14.4047 14.6552 14.3523 14.7264L13.555 13.9292C13.6926 13.8184 13.8179 13.6932 13.9287 13.5558L14.726 14.3527C14.6547 14.4051 14.5875 14.4628 14.5247 14.5252ZM13.5553 10.072L14.3523 9.27473C14.4569 9.41772 14.583 9.54377 14.726 9.64844L13.9287 10.4457C13.8179 10.3081 13.6927 10.1828 13.5553 10.072ZM9.47525 14.5252C9.41255 14.4628 9.34528 14.4051 9.27401 14.3527L10.0713 13.5555C10.1821 13.6931 10.3073 13.8184 10.4447 13.9292L9.64774 14.7264C9.59532 14.6552 9.53767 14.5879 9.47525 14.5252ZM10.0713 10.4454L9.27401 9.64844C9.41701 9.54377 9.54307 9.41772 9.64774 9.27473L10.445 10.072C10.3074 10.1827 10.1821 10.3079 10.0713 10.4454ZM7.36607 8.22904C7.36611 8.05852 7.4167 7.89183 7.51146 7.75005C7.60621 7.60827 7.74088 7.49776 7.89843 7.43249C8.05597 7.36722 8.22934 7.35012 8.3966 7.38335C8.56387 7.41658 8.71753 7.49865 8.83816 7.61919C8.94059 7.72101 9.01586 7.84689 9.05707 7.98531C9.09828 8.12373 9.10412 8.27027 9.07405 8.41154C9.07313 8.41414 9.07236 8.4168 9.07174 8.41949C9.03594 8.57906 8.95552 8.72516 8.83986 8.84077C8.7242 8.95638 8.57806 9.03673 8.41848 9.07247L8.41078 9.07478C8.28468 9.10146 8.15421 9.09964 8.0289 9.06945C7.9036 9.03927 7.78661 8.98148 7.68649 8.90031C7.58638 8.81913 7.50565 8.71663 7.45022 8.60027C7.39478 8.48391 7.36603 8.35664 7.36607 8.22776V8.22904ZM8.83816 16.382C8.73761 16.4818 8.614 16.5554 8.47826 16.5961C8.34252 16.6368 8.19884 16.6435 8.05992 16.6155C7.921 16.5875 7.79113 16.5257 7.68178 16.4355C7.57243 16.3454 7.48698 16.2297 7.43299 16.0987C7.37899 15.9676 7.35812 15.8253 7.37221 15.6843C7.3863 15.5433 7.43492 15.408 7.51378 15.2902C7.59263 15.1725 7.69928 15.076 7.82431 15.0092C7.94933 14.9425 8.08887 14.9076 8.23059 14.9077C8.29096 14.9077 8.35118 14.914 8.41026 14.9264C8.41309 14.9264 8.41591 14.9282 8.41874 14.9287C8.57821 14.9646 8.72423 15.045 8.83979 15.1606C8.95534 15.2762 9.03569 15.4222 9.07148 15.5817C9.0721 15.5844 9.07287 15.587 9.07379 15.5896C9.10389 15.7309 9.09809 15.8774 9.05693 16.0158C9.01576 16.1542 8.94055 16.2801 8.83816 16.382ZM11.3465 13.4397C10.9974 13.2814 10.7179 13.0015 10.56 12.6523C10.4667 12.4474 10.4184 12.2248 10.4184 11.9997C10.4184 11.7745 10.4667 11.552 10.56 11.3471C10.7184 10.9981 10.9983 10.7186 11.3475 10.5607C11.5524 10.4674 11.775 10.4191 12.0001 10.4191C12.2253 10.4191 12.4478 10.4674 12.6527 10.5607C13.0018 10.719 13.2813 10.9989 13.4392 11.3481C13.5325 11.553 13.5808 11.7756 13.5808 12.0007C13.5808 12.2259 13.5325 12.4484 13.4392 12.6533C13.2659 13.035 12.948 13.3322 12.5556 13.4795C12.1631 13.6269 11.7282 13.6123 11.3465 13.439V13.4397ZM16.3816 16.382C16.2496 16.5133 16.0787 16.5985 15.8944 16.6248C15.7101 16.6512 15.5222 16.6174 15.3587 16.5284C15.1951 16.4394 15.0647 16.2999 14.9868 16.1309C14.9089 15.9618 14.8876 15.772 14.9262 15.5899C14.9262 15.5871 14.928 15.5842 14.9285 15.5814C14.9644 15.422 15.0448 15.2759 15.1604 15.1604C15.276 15.0448 15.422 14.9645 15.5815 14.9287C15.5843 14.9287 15.5869 14.9269 15.5895 14.9264C15.6486 14.914 15.7088 14.9077 15.7692 14.9077C15.9399 14.9077 16.1069 14.9583 16.2489 15.0532C16.391 15.148 16.5017 15.2828 16.5673 15.4405C16.6328 15.5982 16.6501 15.7718 16.6171 15.9394C16.584 16.1069 16.5021 16.2609 16.3816 16.382Z" fill="#EEEEEE"/>
<path d="M12 11.0809C11.8181 11.0809 11.6403 11.1349 11.489 11.2359C11.3378 11.337 11.2199 11.4806 11.1503 11.6486C11.0807 11.8167 11.0625 12.0016 11.098 12.18C11.1335 12.3584 11.2211 12.5223 11.3497 12.6509C11.4783 12.7795 11.6422 12.8671 11.8206 12.9026C11.999 12.9381 12.1839 12.9198 12.352 12.8502C12.52 12.7806 12.6636 12.6628 12.7647 12.5115C12.8658 12.3603 12.9197 12.1825 12.9197 12.0006C12.9194 11.7568 12.8224 11.523 12.65 11.3506C12.4776 11.1782 12.2438 11.0812 12 11.0809ZM11.9787 12.0006C11.9787 11.9949 11.9809 11.9895 11.9849 11.9855C11.9889 11.9815 11.9943 11.9793 12 11.9793C12.0056 11.9793 12.0111 11.9815 12.0151 11.9855C12.0191 11.9895 12.0213 11.9949 12.0213 12.0006C12.0213 12.0242 11.9787 12.0242 11.9787 12.0006Z" fill="#EEEEEE"/>
</svg>
