<svg width="99" height="30" viewBox="0 0 99 30" fill="none" xmlns="http://www.w3.org/2000/svg">
<g clip-path="url(#clip0_1578_3831)">
<path d="M12.1238 3C5.41562 3 0 8.38656 0 15.0549C0 16.2393 0.179976 17.4237 0.539926 18.5431C0.768985 18.2349 0.981682 17.9266 1.17802 17.5859C2.02881 16.3528 2.84688 15.1198 3.66495 13.8542L4.27032 12.897C4.46666 12.5887 4.66299 12.2642 4.84297 11.9397C5.23564 11.307 5.62831 10.658 5.9719 10.0252C6.15188 9.70075 6.33185 9.39248 6.52819 9.05177C6.72453 8.72728 6.88814 8.41901 7.06811 8.07829C7.24809 7.73758 7.42807 7.41309 7.57532 7.10482L8.06616 6.11512L8.11524 6.05022C8.37702 5.51481 9.03148 5.30389 9.58777 5.54726C9.98044 5.7744 10.2259 6.18002 10.2095 6.65053C10.2095 7.21839 10.095 7.8187 10.0459 8.38656C9.9968 8.95442 9.98044 9.55473 9.93136 10.155C9.88227 11.3232 9.86591 12.5238 9.86591 13.692C9.86591 14.8602 9.93136 16.0283 10.0459 17.1641C10.1113 17.7157 10.2095 18.2673 10.3077 18.819C10.3895 19.3057 10.5531 19.7924 10.7821 20.2305C10.8476 20.3603 10.9458 20.4901 11.0439 20.6037C11.1094 20.6523 11.0603 20.6199 11.1094 20.6199C11.1585 20.6199 11.1257 20.6199 11.1585 20.6199L11.2075 20.6037H11.2239L11.2893 20.5874C11.3057 20.5712 11.3548 20.5388 11.3712 20.5225C11.5511 20.3927 11.6984 20.2305 11.862 20.052C12.2219 19.6302 12.5492 19.2084 12.8437 18.7541C13.1545 18.2836 13.4491 17.7806 13.7272 17.2776C14.2998 16.2555 14.8398 15.2171 15.347 14.1625C15.5924 13.6271 15.8542 13.1079 16.0996 12.5563C16.345 12.0209 16.5904 11.4692 16.8195 10.95C17.0486 10.3984 17.6866 10.1388 18.2429 10.3497C18.6029 10.4795 18.8483 10.7878 18.9138 11.161C18.9138 11.2908 18.9301 11.4692 18.9628 11.6477L19.0283 12.1507C19.0774 12.4752 19.1101 12.8159 19.1919 13.1404C19.3064 13.8056 19.4373 14.4708 19.6173 15.1035C19.7973 15.7363 20.01 16.3853 20.2881 17.0018C20.5499 17.6183 20.8935 18.1862 21.3189 18.7216C21.4007 18.8514 21.3843 19.0299 21.2698 19.111C21.1553 19.1921 21.008 19.1921 20.9098 19.111C20.3536 18.6243 19.8627 18.0726 19.4373 17.4723C19.0119 16.872 18.652 16.2393 18.3247 15.5903C18.0957 15.1522 17.9321 14.7141 17.7194 14.2599C17.5885 14.5194 17.4739 14.7953 17.3431 15.0386C16.8031 16.1257 16.2796 17.1965 15.6578 18.2836C15.347 18.8514 15.0361 19.3868 14.6762 19.9222C14.3162 20.4739 13.9235 21.0093 13.4981 21.496C13.2527 21.7881 12.9582 22.0314 12.6801 22.2748C12.5983 22.3397 12.5001 22.4046 12.3856 22.4533L12.1892 22.5668L12.0747 22.6155H12.0583L11.9929 22.6317H11.9438L11.862 22.648C11.7966 22.6642 11.7475 22.6966 11.682 22.6966C11.5511 22.7129 11.4202 22.7453 11.2893 22.7615C10.9948 22.7778 10.684 22.7453 10.4222 22.648C10.1604 22.5506 9.91499 22.4046 9.68593 22.2261C9.35871 21.9341 9.0642 21.5934 8.86787 21.1878C8.557 20.5712 8.32794 19.906 8.19705 19.2246C8.06616 18.608 7.96799 17.9591 7.90255 17.3425C7.77165 16.1095 7.72257 14.8926 7.70621 13.6595C7.70621 13.0917 7.70621 12.4914 7.70621 11.9235C7.47715 12.3454 7.26445 12.7672 7.03539 13.1566C6.85542 13.4811 6.67544 13.8218 6.4791 14.1463L5.92282 15.136C5.17019 16.4664 4.38485 17.7644 3.56678 19.0623C3.05958 19.906 2.51965 20.7335 1.97973 21.5609C5.64467 27.1259 13.1709 28.6673 18.7829 25.033C24.3948 21.3987 25.9491 13.9354 22.2842 8.37034C20.0263 5.0443 16.2305 3 12.1238 3Z" fill="#EEEEEE"/>
<path d="M34.7679 11.3719H34.5716L31.9865 19.403H31.3484L28.7633 11.3881H28.567V19.3868H27.5035V10.5607H29.4014L31.692 17.5859L33.9335 10.5607H35.8478V19.4193H34.7679V11.3719Z" fill="#EEEEEE"/>
<path d="M37.4021 11.6964V10.5444H38.5638V11.6964H37.4021ZM37.4185 19.3706V12.5563H38.5474V19.3706H37.4185Z" fill="#EEEEEE"/>
<path d="M45.4355 17.1478C45.4355 18.4782 44.9283 19.4842 42.7032 19.4842C39.9054 19.4842 39.7418 17.8942 39.7418 15.9472C39.7418 14.0003 39.9054 12.4103 42.7032 12.4103C44.9283 12.4103 45.4355 13.4324 45.4355 14.7466H44.3721C44.3721 13.6595 43.9957 13.1404 42.7032 13.1404C40.9689 13.1404 40.8707 14.0652 40.8707 15.9148C40.8707 17.7644 40.9525 18.6892 42.7032 18.6892C43.9957 18.6892 44.3721 18.1538 44.3721 17.0829L45.4355 17.1478Z" fill="#EEEEEE"/>
<path d="M47.6443 13.2864C48.1842 12.9619 48.8714 12.5076 49.5095 12.4914C49.6404 12.4752 49.7713 12.4752 49.9022 12.4752C50.0822 12.4752 50.2294 12.4752 50.4421 12.4914L50.3603 13.3026C50.1803 13.2864 50.0331 13.2864 49.8695 13.2864C49.7386 13.2864 49.6077 13.2864 49.4441 13.3026C48.8387 13.3188 48.2006 13.7731 47.7261 14.0327V19.403H46.5972V12.5563H47.4807L47.6443 13.2864Z" fill="#EEEEEE"/>
<path d="M56.8067 15.9797C56.8067 17.9266 56.6431 19.5166 53.7962 19.5166C50.9493 19.5166 50.7857 17.9266 50.7857 15.9797C50.7857 14.0327 50.9493 12.4427 53.7962 12.4427C56.6431 12.4427 56.8067 14.0327 56.8067 15.9797ZM51.931 15.9797C51.931 17.8293 52.0128 18.7541 53.7962 18.7541C55.5796 18.7541 55.6614 17.8455 55.6614 15.9797C55.6614 14.1138 55.5796 13.2053 53.7962 13.2053C52.0128 13.2053 51.931 14.0976 51.931 15.9797Z" fill="#EEEEEE"/>
<path d="M58.8846 20.9606C59.31 21.0093 59.8663 21.0255 60.488 21.0255C62.2223 21.0255 62.4514 20.555 62.4677 18.7541C61.9605 19.0461 61.2406 19.3706 60.5044 19.3868C57.9847 19.4355 57.8375 18.0889 57.8375 15.9634C57.8375 13.838 57.9684 12.4265 60.3898 12.4265C61.2079 12.4265 61.9769 12.7996 62.5659 13.1728L62.6804 12.5563H63.5639V18.608C63.5639 21.058 63.0077 21.8043 60.7334 21.8043C60.0626 21.8043 59.3918 21.7394 58.7537 21.642L58.8846 20.9606ZM62.4677 13.8056C61.9769 13.4973 61.3552 13.189 60.7498 13.189C59.0809 13.189 58.9664 14.1138 58.9664 15.9634C58.9664 17.7806 59.0809 18.6405 60.7498 18.6405C61.3552 18.6405 61.9933 18.316 62.4677 18.0726V13.8056Z" fill="#EEEEEE"/>
<path d="M69.7486 19.3706L69.634 18.7541C69.0777 19.111 68.3415 19.5004 67.5398 19.5004C65.0201 19.5491 64.8729 18.1375 64.8729 15.9634C64.8729 13.8056 65.0038 12.4265 67.507 12.4265C68.3251 12.4265 69.0614 12.7996 69.6177 13.1404L69.7322 12.5401H70.6157V19.3544H69.7486V19.3706ZM69.5195 13.7731C69.045 13.5135 68.4069 13.2053 67.8015 13.2053C66.1327 13.2053 66.0182 14.1301 66.0182 15.9797C66.0182 17.8293 66.1327 18.7541 67.8015 18.7541C68.4069 18.7541 69.0286 18.4296 69.5195 18.1375V13.7731Z" fill="#EEEEEE"/>
<path d="M73.0208 13.1566C73.528 12.8483 74.2152 12.4752 74.9515 12.4427C76.1131 12.394 76.7021 12.7023 76.9966 13.189C77.5366 12.8645 78.2401 12.4589 79.0255 12.4427C81.3815 12.3778 81.5451 13.5622 81.5451 15.2171V19.3706H80.4162V15.282C80.4162 13.8705 80.3344 13.189 78.7964 13.189C78.2401 13.189 77.6674 13.5135 77.193 13.8056C77.3075 14.2923 77.3566 14.7953 77.3239 15.3145V19.403H76.3422V15.2982C76.3422 13.8867 76.2604 13.2053 74.7224 13.2053C74.1825 13.2053 73.6098 13.5297 73.1681 13.7731V19.3868H72.0391V12.5725H72.9227L73.0208 13.1566Z" fill="#EEEEEE"/>
<path d="M82.9358 11.6964V10.5444H84.0975V11.6964H82.9358ZM82.9685 19.3706V12.5563H84.0975V19.3706H82.9685Z" fill="#EEEEEE"/>
<path d="M86.5026 13.1566C87.0589 12.8483 87.7952 12.4752 88.5969 12.4427C91.1165 12.3778 91.2637 13.5622 91.2637 15.2171V19.3706H90.1348V15.282C90.1348 13.8705 90.0203 13.189 88.3514 13.189C87.7461 13.189 87.108 13.5135 86.6335 13.7893V19.4031H85.5045V12.5563H86.3881L86.5026 13.1566Z" fill="#EEEEEE"/>
<path d="M93.4725 20.9606C93.8979 21.0093 94.4542 21.0255 95.076 21.0255C96.8103 21.0255 97.0393 20.555 97.0557 18.7541C96.5485 19.0461 95.8286 19.3706 95.0923 19.3868C92.5727 19.4355 92.4254 18.0889 92.4254 15.9634C92.4254 13.838 92.5563 12.4265 94.9778 12.4265C95.7959 12.4265 96.5648 12.7996 97.1539 13.1728L97.2684 12.5563H98.1519V18.608C98.1519 21.058 97.5956 21.8043 95.3214 21.8043C94.6506 21.8043 93.9797 21.7394 93.3417 21.642L93.4725 20.9606ZM97.0393 13.8056C96.5485 13.4973 95.9268 13.189 95.3214 13.189C93.6525 13.189 93.538 14.1138 93.538 15.9634C93.538 17.7806 93.6525 18.6405 95.3214 18.6405C95.9268 18.6405 96.5648 18.316 97.0393 18.0726V13.8056Z" fill="#EEEEEE"/>
</g>
<defs>
<clipPath id="clip0_1578_3831">
<rect width="98.1519" height="30" fill="white"/>
</clipPath>
</defs>
</svg>
