<svg width="24" height="24" viewBox="0 0 24 24" fill="none" xmlns="http://www.w3.org/2000/svg">
<path fill-rule="evenodd" clip-rule="evenodd" d="M4 5C4 4.44772 4.44772 4 5 4H9.4C9.95228 4 10.4 4.44772 10.4 5V9.4C10.4 9.95228 9.95228 10.4 9.4 10.4H5C4.44772 10.4 4 9.95228 4 9.4V5ZM4 14.6C4 14.0477 4.44772 13.6 5 13.6H9.4C9.95228 13.6 10.4 14.0477 10.4 14.6V19C10.4 19.5523 9.95228 20 9.4 20H5C4.44772 20 4 19.5523 4 19V14.6ZM13.6 5C13.6 4.44772 14.0477 4 14.6 4H19C19.5523 4 20 4.44772 20 5V9.4C20 9.95228 19.5523 10.4 19 10.4H14.6C14.0477 10.4 13.6 9.95228 13.6 9.4V5ZM13.6 14.6C13.6 14.0477 14.0477 13.6 14.6 13.6H19C19.5523 13.6 20 14.0477 20 14.6V19C20 19.5523 19.5523 20 19 20H14.6C14.0477 20 13.6 19.5523 13.6 19V14.6Z" fill="#EEEEEE"/>
</svg>
