<svg width="24" height="24" viewBox="0 0 24 24" fill="none" xmlns="http://www.w3.org/2000/svg">
<g clip-path="url(#clip0_1578_85967)">
<path d="M18.4969 10.8469C17.9391 7.7719 15.2484 5.43753 12.0094 5.43753C8.82188 5.43753 6.16406 7.6969 5.55 10.7016M5.68594 13.9125C6.49688 16.6406 9.01875 18.6282 12.0094 18.6282C15 18.6282 17.5219 16.6406 18.3328 13.9125M7.30781 13.636V10.0313L9.10781 13.636V10.0313M10.4578 10.0313V13.636M10.4578 10.0313V11.8313M10.4578 10.0313H12.2625M10.4578 13.636H12.2625M10.4578 13.636V11.8313M10.4578 11.8313H12.2625M13.1625 10.0313L14.0625 13.636L14.9625 11.8313L15.8625 13.636L16.7625 10.0313M19.0266 15.5578C18.9328 15.2391 19.0687 14.8969 19.3547 14.7282L22.8562 12.6891C23.3437 12.4032 23.3344 11.7 22.8375 11.4282L19.7953 9.76878L19.4531 9.58128C19.1625 9.4219 19.0172 9.0844 19.1016 8.76096L20.1328 4.8469C20.2781 4.30315 19.7672 3.81096 19.2281 3.97034L15.9047 4.95003L15.5297 5.05784C15.2109 5.15159 14.8688 5.01565 14.7 4.72971L14.1891 3.85315L12.6563 1.20471C12.3797 0.726589 11.6859 0.721902 11.4047 1.20471L9.36094 4.71096C9.19219 4.9969 8.85 5.13284 8.53125 5.03909L8.15625 4.93128L4.83281 3.95159C4.29375 3.79221 3.78281 4.2844 3.92813 4.83284L4.95938 8.7469C5.04375 9.07034 4.89844 9.40784 4.60781 9.56721L4.26563 9.75471L1.22344 11.4141C0.726565 11.686 0.71719 12.3891 1.20469 12.675L4.70625 14.7141C4.99219 14.8828 5.12813 15.225 5.03438 15.5438L4.92656 15.9188L3.94688 19.2422C3.7875 19.7813 4.27969 20.2922 4.82344 20.1469L8.74219 19.1156C9.06563 19.0313 9.40313 19.1766 9.5625 19.4672L11.4 22.8235C11.6766 23.325 12.3938 23.325 12.6703 22.8235L14.3203 19.8282L14.5078 19.486C14.6672 19.1953 15.0047 19.05 15.3281 19.1344L19.2422 20.1657C19.7859 20.311 20.2781 19.8 20.1188 19.261L19.1391 15.9375L19.0266 15.5578Z" stroke="#EEEEEE" stroke-width="0.75" stroke-miterlimit="10" stroke-linecap="round" stroke-linejoin="round"/>
</g>
<defs>
<clipPath id="clip0_1578_85967">
<rect width="24" height="24" fill="white"/>
</clipPath>
</defs>
</svg>
