<svg width="19" height="18" viewBox="0 0 19 18" fill="none" xmlns="http://www.w3.org/2000/svg">
<g clip-path="url(#clip0_1571_68805)">
<path d="M14.7257 11.1503C14.3572 10.7666 13.9127 10.5615 13.4416 10.5615C12.9743 10.5615 12.526 10.7628 12.1423 11.1465L10.9418 12.3432C10.8431 12.29 10.7443 12.2407 10.6493 12.1913C10.5125 12.1229 10.3834 12.0583 10.2732 11.9899C9.1487 11.2757 8.12676 10.3449 7.14662 9.14065C6.67174 8.54041 6.35262 8.03514 6.12088 7.52227C6.4324 7.23734 6.72112 6.94102 7.00225 6.65609C7.10862 6.54972 7.215 6.43955 7.32137 6.33318C8.11916 5.53538 8.11916 4.50205 7.32137 3.70425L6.28424 2.66712C6.16647 2.54935 6.0449 2.42778 5.93093 2.30621C5.70299 2.07067 5.46365 1.82754 5.21671 1.59959C4.84821 1.23489 4.40752 1.04114 3.94404 1.04114C3.48056 1.04114 3.03227 1.23489 2.65237 1.59959C2.64857 1.60339 2.64857 1.60339 2.64477 1.60719L1.3531 2.91026C0.86683 3.39653 0.589501 3.98918 0.528717 4.6768C0.43754 5.78612 0.764256 6.81945 1.01499 7.49568C1.63043 9.15585 2.5498 10.6945 3.92124 12.3432C5.58522 14.3301 7.5873 15.8991 9.87431 17.0046C10.7481 17.4187 11.9144 17.9088 13.2175 17.9924C13.2972 17.9962 13.3808 18 13.4568 18C14.3344 18 15.0714 17.6847 15.6488 17.0578C15.6526 17.0502 15.6602 17.0464 15.664 17.0388C15.8616 16.7995 16.0895 16.5829 16.3289 16.3512C16.4922 16.1954 16.6594 16.0321 16.8227 15.8611C17.1988 15.4698 17.3964 15.0139 17.3964 14.5467C17.3964 14.0756 17.195 13.6235 16.8113 13.2436L14.7257 11.1503ZM16.0857 15.1507C16.0819 15.1507 16.0819 15.1545 16.0857 15.1507C15.9376 15.3103 15.7856 15.4546 15.6222 15.6142C15.3753 15.8497 15.1246 16.0967 14.889 16.374C14.5053 16.7843 14.0532 16.978 13.4606 16.978C13.4036 16.978 13.3428 16.978 13.2858 16.9742C12.1575 16.9021 11.109 16.4614 10.3226 16.0853C8.17235 15.0443 6.28424 13.5665 4.71524 11.6936C3.41977 10.1322 2.5536 8.68857 1.97994 7.13857C1.62663 6.19261 1.49747 5.4556 1.55445 4.76038C1.59244 4.3159 1.7634 3.94739 2.07872 3.63207L3.37419 2.3366C3.56034 2.16185 3.75789 2.06687 3.95164 2.06687C4.19098 2.06687 4.38473 2.21124 4.50629 2.33281C4.51009 2.3366 4.51389 2.3404 4.51769 2.3442C4.74943 2.56075 4.96977 2.78489 5.20152 3.02423C5.31928 3.1458 5.44085 3.26737 5.56242 3.39273L6.59956 4.42987C7.00225 4.83256 7.00225 5.20487 6.59956 5.60756C6.48938 5.71774 6.38301 5.82791 6.27284 5.93428C5.95372 6.26099 5.6498 6.56492 5.31928 6.86124C5.31169 6.86884 5.30409 6.87264 5.30029 6.88024C4.97357 7.20695 5.03436 7.52607 5.10274 7.74261C5.10654 7.75401 5.11034 7.76541 5.11414 7.77681C5.38387 8.43024 5.76377 9.04568 6.34122 9.77889L6.34502 9.78269C7.39355 11.0744 8.49907 12.0811 9.71855 12.8523C9.87431 12.9511 10.0339 13.0309 10.1858 13.1068C10.3226 13.1752 10.4518 13.2398 10.5619 13.3082C10.5771 13.3158 10.5923 13.3272 10.6075 13.3348C10.7367 13.3994 10.8583 13.4298 10.9836 13.4298C11.2989 13.4298 11.4965 13.2322 11.5611 13.1676L12.8603 11.8684C12.9895 11.7392 13.1947 11.5834 13.434 11.5834C13.6695 11.5834 13.8633 11.7316 13.9811 11.8608C13.9849 11.8646 13.9849 11.8646 13.9887 11.8684L16.0819 13.9616C16.4732 14.3491 16.4732 14.748 16.0857 15.1507Z" fill="#EEEEEE"/>
<path d="M10.2276 4.28169C11.223 4.44885 12.1271 4.91992 12.8489 5.64174C13.5708 6.36355 14.038 7.26772 14.209 8.26306C14.2508 8.5138 14.4673 8.68856 14.7143 8.68856C14.7447 8.68856 14.7713 8.68476 14.8016 8.68096C15.0828 8.63537 15.2689 8.36944 15.2233 8.08831C15.0182 6.88402 14.4483 5.7861 13.5784 4.91613C12.7084 4.04615 11.6105 3.4763 10.4062 3.27115C10.125 3.22556 9.86292 3.41171 9.81353 3.68904C9.76414 3.96637 9.94649 4.2361 10.2276 4.28169Z" fill="#EEEEEE"/>
<path d="M18.4791 7.94018C18.141 5.95709 17.2064 4.15255 15.7704 2.71652C14.3344 1.28049 12.5298 0.345932 10.5467 0.00781895C10.2694 -0.0415683 10.0073 0.148383 9.95789 0.425712C9.9123 0.706839 10.0985 0.968972 10.3796 1.01836C12.1499 1.31848 13.7645 2.15807 15.0486 3.43834C16.3326 4.72241 17.1684 6.33699 17.4686 8.10734C17.5103 8.35807 17.7269 8.53283 17.9738 8.53283C18.0042 8.53283 18.0308 8.52903 18.0612 8.52523C18.3385 8.48344 18.5285 8.21751 18.4791 7.94018Z" fill="#EEEEEE"/>
</g>
<defs>
<clipPath id="clip0_1571_68805">
<rect width="18" height="18" fill="white" transform="translate(0.5)"/>
</clipPath>
</defs>
</svg>
