<svg width="97" height="20" viewBox="0 0 97 20" fill="none" xmlns="http://www.w3.org/2000/svg">
<path d="M10.1994 5.0494L11.6461 5.06403V12.9455H19.7188L19.7043 14.3725H10.2138L10.1994 5.0494ZM30.2003 5.08599H31.9146L35.3217 9.2865L38.6997 5.08599H40.4286L36.0233 10.8891V14.3725H34.5983V10.8891L30.2003 5.08599ZM40.5226 6.41786C40.5226 5.64215 41.34 5.08599 42.1429 5.06403C44.0526 5.06403 48.4868 5.02744 48.7906 5.11526C49.3765 5.27625 49.8757 5.78119 50.0059 6.3959C50.0782 6.6813 50.042 7.28138 50.042 7.28138H48.5591C48.5591 7.28138 48.5591 6.81303 48.5591 6.61544C48.5591 6.49104 48.3638 6.46908 48.2409 6.46908C46.2444 6.46908 44.2624 6.46908 42.2659 6.46908C42.0851 6.45445 41.9259 6.61544 41.9476 6.79107C41.9476 7.42042 41.9476 8.03513 41.9476 8.66447C41.9332 8.84742 42.0923 9.00842 42.2659 9.00842C44.3347 9.00842 46.418 9.00842 48.4868 9.00842C49.3259 9.05964 50.0348 9.79876 50.0348 10.6476C50.0348 11.3355 50.0348 12.0161 50.0348 12.704C50.0203 13.3553 49.5718 13.97 48.9859 14.2042C48.6459 14.3505 44.1177 14.3505 42.1936 14.3505C41.5353 14.3359 40.8915 13.9334 40.6239 13.3041C40.4647 12.9235 40.4792 12.0966 40.4792 12.0966H41.9259C41.9259 12.0966 41.8391 12.7259 42.1068 12.9235C44.1756 12.9235 46.2227 12.9235 48.2915 12.9235C48.4362 12.9235 48.5953 12.7991 48.5736 12.6528C48.5736 12.1112 48.5736 11.5697 48.5736 11.0282C48.5736 10.8306 48.6098 10.6111 48.4868 10.4501C48.3638 10.4135 48.2336 10.3988 48.0962 10.3988C46.1142 10.3988 44.1539 10.3988 42.1791 10.3988C41.3979 10.3988 40.5226 9.93048 40.5226 9.04501C40.5371 8.67179 40.5226 6.41786 40.5226 6.41786ZM61.3192 5.06403H63.0697L69.3991 12.4552V5.06403L70.8603 5.07867L70.8242 14.3652H69.1677L62.7659 6.95939L62.7515 14.3725H61.3264V5.06403H61.3192ZM9.51941 6.68862C9.50495 5.80315 8.68032 5.08599 7.84122 5.08599H0V14.3578H1.41055L1.44672 11.0062L7.77612 11.0209C8.68755 11.0209 9.52665 10.3183 9.52665 9.39627V6.68862H9.51941ZM8.07269 9.35968C8.07269 9.52067 7.92802 9.63044 7.76888 9.63044C5.72178 9.63044 1.63479 9.63044 1.63479 9.63044C1.52629 9.59385 1.41779 9.50604 1.43949 9.35968V6.72521C1.43949 6.54226 1.63479 6.46908 1.79393 6.46908C1.79393 6.46908 5.78688 6.46908 7.78335 6.46908C7.96419 6.46908 8.06546 6.61544 8.06546 6.77644C8.07269 7.66191 8.07269 8.51079 8.07269 9.35968ZM30.0339 6.74716C30.0339 5.84705 29.4118 5.07135 28.8042 5.07135H22.1348C21.2812 5.08599 20.5145 5.83242 20.5145 6.69594C20.5145 9.25723 20.5145 14.3578 20.5145 14.3578H21.9395V11.1087H28.5872V13.648L28.6233 14.3505H30.0194L30.0339 12.5284C30.0339 12.5357 30.0194 8.67179 30.0339 6.74716ZM28.5944 9.70362H21.9467C21.9467 9.70362 21.9467 7.77168 21.9467 6.79839C21.9106 6.61544 22.0697 6.45445 22.2505 6.4764C24.2615 6.4764 26.2797 6.4764 28.2906 6.4764C28.4714 6.46176 28.5944 6.63739 28.5727 6.79839C28.5944 7.77168 28.5944 9.70362 28.5944 9.70362ZM60.415 12.3527C60.415 11.1599 60.4005 7.21551 60.4005 6.41786C60.4005 5.67874 59.547 5.08599 58.7802 5.06403C56.8922 5.06403 52.9499 5.06403 52.5593 5.06403C51.8287 5.06403 50.8811 5.96414 50.8811 6.59349C50.8811 7.47896 50.8811 11.5551 50.8811 12.704C50.8956 13.5895 51.6985 14.3286 52.5593 14.3432C54.6064 14.3432 56.6608 14.3432 58.7079 14.3432C59.4023 14.3432 60.0823 13.8749 60.3137 13.2089C60.4295 12.9455 60.415 12.6454 60.415 12.3527ZM58.8091 12.9455C56.8271 12.9455 54.563 12.9455 52.5159 12.9455C52.4074 12.9455 52.3206 12.7991 52.3351 12.6747C52.3351 10.6696 52.3351 6.65203 52.3351 6.65203C52.3712 6.54226 52.3351 6.3959 52.7112 6.3959H58.65C58.8308 6.3959 58.9683 6.46908 58.9683 6.65203C58.9683 8.58397 58.9683 10.7428 58.9683 12.6747C58.99 12.8064 58.9321 12.9455 58.8091 12.9455Z" fill="#EEEEEE"/>
<path d="M75.2656 0L82.5064 3.33699L75.2656 6.68862V0ZM82.4992 3.33699L89.7183 6.67398L82.4992 10.011V3.33699ZM75.2656 6.68862L82.5064 10.0037L75.2656 13.3187V6.68862ZM96.8 9.97439L89.7255 13.348V6.67398L96.8 9.97439ZM89.7183 13.348L82.4992 16.685V10.011L89.7183 13.348ZM82.4992 16.685L75.2583 20V13.326L82.4992 16.685Z" fill="#EEEEEE"/>
</svg>
