<svg width="24" height="24" viewBox="0 0 24 24" fill="none" xmlns="http://www.w3.org/2000/svg">
<path d="M12 12.5C12.6922 12.5 13.3689 12.2947 13.9445 11.9101C14.5201 11.5256 14.9687 10.9789 15.2336 10.3394C15.4985 9.69985 15.5678 8.99612 15.4328 8.31719C15.2977 7.63825 14.9644 7.01461 14.4749 6.52513C13.9854 6.03565 13.3618 5.7023 12.6828 5.56726C12.0039 5.43221 11.3002 5.50152 10.6606 5.76643C10.0211 6.03133 9.47444 6.47994 9.08986 7.05551C8.70527 7.63108 8.5 8.30777 8.5 9C8.5 9.92826 8.86875 10.8185 9.52513 11.4749C10.1815 12.1313 11.0717 12.5 12 12.5ZM12 6.5C12.4945 6.5 12.9778 6.64663 13.3889 6.92133C13.8001 7.19603 14.1205 7.58648 14.3097 8.04329C14.4989 8.50011 14.5484 9.00278 14.452 9.48773C14.3555 9.97268 14.1174 10.4181 13.7678 10.7678C13.4181 11.1174 12.9727 11.3555 12.4877 11.452C12.0028 11.5484 11.5001 11.4989 11.0433 11.3097C10.5865 11.1205 10.196 10.8001 9.92133 10.3889C9.64662 9.97781 9.5 9.49446 9.5 9C9.5 8.33696 9.76339 7.70108 10.2322 7.23224C10.7011 6.7634 11.337 6.5 12 6.5ZM5.642 6.855C5.29056 7.09155 5.00264 7.41084 4.80357 7.78478C4.6045 8.15873 4.50038 8.57587 4.50038 8.9995C4.50038 9.42314 4.6045 9.84028 4.80357 10.2142C5.00264 10.5882 5.29056 10.9075 5.642 11.144C5.77796 11.2464 5.88176 11.3855 5.94113 11.545C6.0005 11.7045 6.01294 11.8777 5.977 12.044C5.90827 12.4504 5.93776 12.8674 6.06302 13.2601C6.18828 13.6528 6.40567 14.0099 6.69704 14.3014C6.98842 14.593 7.34532 14.8106 7.73794 14.9362C8.13057 15.0617 8.54753 15.0915 8.954 15.023C9.12025 14.9854 9.29383 14.997 9.45362 15.0563C9.61341 15.1156 9.75252 15.2201 9.854 15.357C10.0908 15.7082 10.4103 15.9959 10.7843 16.1949C11.1583 16.3938 11.5754 16.4978 11.999 16.4978C12.4226 16.4978 12.8397 16.3938 13.2137 16.1949C13.5878 15.9959 13.9072 15.7082 14.144 15.357C14.2452 15.2198 14.3843 15.1151 14.5442 15.0557C14.704 14.9964 14.8778 14.985 15.044 15.023C15.4504 15.0914 15.8672 15.0617 16.2598 14.9362C16.6523 14.8107 17.0091 14.5932 17.3005 14.3017C17.5918 14.0103 17.8092 13.6534 17.9346 13.2608C18.0599 12.8682 18.0896 12.4514 18.021 12.045C17.985 11.8788 17.9972 11.7057 18.0564 11.5462C18.1156 11.3867 18.2192 11.2475 18.355 11.145C18.7067 10.9085 18.9948 10.5892 19.194 10.2151C19.3932 9.84107 19.4974 9.42379 19.4974 9C19.4974 8.57622 19.3932 8.15893 19.194 7.78489C18.9948 7.41084 18.7067 7.09151 18.355 6.855C18.2191 6.7526 18.1155 6.61341 18.0563 6.4539C17.9971 6.29439 17.9848 6.12125 18.021 5.955C18.0897 5.54857 18.0602 5.1316 17.935 4.73889C17.8097 4.34618 17.5923 3.98913 17.301 3.69756C17.0096 3.40599 16.6527 3.18836 16.2601 3.06284C15.8674 2.93731 15.4505 2.90754 15.044 2.976C14.8778 3.01345 14.7042 3.00182 14.5444 2.94253C14.3847 2.88324 14.2456 2.77884 14.144 2.642C13.9072 2.29077 13.5878 2.00306 13.2137 1.80415C12.8397 1.60524 12.4226 1.50122 11.999 1.50122C11.5754 1.50122 11.1583 1.60524 10.7843 1.80415C10.4103 2.00306 10.0908 2.29077 9.854 2.642C9.7526 2.77904 9.61351 2.88359 9.45369 2.9429C9.29387 3.00221 9.12025 3.01371 8.954 2.976C8.54765 2.90745 8.13078 2.93708 7.73821 3.06242C7.34563 3.18776 6.98873 3.40518 6.69728 3.69653C6.40584 3.98788 6.1883 4.34471 6.06283 4.73724C5.93735 5.12977 5.90758 5.54662 5.976 5.953C6.01246 6.11955 6.00037 6.29306 5.94117 6.45294C5.88197 6.61283 5.77814 6.75237 5.642 6.855ZM6.201 7.684C6.49841 7.47519 6.72868 7.18441 6.8638 6.84707C6.99891 6.50973 7.03303 6.14039 6.962 5.784C6.92057 5.53493 6.93925 5.27956 7.01648 5.03917C7.09371 4.79877 7.22725 4.5803 7.40599 4.40196C7.58472 4.22361 7.80348 4.09055 8.04405 4.01385C8.28461 3.93715 8.54002 3.91903 8.789 3.961C9.14445 4.02782 9.51158 3.9918 9.84726 3.85717C10.1829 3.72255 10.4732 3.49491 10.684 3.201C10.8371 2.99652 11.0358 2.83053 11.2642 2.7162C11.4926 2.60186 11.7446 2.54234 12 2.54234C12.2555 2.54234 12.5074 2.60186 12.7358 2.7162C12.9643 2.83053 13.1629 2.99652 13.316 3.201C13.5268 3.49491 13.8171 3.72255 14.1527 3.85717C14.4884 3.9918 14.8556 4.02782 15.211 3.961C15.4606 3.91876 15.7166 3.9369 15.9577 4.01391C16.1988 4.09092 16.418 4.22455 16.5969 4.40362C16.7758 4.5827 16.9092 4.80201 16.9859 5.04321C17.0627 5.28441 17.0805 5.54049 17.038 5.79C16.9683 6.14558 17.0032 6.51373 17.1385 6.84988C17.2737 7.18603 17.5035 7.47576 17.8 7.684C18.0157 7.829 18.1925 8.02482 18.3147 8.25423C18.4369 8.48363 18.5009 8.73957 18.5009 8.9995C18.5009 9.25944 18.4369 9.51538 18.3147 9.74478C18.1925 9.97419 18.0157 10.17 17.8 10.315C17.5035 10.5234 17.2738 10.8134 17.1387 11.1497C17.0036 11.4861 16.969 11.8544 17.039 12.21C17.082 12.4599 17.0645 12.7165 16.9882 12.9583C16.9118 13.2001 16.7787 13.4201 16.6 13.6C16.4219 13.7803 16.2028 13.9147 15.9615 13.9919C15.7201 14.069 15.4636 14.0866 15.214 14.043C14.8586 13.9762 14.4914 14.0122 14.1557 14.1468C13.8201 14.2815 13.5298 14.5091 13.319 14.803C13.1659 15.0075 12.9673 15.1735 12.7388 15.2878C12.5104 15.4021 12.2585 15.4617 12.003 15.4617C11.7476 15.4617 11.4956 15.4021 11.2672 15.2878C11.0388 15.1735 10.8401 15.0075 10.687 14.803C10.5123 14.5547 10.2794 14.3529 10.0086 14.2153C9.73791 14.0778 9.43761 14.0087 9.134 14.014C9.0194 14.0143 8.90502 14.024 8.792 14.043C8.54145 14.0875 8.28383 14.0704 8.04134 13.9933C7.79885 13.9161 7.57875 13.7811 7.4 13.6C7.22161 13.4207 7.08855 13.2014 7.01185 12.9603C6.93515 12.7193 6.91704 12.4634 6.959 12.214C7.0298 11.8575 6.99546 11.4882 6.86018 11.1508C6.7249 10.8135 6.49449 10.5228 6.197 10.314C5.98127 10.169 5.8045 9.97319 5.68228 9.74378C5.56006 9.51438 5.49613 9.25844 5.49613 8.9985C5.49613 8.73857 5.56006 8.48263 5.68228 8.25323C5.8045 8.02382 5.98127 7.828 6.197 7.683L6.201 7.684ZM2.562 21.757L5.967 15.629C6.22707 15.8408 6.51262 16.0192 6.817 16.16L4.222 20.83L6.776 19.553C6.8699 19.5058 6.97628 19.4894 7.08004 19.5061C7.1838 19.5228 7.27966 19.5717 7.354 19.646L8.863 21.156L10.58 17.722C10.9021 17.8415 11.2382 17.9194 11.58 17.954L9.445 22.224C9.40954 22.2947 9.35781 22.356 9.29405 22.4029C9.23028 22.4497 9.15632 22.4808 9.07822 22.4934C9.00013 22.5061 8.92014 22.5001 8.84483 22.4759C8.76952 22.4516 8.70103 22.4099 8.645 22.354L6.9 20.608L3.224 22.447C3.12844 22.4953 3.01992 22.5116 2.91439 22.4936C2.80887 22.4755 2.71191 22.4241 2.6378 22.3469C2.56368 22.2696 2.51632 22.1706 2.50267 22.0644C2.48903 21.9582 2.50983 21.8505 2.562 21.757ZM17.224 19.557L19.778 20.834L17.183 16.164C17.4872 16.0228 17.7727 15.8444 18.033 15.633L21.433 21.761C21.4852 21.8545 21.506 21.9622 21.4923 22.0684C21.4787 22.1746 21.4313 22.2736 21.3572 22.3509C21.2831 22.4281 21.1861 22.4795 21.0806 22.4976C20.9751 22.5156 20.8666 22.4993 20.771 22.451L17.1 20.608L15.355 22.354C15.299 22.4099 15.2305 22.4516 15.1552 22.4759C15.0799 22.5001 14.9999 22.5061 14.9218 22.4934C14.8437 22.4808 14.7697 22.4497 14.706 22.4029C14.6422 22.356 14.5905 22.2947 14.555 22.224L12.42 17.954C12.7618 17.9194 13.0979 17.8415 13.42 17.722L15.137 21.156L16.646 19.646C16.7203 19.5717 16.8162 19.5228 16.92 19.5061C17.0237 19.4894 17.1301 19.5058 17.224 19.553V19.557Z" fill="#EEEEEE"/>
</svg>
