<svg width="18" height="18" viewBox="0 0 18 18" fill="none" xmlns="http://www.w3.org/2000/svg">
<path d="M12.4144 4.82625C12.5247 4.77002 12.6309 4.70611 12.7322 4.635C13.5534 4.05844 13.8066 2.99813 13.2947 2.2725C12.7828 1.54688 11.7028 1.42875 10.8816 2.01094C10.0603 2.59313 9.63844 3.6225 9.18 4.82344L12.4144 4.82625ZM2.44687 8.56688H15.5559V15.2325C15.5559 15.5309 15.4374 15.817 15.2264 16.028C15.0155 16.239 14.7293 16.3575 14.4309 16.3575H3.57187C3.27351 16.3575 2.98736 16.239 2.77638 16.028C2.5654 15.817 2.44687 15.5309 2.44687 15.2325V8.56688Z" stroke="#EEEEEE" stroke-width="1.25" stroke-linecap="round" stroke-linejoin="round"/>
<path d="M10.6453 8.56688H7.35469V16.3575H10.6453V8.56688Z" stroke="#EEEEEE" stroke-width="1.25" stroke-linecap="round" stroke-linejoin="round"/>
<path d="M5.58563 4.82625C5.4759 4.77063 5.37059 4.7067 5.27062 4.635C4.44937 4.05844 4.19344 2.99813 4.70812 2.2725C5.22281 1.54688 6.3 1.42875 7.12406 2.01094C7.94813 2.59313 8.36437 3.6225 8.82562 4.82344L5.58563 4.82625Z" stroke="#EEEEEE" stroke-width="1.25" stroke-linecap="round" stroke-linejoin="round"/>
<path d="M15.3281 4.82625H2.67188C2.20588 4.82625 1.82812 5.20401 1.82812 5.67V7.72313C1.82812 8.18912 2.20588 8.56688 2.67188 8.56688H15.3281C15.7941 8.56688 16.1719 8.18912 16.1719 7.72313V5.67C16.1719 5.20401 15.7941 4.82625 15.3281 4.82625Z" stroke="#EEEEEE" stroke-width="1.25" stroke-linecap="round" stroke-linejoin="round"/>
<path d="M10.9462 4.82625H7.05656V8.56688H10.9462V4.82625Z" stroke="#EEEEEE" stroke-width="1.25" stroke-linecap="round" stroke-linejoin="round"/>
</svg>
