<svg width="122" height="30" viewBox="0 0 122 30" fill="none" xmlns="http://www.w3.org/2000/svg">
<path d="M14.7954 6.93098e-06C11.8862 -0.00281624 9.04143 0.856886 6.62109 2.47036C4.20075 4.08383 2.31356 6.37857 1.19828 9.06428C0.0829916 11.75 -0.210283 14.706 0.355555 17.5583C0.921394 20.4107 2.32092 23.0312 4.37708 25.0884C6.43325 27.1455 9.05366 28.5469 11.9068 29.1153C14.76 29.6836 17.7177 29.3933 20.4058 28.2812C23.0939 27.1691 25.3915 25.285 27.0081 22.8674C28.6247 20.4498 29.4876 17.6073 29.4876 14.6994C29.4876 10.8033 27.9402 7.06665 25.1852 4.3104C22.4303 1.55414 18.6934 0.0037895 14.7954 6.93098e-06ZM11.7685 20.7076H9.05564V11.5312L5.77168 13.3579V11.0745L9.58393 8.69119H11.7685V20.7076ZM23.091 18.2386C23.1278 18.6599 23.0389 19.0826 22.8356 19.4534C22.6324 19.8242 22.3238 20.1265 21.9488 20.3222C20.8538 20.7668 19.6734 20.9618 18.4935 20.8931C17.3089 20.963 16.1236 20.768 15.0239 20.3222C14.6489 20.1265 14.3403 19.8242 14.137 19.4534C13.9337 19.0826 13.8449 18.6599 13.8816 18.2386V16.1979C13.8872 15.9763 13.9442 15.7591 14.0483 15.5634C14.1524 15.3677 14.3007 15.1989 14.4813 15.0704C14.8949 14.7273 15.3844 14.4876 15.9091 14.3711V14.2998C15.4916 14.2553 15.1002 14.0748 14.7954 13.786C14.6427 13.662 14.5198 13.5053 14.4357 13.3275C14.3517 13.1496 14.3087 12.9552 14.31 12.7585V11.0317C14.2854 10.6654 14.3567 10.299 14.5169 9.96864C14.6772 9.6383 14.9208 9.35541 15.2238 9.14787C16.2366 8.6304 17.3745 8.40787 18.5078 8.50566C19.6364 8.40748 20.7699 8.6301 21.7774 9.14787C22.0804 9.35541 22.324 9.6383 22.4843 9.96864C22.6445 10.299 22.7159 10.6654 22.6912 11.0317V12.7585C22.6925 12.9552 22.6495 13.1496 22.5655 13.3275C22.4815 13.5053 22.3585 13.662 22.2058 13.786C21.9048 14.072 21.5189 14.2523 21.1064 14.2998V14.3711C21.6319 14.4855 22.1218 14.7254 22.5342 15.0704C22.7149 15.1989 22.8631 15.3677 22.9672 15.5634C23.0713 15.7591 23.1284 15.9763 23.1339 16.1979L23.091 18.2386ZM18.5078 15.3844C18.0189 15.3413 17.5271 15.4248 17.0799 15.627C16.9618 15.7221 16.8689 15.8447 16.8091 15.984C16.7494 16.1233 16.7247 16.2751 16.7373 16.4262V18.0674C16.7137 18.2302 16.7286 18.3963 16.7806 18.5524C16.8327 18.7085 16.9205 18.8503 17.0371 18.9665C17.4891 19.1508 17.9787 19.2242 18.4649 19.1805C18.9512 19.2253 19.441 19.1519 19.8927 18.9665C20.0093 18.8503 20.0972 18.7085 20.1492 18.5524C20.2013 18.3963 20.2161 18.2302 20.1926 18.0674V16.4262C20.2081 16.2762 20.1862 16.1248 20.1289 15.9853C20.0716 15.8459 19.9806 15.7228 19.8642 15.627C19.4418 15.4259 18.9745 15.3374 18.5078 15.3701V15.3844ZM18.5078 13.6576C18.9074 13.6976 19.3099 13.6182 19.6643 13.4292C19.7673 13.3364 19.8479 13.2213 19.8999 13.0928C19.9518 12.9642 19.9738 12.8255 19.9641 12.6871V11.26C19.976 11.1194 19.9551 10.9779 19.9031 10.8466C19.8511 10.7154 19.7693 10.598 19.6643 10.5036C19.3117 10.3089 18.9089 10.2244 18.5078 10.261C18.1021 10.225 17.6949 10.3094 17.337 10.5036C17.2319 10.598 17.1501 10.7154 17.0981 10.8466C17.0461 10.9779 17.0252 11.1194 17.0371 11.26V12.6871C17.0274 12.8255 17.0494 12.9642 17.1014 13.0928C17.1533 13.2213 17.2339 13.3364 17.337 13.4292C17.6939 13.6101 18.0954 13.6844 18.4935 13.6433L18.5078 13.6576ZM37.8689 2.15496H41.4527C42.1604 2.14173 42.8678 2.19429 43.5658 2.31195C43.9947 2.37867 44.3877 2.5902 44.6795 2.91134C44.9449 3.26295 45.0719 3.69967 45.0365 4.13866V5.9083C45.053 6.19099 44.9927 6.47289 44.862 6.72413C44.7313 6.97537 44.535 7.18659 44.294 7.33542C43.7243 7.68587 43.0635 7.85968 42.395 7.83491L45.6647 12.3732H43.7657L40.8387 7.86346H39.4109V12.2162H37.8689V2.15496ZM41.3956 6.99291C41.9532 7.02963 42.5115 6.93173 43.0233 6.70748C43.1914 6.60496 43.3266 6.4563 43.4127 6.2792C43.4987 6.10209 43.5321 5.904 43.5087 5.7085V4.28138C43.5087 3.525 42.8519 3.13968 41.5383 3.13968H39.3966V6.97864L41.3956 6.99291ZM47.4209 10.1754V7.17844C47.3857 6.80797 47.44 6.43447 47.5791 6.0893C47.7183 5.74412 47.9382 5.43735 48.2205 5.19474C48.9888 4.71899 49.8901 4.50377 50.7906 4.58107C51.637 4.51113 52.4833 4.71636 53.2036 5.16619C53.4777 5.41959 53.6888 5.73345 53.8202 6.08279C53.9516 6.43213 53.9996 6.8073 53.9603 7.17844V8.84817H48.8202V10.0041C48.8027 10.2248 48.8452 10.4461 48.9432 10.6445C49.0412 10.843 49.1911 11.0113 49.377 11.1316C49.902 11.3971 50.4892 11.5155 51.0761 11.4741C51.9233 11.4234 52.7617 11.2749 53.5748 11.0317V12.1448C52.6692 12.3423 51.7459 12.4475 50.8191 12.4588C48.5632 12.4303 47.3924 11.6453 47.3924 10.104L47.4209 10.1754ZM52.5182 7.86346V6.66467C52.5364 6.48324 52.5079 6.30017 52.4354 6.13283C52.363 5.96549 52.2489 5.81943 52.1041 5.7085C51.6583 5.50145 51.1665 5.41297 50.6763 5.45162C50.1864 5.41735 49.6957 5.50564 49.2485 5.7085C49.0975 5.81521 48.9771 5.95968 48.8994 6.12748C48.8217 6.29527 48.7895 6.48051 48.8059 6.66467V7.86346H52.5182ZM55.8022 12.2305V11.1601C56.6697 11.3223 57.5476 11.4225 58.4294 11.4598C58.9135 11.4812 59.3975 11.4135 59.8572 11.26C59.9954 11.1983 60.111 11.095 60.1877 10.9645C60.2645 10.8341 60.2987 10.683 60.2855 10.5322V9.76153C60.3003 9.62607 60.2774 9.48916 60.2195 9.36581C60.1616 9.24246 60.0708 9.13743 59.9571 9.06224C59.6275 8.90751 59.264 8.83878 58.9005 8.86244H58.0296C57.3925 8.90632 56.7591 8.73548 56.2305 8.37722C56.0182 8.20853 55.851 7.98989 55.7439 7.74086C55.6368 7.49183 55.593 7.22015 55.6166 6.9501V6.25081C55.6166 5.05202 56.7445 4.45263 59.0005 4.45263L61.3135 4.58107V5.6086C60.531 5.46789 59.7383 5.39152 58.9434 5.38026C58.4233 5.33865 57.9007 5.41676 57.4156 5.6086C57.2852 5.67773 57.1779 5.78346 57.1069 5.91278C57.0358 6.0421 57.0042 6.18937 57.0158 6.33643V6.97864C57.0158 7.49241 57.4727 7.74928 58.4436 7.74928H59.286C60.8852 7.74928 61.6848 8.34868 61.6848 9.54746V10.2039C61.714 10.5299 61.6536 10.8577 61.5102 11.152C61.3668 11.4462 61.1458 11.6957 60.8709 11.8737C60.0963 12.2563 59.2345 12.4286 58.3722 12.3732C57.5133 12.3833 56.6547 12.3356 55.8022 12.2305ZM63.6694 4.6667H65.0972V5.48016C65.2115 4.83796 66.0681 4.50972 67.6816 4.50972C68.4594 4.44958 69.2335 4.66701 69.8661 5.12338C70.1028 5.3035 70.2934 5.53705 70.4225 5.80493C70.5515 6.07282 70.6153 6.36743 70.6086 6.66467V9.79007C70.6146 10.1891 70.5469 10.5859 70.4087 10.9603C70.3063 11.2611 70.1295 11.5311 69.8947 11.7452C69.6768 11.9492 69.412 12.0963 69.1237 12.1734C68.8031 12.2741 68.4729 12.341 68.1385 12.3732C67.782 12.3985 67.4241 12.3985 67.0676 12.3732C66.6427 12.3773 66.2194 12.3196 65.8111 12.2019C65.6656 12.1784 65.5267 12.1242 65.4036 12.043C65.2806 11.9618 65.1761 11.8555 65.0972 11.731V15.47H63.6694V4.6667ZM68.3384 11.3456C68.4655 11.3225 68.5861 11.2723 68.692 11.1984C68.798 11.1246 68.8867 11.0287 68.9523 10.9175C69.1026 10.6221 69.1715 10.2921 69.1522 9.96133V7.10708C69.1712 6.74414 69.1026 6.38195 68.9523 6.05101C68.8876 5.9362 68.7996 5.83623 68.6938 5.75757C68.5881 5.67891 68.467 5.62329 68.3384 5.59433C67.9205 5.50774 67.4942 5.46943 67.0676 5.48016C66.6552 5.46897 66.243 5.50729 65.8397 5.59433C65.7148 5.62354 65.5978 5.6795 65.4968 5.75835C65.3957 5.8372 65.313 5.93706 65.2543 6.05101C65.1197 6.38603 65.0612 6.74673 65.083 7.10708V9.96133C65.0639 10.2891 65.1226 10.6167 65.2543 10.9175C65.3219 11.027 65.4113 11.1215 65.5169 11.1951C65.6225 11.2688 65.7421 11.32 65.8682 11.3456C66.2696 11.4452 66.6829 11.4884 67.0962 11.4741C67.5142 11.4883 67.9321 11.4451 68.3384 11.3456ZM74.4779 12.3589C74.1275 12.3002 73.7865 12.1946 73.4642 12.0449C73.1274 11.8944 72.858 11.6251 72.7075 11.2886C72.5355 10.8332 72.4578 10.3477 72.479 9.86143V7.23552C72.4718 6.81531 72.5296 6.3965 72.6504 5.99392C72.7401 5.68362 72.896 5.39639 73.1072 5.15192C73.3057 4.95495 73.5516 4.81242 73.8212 4.73806C74.1427 4.64137 74.4725 4.57448 74.8063 4.53826H75.9771C76.5197 4.53826 76.9338 4.53826 77.2051 4.53826C77.5091 4.5703 77.81 4.62759 78.1046 4.70951C78.3857 4.77593 78.6428 4.91923 78.847 5.12338C79.0585 5.35682 79.2147 5.63485 79.3039 5.93684C79.4246 6.35408 79.4824 6.78698 79.4753 7.22125V9.86143C79.5384 10.5664 79.3231 11.2681 78.8756 11.8166C78.6707 12.0064 78.4197 12.1393 78.1474 12.2019C77.8316 12.2993 77.506 12.3616 77.1765 12.3874H75.9771C75.4773 12.4083 74.9766 12.3988 74.4779 12.3589ZM76.9338 11.4741C77.1383 11.4471 77.3365 11.3843 77.5192 11.2886C77.6109 11.2511 77.6938 11.1949 77.7627 11.1237C77.8315 11.0524 77.8847 10.9676 77.919 10.8747C78.0036 10.6171 78.0423 10.3465 78.0332 10.0755V6.99291C78.0555 6.64181 77.9969 6.29026 77.8619 5.96538C77.8001 5.85674 77.716 5.76243 77.615 5.68863C77.5141 5.61484 77.3988 5.56324 77.2765 5.53724C76.4154 5.40405 75.5389 5.40405 74.6778 5.53724C74.5555 5.56324 74.4402 5.61484 74.3392 5.68863C74.2383 5.76243 74.1542 5.85674 74.0924 5.96538C73.9574 6.29026 73.8988 6.64181 73.9211 6.99291V10.0755C73.912 10.3465 73.9507 10.6171 74.0353 10.8747C74.0696 10.9676 74.1228 11.0524 74.1916 11.1237C74.2605 11.1949 74.3434 11.2511 74.4351 11.2886C74.6186 11.3825 74.8164 11.4452 75.0205 11.4741H75.9771H76.9338ZM81.6741 4.6667H83.1019V5.59433C83.259 4.88077 84.0871 4.50972 85.6006 4.50972C86.3264 4.44311 87.0529 4.62968 87.6566 5.03775C87.8658 5.25665 88.0261 5.51737 88.127 5.80273C88.2279 6.08809 88.2671 6.39159 88.242 6.69322V12.2733H86.8142V6.77885C86.8324 6.61761 86.8324 6.45485 86.8142 6.29362C86.776 6.1551 86.7131 6.02458 86.6286 5.9083C86.4302 5.74894 86.2009 5.63243 85.9551 5.56611C85.7094 5.49979 85.4525 5.4851 85.2008 5.52297C84.7693 5.50585 84.3375 5.54422 83.9158 5.63714C83.6649 5.68089 83.4402 5.81872 83.2875 6.02247C83.1567 6.25251 83.0924 6.5144 83.1019 6.77885V12.2733H81.6741V4.6667ZM90.398 12.2305V11.1601C91.2703 11.3226 92.153 11.4228 93.0395 11.4598C93.5237 11.4832 94.0081 11.4154 94.4673 11.26C94.6082 11.2005 94.7268 11.0982 94.8062 10.9676C94.8857 10.8369 94.922 10.6846 94.9099 10.5322V9.76153C94.9216 9.6264 94.8974 9.49057 94.8397 9.36779C94.7821 9.245 94.693 9.13961 94.5815 9.06224C94.2593 8.91596 93.9071 8.84752 93.5535 8.86244H92.6825C92.0454 8.90632 91.412 8.73548 90.8835 8.37722C90.6712 8.20853 90.504 7.98989 90.3969 7.74086C90.2897 7.49183 90.246 7.22015 90.2695 6.9501V6.25081C90.2695 5.05202 91.3975 4.45263 93.6534 4.45263L95.9665 4.58107V5.6086C95.1684 5.484 94.3612 5.42671 93.5535 5.43735C93.0335 5.39574 92.5108 5.47385 92.0257 5.66569C91.8953 5.73481 91.788 5.84055 91.717 5.96987C91.646 6.09919 91.6143 6.24645 91.626 6.39352V7.03572C91.626 7.54949 92.0829 7.80637 93.0538 7.80637H93.9247C95.5382 7.80637 96.3377 8.40577 96.3377 9.60455V10.261C96.3688 10.5888 96.3077 10.9187 96.1614 11.2137C96.0151 11.5087 95.7894 11.757 95.5096 11.9308C94.7394 12.3116 93.8828 12.4838 93.0252 12.4303C92.1459 12.424 91.2681 12.3572 90.398 12.2305ZM98.2653 1.92662H99.6931V3.35375H98.2653V1.92662ZM98.2653 4.6667H99.6931V12.2733H98.2653V4.6667ZM104.162 12.3446C103.811 12.2809 103.47 12.1705 103.148 12.0164C102.463 11.6881 102.135 10.946 102.135 9.79007V1.22733H103.562V4.39555C103.562 4.6667 103.562 4.96639 103.562 5.3089C103.562 5.06629 103.834 4.8665 104.219 4.69524C104.776 4.51137 105.361 4.42919 105.947 4.45263C108.032 4.45263 109.088 5.18046 109.088 6.60759V9.73299C109.094 10.132 109.026 10.5288 108.888 10.9032C108.786 11.204 108.609 11.474 108.374 11.6881C108.156 11.8921 107.891 12.0392 107.603 12.1163C107.283 12.217 106.952 12.2839 106.618 12.3161C106.261 12.341 105.904 12.341 105.547 12.3161C105.087 12.3629 104.624 12.3725 104.162 12.3446ZM106.804 11.3885C106.93 11.3596 107.05 11.3055 107.155 11.2295C107.261 11.1535 107.35 11.0571 107.418 10.946C107.569 10.6511 107.638 10.3208 107.617 9.98987V7.00718C107.637 6.67639 107.568 6.3464 107.418 6.05101C107.352 5.93977 107.263 5.84395 107.157 5.77007C107.051 5.69619 106.931 5.64599 106.804 5.62287C106.385 5.54228 105.959 5.50878 105.533 5.52297C105.135 5.51369 104.737 5.55202 104.348 5.63714C104.092 5.70472 103.872 5.86829 103.734 6.09382C103.592 6.37645 103.528 6.69167 103.548 7.00718V9.98987C103.527 10.3177 103.586 10.6458 103.72 10.946C103.859 11.1672 104.079 11.3257 104.333 11.3885C104.732 11.4749 105.139 11.5132 105.547 11.5026C105.969 11.5135 106.391 11.4752 106.804 11.3885ZM111.216 1.28442H112.643V12.2733H111.216V1.28442ZM114.799 10.104V7.10708C114.764 6.73662 114.818 6.36311 114.958 6.01794C115.097 5.67277 115.317 5.366 115.599 5.12338C116.367 4.64763 117.269 4.43241 118.169 4.50972C119.02 4.44175 119.87 4.64672 120.596 5.09484C120.865 5.35158 121.072 5.66633 121.2 6.01507C121.329 6.3638 121.376 6.73731 121.339 7.10708V8.77682H116.227V9.93279C116.21 10.1534 116.252 10.3747 116.35 10.5732C116.448 10.7717 116.598 10.9399 116.784 11.0602C117.309 11.3244 117.896 11.4427 118.483 11.4027C119.347 11.3797 120.204 11.2552 121.039 11.0317V12.1448C120.138 12.3423 119.22 12.4475 118.297 12.4588C115.97 12.4303 114.799 11.6453 114.799 10.104ZM119.925 7.86346V6.66467C119.943 6.48324 119.915 6.30017 119.842 6.13283C119.77 5.96549 119.656 5.81943 119.511 5.7085C119.065 5.50145 118.573 5.41297 118.083 5.45162C117.593 5.41735 117.103 5.50564 116.655 5.7085C116.504 5.81521 116.384 5.95968 116.306 6.12748C116.229 6.29527 116.196 6.48051 116.213 6.66467V7.86346H119.925ZM40.9529 26.6301C40.5571 26.5858 40.1656 26.5095 39.7821 26.4018C39.37 26.299 38.9754 26.1355 38.6113 25.9166C38.3039 25.7189 38.0491 25.4496 37.8689 25.1317C37.6621 24.766 37.5539 24.3529 37.5548 23.9329V19.1092C37.5413 18.5735 37.7016 18.0479 38.0117 17.6107C38.3255 17.1833 38.7646 16.8641 39.2681 16.6974C39.7346 16.5362 40.2117 16.4074 40.6959 16.312C41.1968 16.2357 41.7028 16.1975 42.2094 16.1979C43.3894 16.192 44.5681 16.2731 45.7361 16.4405V17.625C45.1717 17.4996 44.5992 17.4137 44.0227 17.3681C43.4354 17.2925 42.8443 17.2496 42.2523 17.2397C40.0963 17.2397 39.0254 17.8676 39.0254 19.0949V23.9043C39.0195 24.2208 39.1257 24.5291 39.3252 24.7749C39.5455 25.0388 39.8384 25.2324 40.1676 25.3315C40.4942 25.457 40.8345 25.5432 41.1814 25.5883C41.557 25.6124 41.9338 25.6124 42.3094 25.5883C43.065 25.5782 43.817 25.4825 44.551 25.3029V21.8207H42.1523V20.7076H45.9503V26.1877C44.7204 26.4859 43.4606 26.6439 42.1951 26.6587C41.7809 26.6723 41.3662 26.6628 40.9529 26.6301ZM48.8773 26.4874C48.6965 26.4303 48.5289 26.3378 48.3843 26.2153C48.2397 26.0928 48.1209 25.9427 48.0349 25.7739C47.8491 25.3217 47.7615 24.8353 47.7779 24.3467C47.752 23.8867 47.8351 23.4271 48.0206 23.0052C48.1968 22.6778 48.494 22.432 48.8487 22.3202C49.3921 22.1688 49.9555 22.1014 50.5193 22.1204H52.8038V20.9074C52.8183 20.6803 52.7582 20.4548 52.6324 20.2652C52.4898 20.0954 52.2933 19.9795 52.0756 19.9369C51.7083 19.8699 51.3351 19.8412 50.9619 19.8513C50.0878 19.8551 49.2149 19.917 48.349 20.0368V18.995C49.3913 18.9094 50.3194 18.8523 51.2046 18.8523C51.8627 18.8295 52.5209 18.8967 53.1607 19.0521C53.3441 19.0987 53.5154 19.1839 53.6632 19.302C53.8109 19.4202 53.9317 19.5685 54.0174 19.7371C54.1939 20.1916 54.2764 20.677 54.2601 21.1643V26.5445H52.8323V25.8167C52.7181 26.4018 51.9471 26.7015 50.5336 26.7015C49.9735 26.7206 49.4141 26.6483 48.8773 26.4874ZM50.7906 25.7739C51.2264 25.7784 51.6616 25.7402 52.0899 25.6597C52.561 25.5598 52.8038 25.3457 52.8038 25.0032V22.9339H50.6192C50.2877 22.917 49.9555 22.9507 49.634 23.0338C49.5444 23.064 49.463 23.1145 49.3961 23.1813C49.3293 23.2482 49.2788 23.3295 49.2485 23.4191C49.1725 23.7174 49.1389 24.0248 49.1486 24.3325C49.1415 24.6268 49.18 24.9205 49.2628 25.203C49.2945 25.299 49.3467 25.387 49.4157 25.4609C49.4847 25.5348 49.5689 25.5929 49.6626 25.6312C49.9286 25.743 50.2169 25.7919 50.505 25.7739H50.7906ZM56.6589 18.9379H58.0867V19.8656C58.2295 19.152 59.0861 18.781 60.6425 18.781C61.9132 18.781 62.7128 19.1235 63.0269 19.8228C63.091 19.6338 63.2018 19.464 63.3491 19.3293C63.4964 19.1946 63.6753 19.0992 63.8693 19.0521C64.4352 18.8633 65.029 18.7716 65.6255 18.781C66.3332 18.717 67.0408 18.9039 67.6245 19.309C67.8336 19.5279 67.9939 19.7886 68.0948 20.074C68.1957 20.3593 68.2349 20.6628 68.2099 20.9645V26.5445H66.782V21.0644C66.8012 20.9032 66.8012 20.7403 66.782 20.5791C66.7501 20.4383 66.6866 20.3066 66.5964 20.1938C66.3989 20.0329 66.1696 19.9154 65.9236 19.849C65.6776 19.7826 65.4203 19.7688 65.1686 19.8085C64.7521 19.7935 64.3352 19.827 63.9264 19.9084C63.8126 19.9322 63.7046 19.9785 63.609 20.0447C63.5134 20.1109 63.4319 20.1956 63.3696 20.2937C63.2576 20.5344 63.2084 20.7995 63.2268 21.0644V26.5445H61.799V21.0644C61.8254 20.9037 61.8254 20.7398 61.799 20.5791C61.767 20.4383 61.7036 20.3066 61.6134 20.1938C61.4135 19.9369 60.9423 19.8085 60.1856 19.8085C59.7501 19.7947 59.3145 19.8282 58.8863 19.9084C58.6454 19.9589 58.4289 20.0898 58.2723 20.2794C58.1412 20.5193 58.0817 20.7917 58.101 21.0644V26.5445H56.6731L56.6589 18.9379ZM72.6789 26.6159C72.3273 26.5542 71.9861 26.4438 71.6652 26.2876C71.0274 25.9641 70.7085 25.222 70.7085 24.0613V15.4986H72.1363V18.6668C72.1363 18.9379 72.1363 19.2376 72.1363 19.5801C72.1363 19.3375 72.4076 19.1377 72.7931 18.9665C73.3498 18.7826 73.935 18.7004 74.5208 18.7239C76.6197 18.7239 77.662 19.4517 77.662 20.8788V24.0042C77.6752 24.4038 77.6072 24.8019 77.4621 25.1745C77.3591 25.4715 77.188 25.7404 76.9623 25.9594C76.7391 26.1635 76.4696 26.3104 76.177 26.3875C75.861 26.4868 75.5357 26.5537 75.2061 26.5873C74.8496 26.6118 74.4918 26.6118 74.1353 26.5873C73.6516 26.6391 73.1643 26.6486 72.6789 26.6159ZM75.3061 25.6597C75.4348 25.631 75.5566 25.5772 75.6644 25.5013C75.7723 25.4253 75.864 25.3288 75.9343 25.2173C76.0803 24.9208 76.1444 24.5907 76.1199 24.2611V21.2784C76.143 20.9489 76.079 20.6192 75.9343 20.3222C75.8651 20.2112 75.7735 20.1158 75.6653 20.042C75.5571 19.9683 75.4348 19.9179 75.3061 19.8941C74.8924 19.8136 74.4709 19.7801 74.0496 19.7942C73.6467 19.7851 73.2442 19.8235 72.8502 19.9084C72.5944 19.976 72.3745 20.1395 72.2363 20.3651C72.1011 20.6499 72.0374 20.9634 72.0507 21.2784V24.2611C72.0262 24.5907 72.0903 24.9208 72.2363 25.2173C72.3009 25.3279 72.3874 25.4242 72.4905 25.5003C72.5936 25.5763 72.7112 25.6306 72.836 25.6597C73.6523 25.8118 74.4897 25.8118 75.3061 25.6597ZM79.7323 15.5557H81.1601V26.5445H79.7323V15.5557ZM83.6017 16.1979H85.0295V17.625H83.5588L83.6017 16.1979ZM83.6017 18.9379H85.0295V26.5445H83.5588L83.6017 18.9379ZM87.4568 18.9379H88.8846V19.8656C89.0416 19.152 89.8698 18.781 91.3832 18.781C92.1089 18.7155 92.835 18.902 93.4393 19.309C93.6484 19.5279 93.8087 19.7886 93.9096 20.074C94.0105 20.3593 94.0497 20.6628 94.0247 20.9645V26.5445H92.5969V21.0501C92.615 20.8889 92.615 20.7261 92.5969 20.5649C92.5534 20.4257 92.4857 20.2953 92.397 20.1795C92.1971 19.9227 91.7259 19.7942 90.9692 19.7942C90.5377 19.7771 90.1058 19.8155 89.6841 19.9084C89.5591 19.9279 89.4392 19.972 89.3314 20.0381C89.2236 20.1043 89.1299 20.1911 89.0559 20.2937C88.9154 20.5198 88.8504 20.7847 88.8703 21.0501V26.5445H87.4425L87.4568 18.9379ZM96.709 29.8269V28.8136C97.9654 28.9564 98.8792 29.042 99.4646 29.042C100.012 29.0865 100.561 28.962 101.035 28.6852C101.208 28.552 101.344 28.3777 101.431 28.1782C101.518 27.9787 101.554 27.7604 101.535 27.5435V25.7311C101.535 26.0545 101.307 26.2971 100.85 26.4589C100.338 26.626 99.8028 26.7079 99.2647 26.7015C98.6248 26.7151 97.9873 26.6185 97.38 26.4161C96.9895 26.308 96.6566 26.052 96.452 25.7025C96.2399 25.2581 96.1464 24.7665 96.1807 24.2754V21.2927C96.1448 20.9372 96.1919 20.5781 96.3183 20.2439C96.4446 19.9096 96.6468 19.6091 96.9089 19.3661C97.6114 18.9244 98.4371 18.7194 99.2647 18.781C100.578 18.781 101.349 19.0806 101.578 19.68V18.9379H102.906V27.2581C102.94 27.8373 102.8 28.4135 102.506 28.9135C102.226 29.3219 101.812 29.6197 101.335 29.7555C100.669 29.932 99.9819 30.0136 99.2933 29.9981C98.4287 30.007 97.5648 29.9498 96.709 29.8269ZM101.078 25.5455C101.236 25.4347 101.362 25.2837 101.442 25.1081C101.523 24.9325 101.555 24.7386 101.535 24.5465V21.0501C101.554 20.7774 101.495 20.505 101.364 20.2652C101.296 20.1629 101.208 20.0758 101.104 20.0095C101.001 19.9432 100.885 19.899 100.764 19.8798C100.343 19.781 99.911 19.7378 99.4789 19.7514C99.0759 19.7389 98.6729 19.7773 98.2795 19.8656C98.1648 19.8869 98.0559 19.9323 97.9599 19.9987C97.864 20.0651 97.7831 20.1511 97.7227 20.2509C97.6112 20.5018 97.5622 20.7761 97.5799 21.0501V24.4895C97.5589 24.7652 97.6132 25.0414 97.737 25.2886C97.8007 25.3841 97.8828 25.4661 97.9783 25.5298C98.0739 25.5934 98.1811 25.6376 98.2938 25.6597C98.6941 25.7327 99.1006 25.7662 99.5075 25.7596C100.045 25.7955 100.584 25.7025 101.078 25.4884V25.5455Z" fill="#EEEEEE"/>
</svg>
