<svg width="87" height="25" viewBox="0 0 87 25" fill="none" xmlns="http://www.w3.org/2000/svg">
<g clip-path="url(#clip0_1578_42727)">
<path d="M31.7105 9.43904C31.4806 9.36249 30.9955 9.31144 30.5102 9.31144C29.0545 9.31144 27.4967 10.4894 27.4967 11.9435V18.878H24.1768V6.50528H27.369V7.75529C28.1096 6.83691 29.4631 6.25013 30.9699 6.25013C31.3466 6.25284 31.7225 6.28698 32.0936 6.35218L31.7105 9.43904Z" fill="#EEEEEE"/>
<path d="M35.4644 0C36.6647 0 37.6351 0.918386 37.6351 2.11742C37.6351 3.31645 36.6647 4.23476 35.4644 4.23476C34.264 4.23476 33.2936 3.31645 33.2936 2.11742C33.2936 0.918386 34.2641 0 35.4644 0ZM37.1243 18.878H33.8044V6.50528H37.1243V18.878Z" fill="#EEEEEE"/>
<path d="M46.9313 6.24953C45.6137 6.23287 44.3314 6.67529 43.305 7.50073V6.50517H40.1121V25H43.4323V18.0108C44.3765 18.756 45.5494 19.1525 46.7525 19.1335C48.5914 19.1335 50.3531 18.3165 51.4512 17.041C52.4221 15.9183 53.0084 14.3884 53.0084 12.7044C53.0085 9.05628 50.3016 6.24953 46.9313 6.24953ZM46.5278 16.1225C44.4655 16.1225 43.11 14.7009 43.11 12.7152C43.11 10.7295 44.4655 9.30787 46.5278 9.30787C48.2881 9.30787 49.7153 10.8337 49.7153 12.7152C49.7153 14.5967 48.2881 16.1225 46.5278 16.1225Z" fill="#EEEEEE"/>
<path d="M73.1584 18.878H69.8383V0.765292H73.1584V18.878Z" fill="#EEEEEE"/>
<path d="M86.6935 16.9136C85.4932 18.3423 83.5267 19.1331 81.6114 19.1331C77.9084 19.1331 75.1247 16.5821 75.1247 12.7044C75.1247 9.26043 77.4743 6.25011 81.1518 6.25011C84.5739 6.25011 87 9.13283 87 12.5768C87.0019 12.8931 86.9763 13.2089 86.9233 13.5208H78.3425C78.5213 15.2554 79.9259 16.4545 81.6881 16.4545C83.0926 16.4545 84.2163 15.6636 84.8037 15.0259L86.6935 16.9136ZM83.6034 11.0972C83.5012 10.0002 82.5053 8.9288 81.1517 8.9288C79.7726 8.9288 78.649 9.97479 78.4958 11.0972H83.6034Z" fill="#EEEEEE"/>
<path d="M61.7946 6.24953C60.477 6.23288 59.1948 6.6753 58.1684 7.50073V6.50517H54.9754V25H58.2957V18.0108C59.2399 18.756 60.4127 19.1525 61.6159 19.1335C63.4548 19.1335 65.2164 18.3165 66.3146 17.041C67.2855 15.9183 67.8718 14.3884 67.8718 12.7044C67.8718 9.05628 65.165 6.24953 61.7946 6.24953ZM61.3911 16.1225C59.3288 16.1225 57.9734 14.7009 57.9734 12.7152C57.9734 10.7295 59.3289 9.30785 61.3911 9.30785C63.1514 9.30785 64.5787 10.8336 64.5787 12.7152C64.5787 14.5967 63.1514 16.1225 61.3911 16.1225Z" fill="#EEEEEE"/>
<path d="M17.3327 14.3703C16.5831 13.938 15.739 13.8126 14.9028 13.7835C14.2013 13.759 13.1547 13.31 13.1547 12.0352C13.1547 11.0854 13.9255 10.321 14.9032 10.2869C15.7392 10.2577 16.5833 10.1323 17.3327 9.70008C18.0058 9.31186 18.5648 8.75348 18.9534 8.08105C19.342 7.40863 19.5466 6.64587 19.5466 5.86942C19.5466 5.09298 19.342 4.33021 18.9534 3.65779C18.5647 2.98538 18.0058 2.427 17.3326 2.03879C16.6595 1.65058 15.8959 1.44621 15.1186 1.44622C14.3413 1.44624 13.5778 1.65064 12.9046 2.03888C12.2315 2.42712 11.6725 2.98552 11.2839 3.65795C10.8953 4.33038 10.6907 5.09315 10.6908 5.8696C10.6908 6.72659 10.9959 7.51524 11.3852 8.2467C11.7127 8.8619 11.8784 10.0037 10.7553 10.6514C9.91983 11.1333 8.87718 10.8282 8.35639 9.99557C7.91648 9.29234 7.38544 8.63342 6.64196 8.20455C5.96883 7.81633 5.20526 7.61195 4.42799 7.61195C3.65073 7.61195 2.88716 7.81633 2.21403 8.20454C1.5409 8.59276 0.981924 9.15114 0.593292 9.82355C0.204659 10.496 6.10352e-05 11.2587 6.10352e-05 12.0352C6.10352e-05 12.8116 0.204659 13.5743 0.593292 14.2468C0.981924 14.9192 1.5409 15.4775 2.21403 15.8658C2.88716 16.254 3.65073 16.4584 4.42799 16.4584C5.20526 16.4584 5.96883 16.254 6.64196 15.8658C7.38523 15.437 7.91632 14.7786 8.35595 14.0758C8.71696 13.4986 9.61858 12.763 10.7552 13.419C11.5894 13.9005 11.8473 14.9553 11.3848 15.8242C10.9956 16.5555 10.6908 17.344 10.6908 18.2009C10.6908 18.9773 10.8954 19.74 11.284 20.4124C11.6727 21.0849 12.2316 21.6432 12.9048 22.0314C13.5779 22.4196 14.3414 22.624 15.1187 22.624C15.896 22.624 16.6595 22.4196 17.3326 22.0314C18.0058 21.6432 18.5647 21.0849 18.9534 20.4124C19.342 19.74 19.5466 18.9773 19.5466 18.2009C19.5466 17.4244 19.342 16.6617 18.9534 15.9893C18.5647 15.3169 18.0058 14.7585 17.3327 14.3703Z" fill="#EEEEEE"/>
</g>
<defs>
<clipPath id="clip0_1578_42727">
<rect width="87" height="25" fill="white"/>
</clipPath>
</defs>
</svg>
