<svg width="24" height="24" viewBox="0 0 24 24" fill="none" xmlns="http://www.w3.org/2000/svg">
<path d="M12 0C5.37244 0 0 5.37244 0 12C0 18.6276 5.37244 24 12 24C18.6276 24 24 18.6276 24 12C24 5.37244 18.6276 0 12 0ZM12 23.1111C5.87289 23.1111 0.888889 18.1271 0.888889 12C0.888889 5.87289 5.87289 0.888889 12 0.888889C18.1271 0.888889 23.1111 5.87289 23.1111 12C23.1111 18.1271 18.1271 23.1111 12 23.1111Z" fill="white"/>
<path d="M15.7093 17.536L17.0436 19.8471C18.1671 19.1244 19.1227 18.1671 19.8453 17.0444L17.5342 15.7111C17.0507 16.4302 16.4293 17.0516 15.7093 17.536Z" fill="white"/>
<path d="M18.6444 11.5565H21.3111C21.2471 10.1805 20.8889 8.88354 20.2924 7.72621L17.9769 9.06399C18.352 9.82577 18.5849 10.6667 18.6444 11.5565Z" fill="white"/>
<path d="M17.976 14.9378L20.2916 16.2747C20.8889 15.1182 21.2453 13.8213 21.3102 12.4453H18.6436C18.5849 13.3351 18.3511 14.176 17.976 14.9378Z" fill="white"/>
<path d="M17.5369 8.29156L19.848 6.95822C19.1244 5.83378 18.1671 4.87734 17.0444 4.15468L15.7111 6.4649C16.4302 6.94934 17.0524 7.57156 17.5369 8.29156Z" fill="white"/>
<path d="M8.28978 6.464L6.95645 4.15378C5.83289 4.87645 4.87645 5.83377 4.15378 6.95643L6.464 8.29066C6.94845 7.57066 7.56978 6.94934 8.28978 6.464Z" fill="white"/>
<path d="M6.02399 9.06399L3.70844 7.72621C3.11111 8.88354 2.75378 10.1805 2.68978 11.5565H5.35645C5.41511 10.6667 5.64799 9.82577 6.02399 9.06399Z" fill="white"/>
<path d="M14.9387 6.0249L16.2756 3.70934C15.1182 3.11111 13.8213 2.75467 12.4444 2.68978V5.35645C13.3351 5.41511 14.1769 5.64801 14.9387 6.0249Z" fill="white"/>
<path d="M6.46488 15.7102L4.15378 17.0436C4.87645 18.168 5.83377 19.1236 6.95733 19.8462L8.29066 17.536C7.57155 17.0524 6.94933 16.4302 6.46488 15.7102Z" fill="white"/>
<path d="M5.35555 12.4453H2.68888C2.75377 13.8213 3.11112 15.1182 3.70756 16.2747L6.02311 14.9378C5.64889 14.176 5.41511 13.3351 5.35555 12.4453Z" fill="white"/>
<path d="M9.06401 17.976L7.72711 20.2916C8.88355 20.8889 10.1804 21.2453 11.5556 21.3102V18.6436C10.6658 18.5849 9.82489 18.352 9.06401 17.976Z" fill="white"/>
<path d="M12.4444 18.6444V21.3111C13.8196 21.2462 15.1173 20.8889 16.2738 20.2925L14.9369 17.9769C14.1751 18.352 13.3342 18.5849 12.4444 18.6444Z" fill="white"/>
<path d="M11.5556 5.35555V2.68888C10.1796 2.75377 8.88177 3.1111 7.72533 3.70755L9.06223 6.02311C9.8249 5.648 10.6649 5.41511 11.5556 5.35555Z" fill="white"/>
<path d="M13.4693 10.3449C13.248 10.1476 12.9876 9.99734 12.6996 9.90134C12.616 9.87379 12.5324 9.84088 12.4444 9.82311V8H11.5556V9.82311C11.4667 9.84088 11.3858 9.87379 11.3004 9.90134C11.0133 9.99645 10.7529 10.1476 10.5307 10.3449C10.4649 10.4036 10.4027 10.4658 10.344 10.5315C10.1467 10.7538 9.99645 11.0142 9.90134 11.3022C9.87379 11.3858 9.84088 11.4684 9.82311 11.5556H8V12.4444H9.82311V12.4453C9.84088 12.5342 9.87379 12.6151 9.90134 12.6995C9.99645 12.9875 10.1476 13.2471 10.3449 13.4693C10.4036 13.5351 10.4658 13.5982 10.5316 13.656C10.7538 13.8533 11.0142 14.0035 11.3022 14.0987C11.3858 14.1271 11.4676 14.1591 11.5556 14.1769V16H12.4444V14.1769C12.5333 14.1591 12.6142 14.1271 12.6978 14.0987C12.9858 14.0035 13.2462 13.8533 13.4684 13.656C13.5342 13.5973 13.5973 13.5351 13.6551 13.4693C13.8524 13.2471 14.0035 12.9867 14.0987 12.6995C14.1262 12.6151 14.1591 12.5325 14.1769 12.4453V12.4444H16V11.5556H14.1769C14.1591 11.4676 14.1262 11.3858 14.0987 11.3022C14.0035 11.0142 13.8533 10.7538 13.656 10.5324C13.5973 10.4649 13.5369 10.4036 13.4693 10.3449ZM13.3333 12C13.3333 12.736 12.736 13.3333 12 13.3333C11.264 13.3333 10.6667 12.736 10.6667 12C10.6667 11.264 11.264 10.6667 12 10.6667C12.736 10.6667 13.3333 11.264 13.3333 12Z" fill="white"/>
<path d="M22.6667 3.55556C23.403 3.55556 24 2.9586 24 2.22222C24 1.48584 23.403 0.888889 22.6667 0.888889C21.9303 0.888889 21.3333 1.48584 21.3333 2.22222C21.3333 2.9586 21.9303 3.55556 22.6667 3.55556Z" fill="white"/>
</svg>
