<svg width="25" height="24" viewBox="0 0 25 24" fill="none" xmlns="http://www.w3.org/2000/svg">
<path d="M22.6986 9.96783H22.5106V6.58088C22.7989 6.47528 23.0409 6.2709 23.1943 6.00362C23.3477 5.73635 23.4025 5.42327 23.3492 5.11937C23.2959 4.81547 23.1379 4.54018 22.9028 4.34183C22.6678 4.14348 22.3708 4.03476 22.0639 4.03476C21.7571 4.03476 21.4601 4.14348 21.2251 4.34183C20.99 4.54018 20.832 4.81547 20.7787 5.11937C20.7253 5.42327 20.7802 5.73635 20.9336 6.00362C21.0869 6.2709 21.329 6.47528 21.6173 6.58088V9.96911H21.4287C21.2411 9.96957 21.0596 10.0362 20.9158 10.1575C20.772 10.2787 20.6751 10.4469 20.6419 10.6326H19.5603V8.34866C19.8723 8.26587 20.1483 8.08169 20.3455 7.8248C20.5426 7.5679 20.6498 7.25268 20.6503 6.92817V6.15504C20.6498 5.82918 20.5418 5.51271 20.3432 5.25526C20.1446 4.99781 19.8666 4.81394 19.5529 4.73249C19.5109 4.08529 19.2259 3.47834 18.7557 3.03454C18.2855 2.59075 17.6651 2.34328 17.0203 2.34225H15.7616C15.4066 0.997733 13.4752 0 11.0747 0C8.67417 0 6.74275 0.997733 6.38775 2.34225H5.13009C4.48524 2.34328 3.86488 2.59075 3.39464 3.03454C2.92439 3.47834 2.63941 4.08529 2.5974 4.73249C2.2837 4.81394 2.00575 4.99781 1.80714 5.25526C1.60854 5.51271 1.50051 5.82918 1.5 6.15504V6.92817C1.50058 7.25268 1.60776 7.5679 1.80489 7.8248C2.00202 8.08169 2.27803 8.26587 2.59 8.34866V15.6513C2.27803 15.7341 2.00202 15.9183 1.80489 16.1752C1.60776 16.4321 1.50058 16.7473 1.5 17.0718V17.845C1.50053 18.1695 1.6077 18.4847 1.80484 18.7416C2.00197 18.9985 2.27801 19.1827 2.59 19.2655V23.5508C2.59 23.6699 2.63705 23.7842 2.72081 23.8684C2.80456 23.9527 2.91816 24 3.03661 24H19.1147C19.233 23.9997 19.3464 23.9523 19.4299 23.8681C19.5134 23.7839 19.5603 23.6698 19.5603 23.5508V19.2655C19.8723 19.1827 20.1484 18.9985 20.3455 18.7416C20.5426 18.4847 20.6498 18.1695 20.6503 17.845V17.0718C20.6498 16.7473 20.5426 16.4321 20.3455 16.1752C20.1483 15.9183 19.8723 15.7341 19.5603 15.6513V13.3686H20.6419C20.6751 13.5544 20.772 13.7225 20.9158 13.8438C21.0596 13.9651 21.2411 14.0317 21.4287 14.0322H22.6986C22.9111 14.0319 23.1148 13.9469 23.2651 13.7957C23.4153 13.6446 23.4998 13.4396 23.5 13.2259V10.7741C23.4998 10.5604 23.4153 10.3554 23.2651 10.2043C23.1148 10.0531 22.9111 9.9681 22.6986 9.96783ZM22.0639 4.93861C22.1454 4.93861 22.225 4.96291 22.2928 5.00843C22.3605 5.05395 22.4133 5.11865 22.4445 5.19436C22.4757 5.27006 22.4838 5.35336 22.4679 5.43372C22.452 5.51409 22.4128 5.5879 22.3552 5.64584C22.2976 5.70378 22.2242 5.74324 22.1443 5.75923C22.0644 5.77521 21.9816 5.76701 21.9063 5.73565C21.831 5.70429 21.7667 5.65119 21.7215 5.58306C21.6762 5.51494 21.652 5.43484 21.652 5.3529C21.6522 5.24306 21.6956 5.13777 21.7728 5.0601C21.85 4.98244 21.9547 4.93875 22.0639 4.93861ZM8.84159 15.6013V8.39872H13.3077V15.6013H8.84159ZM3.48221 15.6013V8.39872H7.94836V15.6013H3.48221ZM14.201 8.39872H18.6671V15.6013H14.201V8.39872ZM5.13009 3.24064H6.77567C6.89412 3.24064 7.00772 3.19332 7.09148 3.10907C7.17523 3.02483 7.22229 2.91058 7.22229 2.79144C7.22229 1.67589 9.25247 0.898396 11.0759 0.898396C12.8994 0.898396 14.9296 1.67589 14.9296 2.79144C14.9296 2.91058 14.9766 3.02483 15.0604 3.10907C15.1442 3.19332 15.2578 3.24064 15.3762 3.24064H17.0218C17.4218 3.24111 17.8081 3.38783 18.1086 3.65346C18.4091 3.91908 18.6033 4.28551 18.6551 4.68449H3.49752C3.54932 4.28565 3.74345 3.91932 4.04378 3.65371C4.34411 3.3881 4.73017 3.2413 5.13009 3.24064ZM2.39221 6.92817V6.15504C2.39241 6.00336 2.45241 5.85795 2.55905 5.75069C2.66569 5.64344 2.81026 5.58309 2.96107 5.58289H19.1883C19.3391 5.58309 19.4836 5.64344 19.5903 5.75069C19.6969 5.85795 19.7569 6.00336 19.7571 6.15504V6.92817C19.7569 7.07985 19.6969 7.22526 19.5903 7.33252C19.4836 7.43977 19.3391 7.50012 19.1883 7.50032H2.96107C2.81026 7.50012 2.66569 7.43977 2.55905 7.33252C2.45241 7.22526 2.39241 7.07985 2.39221 6.92817ZM3.48221 23.1016V19.3155H18.6671V23.1016H3.48221ZM19.7571 17.0718V17.845C19.7569 17.9966 19.6969 18.1421 19.5903 18.2493C19.4836 18.3566 19.3391 18.4169 19.1883 18.4171H2.96107C2.81026 18.4169 2.66569 18.3566 2.55905 18.2493C2.45241 18.1421 2.39241 17.9966 2.39221 17.845V17.0718C2.39241 16.9201 2.45241 16.7747 2.55905 16.6675C2.66569 16.5602 2.81026 16.4999 2.96107 16.4997H19.1883C19.3391 16.4999 19.4836 16.5602 19.5903 16.6675C19.6969 16.7747 19.7569 16.9201 19.7571 17.0718ZM19.5603 11.5298H20.6276V12.4702H19.5603V11.5298ZM22.6068 13.1338H21.5209V10.8662H22.6068V13.1338Z" fill="white"/>
<path d="M13.9498 20.054H8.6415C8.14562 20.0546 7.67022 20.253 7.31958 20.6057C6.96894 20.9583 6.77169 21.4365 6.77108 21.9352C6.77108 22.0544 6.81813 22.1686 6.90189 22.2529C6.98565 22.3371 7.09924 22.3844 7.21769 22.3844H15.3736C15.4921 22.3844 15.6057 22.3371 15.6895 22.2529C15.7732 22.1686 15.8203 22.0544 15.8203 21.9352C15.8197 21.4365 15.6224 20.9583 15.2718 20.6057C14.9211 20.253 14.4457 20.0546 13.9498 20.054ZM7.77379 21.486C7.85604 21.3254 7.98065 21.1907 8.13397 21.0965C8.28729 21.0024 8.46341 20.9525 8.64303 20.9524H13.9514C14.131 20.9526 14.307 21.0025 14.4603 21.0966C14.6136 21.1907 14.7381 21.3255 14.8204 21.486H7.77379Z" fill="white"/>
<path d="M4.65489 11.2289H5.98299L4.90857 13.3905H5.68108L6.77567 11.1316V10.6095H4.65489V11.2289Z" fill="white"/>
<path d="M10.0143 11.2289H11.3424L10.2679 13.3905H11.0405L12.1351 11.1316V10.6095H10.0143V11.2289Z" fill="white"/>
<path d="M15.3736 11.2289H16.7018L15.6273 13.3905H16.3998L17.4944 11.1316V10.6095H15.3736V11.2289Z" fill="white"/>
<path d="M9.79862 3.49733H12.3507C12.4692 3.49733 12.5828 3.45 12.6665 3.36576C12.7503 3.28152 12.7973 3.16726 12.7973 3.04813C12.7973 2.92899 12.7503 2.81474 12.6665 2.7305C12.5828 2.64626 12.4692 2.59893 12.3507 2.59893H9.79862C9.68017 2.59893 9.56657 2.64626 9.48281 2.7305C9.39906 2.81474 9.352 2.92899 9.352 3.04813C9.352 3.16726 9.39906 3.28152 9.48281 3.36576C9.56657 3.45 9.68017 3.49733 9.79862 3.49733Z" fill="white"/>
</svg>
