<svg width="18" height="18" viewBox="0 0 18 18" fill="none" xmlns="http://www.w3.org/2000/svg">
<path d="M16.8252 13.7835L16.8258 13.7812C16.8258 13.7613 16.8185 13.7438 16.8145 13.7253C16.4638 11.7827 14.4928 10.6273 12.5803 10.1675C12.485 9.96525 12.3441 9.76641 12.2133 9.60356C13.1428 8.90072 13.8347 7.90369 14.1503 6.75H14.9062C15.2165 6.75 15.4688 6.49772 15.4688 6.1875V4.5C15.4688 4.18978 15.2165 3.9375 14.9062 3.9375H14.1497C13.5301 1.67203 11.4593 0 9 0C6.54075 0 4.46991 1.67203 3.85031 3.9375H3.09375C2.78353 3.9375 2.53125 4.18978 2.53125 4.5V6.1875C2.53125 6.49772 2.78353 6.75 3.09375 6.75H3.85031C4.16587 7.90397 4.85747 8.90072 5.78728 9.60356C5.6565 9.76641 5.51559 9.96525 5.42025 10.1675C3.51197 10.6262 1.53703 11.7802 1.18603 13.7253C1.18209 13.7441 1.17478 13.7616 1.17478 13.7812L1.17534 13.7835C1.14553 13.9643 1.125 14.1494 1.125 14.3438V17.7188C1.125 17.8743 1.251 18 1.40625 18C1.5615 18 1.6875 17.8743 1.6875 17.7188V15.1875H3.09375C3.40397 15.1875 3.65625 14.9352 3.65625 14.625V12.9375C3.65625 12.6273 3.40397 12.375 3.09375 12.375H2.46909C3.21919 11.5352 4.40494 10.9859 5.56256 10.7092C6.59334 11.4514 7.71947 11.8125 9 11.8125C10.2805 11.8125 11.4067 11.4514 12.4374 10.7092C13.5951 10.9859 14.7808 11.5352 15.5309 12.375H14.9062C14.596 12.375 14.3438 12.6273 14.3438 12.9375V14.625C14.3438 14.9352 14.596 15.1875 14.9062 15.1875H16.3125V17.7188C16.3125 17.8743 16.4385 18 16.5938 18C16.749 18 16.875 17.8743 16.875 17.7188V14.3438C16.875 14.1494 16.8545 13.9643 16.8252 13.7835ZM3.09375 12.9375V14.625H1.6875V14.3438C1.6875 14.2476 1.69594 14.155 1.70494 14.0625H2.25C2.40525 14.0625 2.53125 13.9368 2.53125 13.7812C2.53125 13.6257 2.40525 13.5 2.25 13.5H1.81912C1.88072 13.3026 1.96116 13.1147 2.06212 12.9375H3.09375ZM4.21875 5.34375C4.21875 5.24869 4.22747 5.15616 4.23309 5.0625H4.51434C4.50844 5.15588 4.5 5.24869 4.5 5.34375C4.5 5.43881 4.50844 5.53162 4.51434 5.625H4.23309C4.22747 5.53134 4.21875 5.43881 4.21875 5.34375ZM5.0625 5.34375C5.0625 3.1725 6.82875 1.40625 9 1.40625C11.1713 1.40625 12.9375 3.1725 12.9375 5.34375C12.9375 7.515 11.1713 9.28125 9 9.28125C6.82875 9.28125 5.0625 7.515 5.0625 5.34375ZM13.4857 5.0625H13.7669C13.7725 5.15616 13.7812 5.24869 13.7812 5.34375C13.7812 5.43881 13.7725 5.53134 13.7669 5.625H13.4857C13.4916 5.53162 13.5 5.43881 13.5 5.34375C13.5 5.24869 13.4916 5.15588 13.4857 5.0625ZM14.9062 4.5V6.1875H14.2703C14.3145 5.91187 14.3438 5.63147 14.3438 5.34375C14.3438 5.05603 14.3145 4.77563 14.2703 4.5H14.9062ZM9 0.5625C11.3482 0.5625 13.302 2.26519 13.7022 4.5H13.4182C13.0216 2.421 11.1926 0.84375 9 0.84375C6.80737 0.84375 4.97841 2.421 4.58212 4.5H4.29806C4.698 2.26519 6.65184 0.5625 9 0.5625ZM3.09375 6.1875V4.5H3.72966C3.6855 4.77563 3.65625 5.05603 3.65625 5.34375C3.65625 5.63147 3.6855 5.91187 3.72966 6.1875H3.09375ZM4.29778 6.1875H4.58184C4.97841 8.2665 6.80737 9.84375 9 9.84375C11.1926 9.84375 13.0216 8.2665 13.4179 6.1875H13.7019C13.302 8.42231 11.3482 10.125 9 10.125C6.65184 10.125 4.698 8.42231 4.29778 6.1875ZM5.98022 10.3112C6.04772 10.1922 6.14166 10.0589 6.25528 9.92053C7.05881 10.404 7.99594 10.6875 9 10.6875C10.0041 10.6875 10.9409 10.404 11.7444 9.92025C11.8583 10.0586 11.9523 10.1922 12.0198 10.3109C11.1032 10.9477 10.1379 11.25 9 11.25C7.86206 11.25 6.89681 10.9477 5.98022 10.3112ZM14.9062 14.625V12.9375H15.9382C16.0388 13.1147 16.1196 13.3026 16.1812 13.5H15.75C15.5948 13.5 15.4688 13.6257 15.4688 13.7812C15.4688 13.9368 15.5948 14.0625 15.75 14.0625H16.2951C16.3041 14.155 16.3125 14.2476 16.3125 14.3438V14.625H14.9062Z" fill="#EEEEEE"/>
<path d="M8.43723 2.5824C8.4541 2.5824 8.47126 2.581 8.48842 2.57762C8.57223 2.56215 8.65745 2.55034 8.74379 2.54275C8.89848 2.52869 9.01267 2.39228 8.99889 2.23759C8.98482 2.08262 8.8487 1.96647 8.69373 1.9825C8.58995 1.99178 8.48757 2.00584 8.3866 2.0244C8.23389 2.05253 8.13292 2.19906 8.16104 2.35206C8.18579 2.48762 8.3042 2.5824 8.43723 2.5824Z" fill="#EEEEEE"/>
<path d="M6.37932 4.32117C6.5911 3.77892 6.97698 3.30501 7.46607 2.98607C7.59629 2.90113 7.63285 2.72704 7.5482 2.59682C7.46326 2.46688 7.28917 2.43004 7.15895 2.5147C6.57226 2.89692 6.10932 3.46588 5.85507 4.11613C5.79854 4.26098 5.86998 4.4241 6.01482 4.48063C6.04857 4.49413 6.08317 4.50004 6.1172 4.50004C6.22942 4.50004 6.33573 4.43226 6.37932 4.32117Z" fill="#EEEEEE"/>
<path d="M10.9688 12.375H7.03125C6.72103 12.375 6.46875 12.6273 6.46875 12.9375V16.875C6.46875 17.1852 6.72103 17.4375 7.03125 17.4375H10.9688C11.279 17.4375 11.5312 17.1852 11.5312 16.875V12.9375C11.5312 12.6273 11.279 12.375 10.9688 12.375ZM7.03125 16.875V12.9375H10.9688L10.969 16.875H7.03125Z" fill="#EEEEEE"/>
<path d="M8.4375 13.5C7.97231 13.5 7.59375 13.8786 7.59375 14.3438C7.59375 14.8089 7.97231 15.1875 8.4375 15.1875C8.90269 15.1875 9.28125 14.8089 9.28125 14.3438C9.28125 13.8786 8.90269 13.5 8.4375 13.5ZM8.4375 14.625C8.28253 14.625 8.15625 14.499 8.15625 14.3438C8.15625 14.1885 8.28253 14.0625 8.4375 14.0625C8.59247 14.0625 8.71875 14.1885 8.71875 14.3438C8.71875 14.499 8.59247 14.625 8.4375 14.625Z" fill="#EEEEEE"/>
<path d="M5.0625 15.4688C4.90725 15.4688 4.78125 15.5945 4.78125 15.75V17.7188C4.78125 17.8743 4.90725 18 5.0625 18C5.21775 18 5.34375 17.8743 5.34375 17.7188V15.75C5.34375 15.5945 5.21775 15.4688 5.0625 15.4688Z" fill="#EEEEEE"/>
<path d="M12.9375 15.4688C12.7823 15.4688 12.6562 15.5945 12.6562 15.75V17.7188C12.6562 17.8743 12.7823 18 12.9375 18C13.0927 18 13.2188 17.8743 13.2188 17.7188V15.75C13.2188 15.5945 13.0927 15.4688 12.9375 15.4688Z" fill="#EEEEEE"/>
<path d="M10.125 14.0625C10.2803 14.0625 10.4062 13.9366 10.4062 13.7812C10.4062 13.6259 10.2803 13.5 10.125 13.5C9.96967 13.5 9.84375 13.6259 9.84375 13.7812C9.84375 13.9366 9.96967 14.0625 10.125 14.0625Z" fill="#EEEEEE"/>
<path d="M10.125 15.1875C10.2803 15.1875 10.4062 15.0616 10.4062 14.9062C10.4062 14.7509 10.2803 14.625 10.125 14.625C9.96967 14.625 9.84375 14.7509 9.84375 14.9062C9.84375 15.0616 9.96967 15.1875 10.125 15.1875Z" fill="#EEEEEE"/>
<path d="M10.125 16.3125C10.2803 16.3125 10.4062 16.1866 10.4062 16.0312C10.4062 15.8759 10.2803 15.75 10.125 15.75C9.96967 15.75 9.84375 15.8759 9.84375 16.0312C9.84375 16.1866 9.96967 16.3125 10.125 16.3125Z" fill="#EEEEEE"/>
<path d="M9 16.3125C9.15533 16.3125 9.28125 16.1866 9.28125 16.0312C9.28125 15.8759 9.15533 15.75 9 15.75C8.84467 15.75 8.71875 15.8759 8.71875 16.0312C8.71875 16.1866 8.84467 16.3125 9 16.3125Z" fill="#EEEEEE"/>
<path d="M7.875 16.3125C8.03033 16.3125 8.15625 16.1866 8.15625 16.0312C8.15625 15.8759 8.03033 15.75 7.875 15.75C7.71967 15.75 7.59375 15.8759 7.59375 16.0312C7.59375 16.1866 7.71967 16.3125 7.875 16.3125Z" fill="#EEEEEE"/>
</svg>
