<svg width="33" height="33" viewBox="0 0 33 33" fill="none" xmlns="http://www.w3.org/2000/svg">
<path d="M16.0325 32.0522C24.8835 32.0522 32.0586 24.8771 32.0586 16.0261C32.0586 7.17512 24.8835 0 16.0325 0C7.18156 0 0.00643921 7.17512 0.00643921 16.0261C0.00643921 24.8771 7.18156 32.0522 16.0325 32.0522Z" fill="#333333"/>
<path d="M13.2612 13.903C12.7164 14.6173 12.4448 15.5315 12.5693 16.4851L4.21974 17.5821C3.7917 14.3265 4.73027 11.197 6.58664 8.77362L13.2612 13.903Z" fill="#E6E9EE"/>
<path d="M23.2796 6.5779L18.1485 13.2587C17.4343 12.7139 16.5201 12.4422 15.5665 12.5668L14.4694 4.21722C17.7312 3.79085 20.8624 4.72319 23.2796 6.5779Z" fill="#E6E9EE"/>
<path d="M27.8451 14.4765C28.2731 17.732 27.3346 20.8615 25.4782 23.285L18.7974 18.1539C19.3422 17.4396 19.6139 16.5255 19.4893 15.5718L27.8451 14.4765Z" fill="#E6E9EE"/>
<path d="M16.4859 19.4884L17.583 27.838C14.3274 28.2661 11.2024 27.3354 8.78068 25.4728L13.9055 18.7903C14.6181 19.3414 15.5323 19.613 16.4859 19.4884Z" fill="#E6E9EE"/>
<path d="M14.4757 4.2189L15.5727 12.5685C14.619 12.6931 13.8044 13.195 13.2612 13.903L6.58665 8.77363C8.44135 6.35642 11.2201 4.64694 14.4757 4.2189Z" fill="#B08615"/>
<path d="M27.8451 14.4765L19.4893 15.5718C19.3647 14.6182 18.8628 13.8035 18.1548 13.2604L23.2796 6.57791C25.703 8.43428 27.4187 11.2147 27.8451 14.4765Z" fill="#B08615"/>
<path d="M13.9039 18.7966L8.77903 25.479C6.3556 23.6227 4.6399 20.8423 4.21186 17.5867L12.5615 16.4896C12.6939 17.4387 13.1958 18.2534 13.9039 18.7966Z" fill="#B08615"/>
<path d="M25.4799 23.2788C23.6235 25.7022 20.8448 27.4117 17.583 27.8381L16.4859 19.4885C17.4396 19.3639 18.2543 18.862 18.7974 18.1539L25.4799 23.2788Z" fill="#B08615"/>
<path d="M18.2934 2.26092C18.2934 3.51054 16.0325 7.6008 16.0325 7.6008C16.0325 7.6008 13.7716 3.51054 13.7716 2.26092C13.7716 1.01129 14.7829 0 16.0325 0C17.2822 0 18.2934 1.01129 18.2934 2.26092Z" fill="#444444"/>
<path opacity="0.1" d="M18.0809 1.3076C18.0744 1.32693 18.068 1.33981 18.0616 1.35913C17.4045 3.27221 14.6605 3.27221 14.0035 1.35913C13.9971 1.33981 13.9906 1.32693 13.9842 1.3076C13.8489 1.59746 13.7652 1.91953 13.7652 2.26092C13.7652 3.51054 16.0261 7.6008 16.0261 7.6008C16.0261 7.6008 18.287 3.51054 18.287 2.26092C18.2934 1.91953 18.2162 1.6039 18.0809 1.3076Z" fill="black"/>
<path d="M16.0325 19.5173C14.1066 19.5173 12.5413 17.9521 12.5413 16.0261C12.5413 14.1001 14.1066 12.5349 16.0325 12.5349C17.9585 12.5349 19.5237 14.1001 19.5237 16.0261C19.5237 17.9521 17.9585 19.5173 16.0325 19.5173Z" fill="#5D5B68"/>
<path opacity="0.1" d="M17.3208 18.229C15.3948 18.229 13.8296 16.6638 13.8296 14.7378C13.8296 14.1066 14.0035 13.514 14.2934 13.0051C13.2434 13.6106 12.5349 14.7378 12.5349 16.0325C12.5349 17.9585 14.1001 19.5237 16.0261 19.5237C17.3208 19.5237 18.448 18.8152 19.0535 17.7653C18.5447 18.0616 17.9521 18.229 17.3208 18.229Z" fill="black"/>
<path d="M16.0325 17.3143C16.744 17.3143 17.3208 16.7376 17.3208 16.0261C17.3208 15.3146 16.744 14.7378 16.0325 14.7378C15.321 14.7378 14.7443 15.3146 14.7443 16.0261C14.7443 16.7376 15.321 17.3143 16.0325 17.3143Z" fill="#AAB2BD"/>
<path d="M30.0038 16.6702C30.3596 16.6702 30.648 16.3818 30.648 16.0261C30.648 15.6703 30.3596 15.3819 30.0038 15.3819C29.6481 15.3819 29.3597 15.6703 29.3597 16.0261C29.3597 16.3818 29.6481 16.6702 30.0038 16.6702Z" fill="white"/>
<path d="M2.06123 16.6702C2.41698 16.6702 2.70537 16.3818 2.70537 16.0261C2.70537 15.6703 2.41698 15.382 2.06123 15.382C1.70549 15.382 1.4171 15.6703 1.4171 16.0261C1.4171 16.3818 1.70549 16.6702 2.06123 16.6702Z" fill="white"/>
<path d="M25.9136 6.79561C26.2693 6.79561 26.5577 6.50722 26.5577 6.15147C26.5577 5.79573 26.2693 5.50734 25.9136 5.50734C25.5578 5.50734 25.2694 5.79573 25.2694 6.15147C25.2694 6.50722 25.5578 6.79561 25.9136 6.79561Z" fill="white"/>
<path d="M6.15149 26.5512C6.50724 26.5512 6.79563 26.2629 6.79563 25.9071C6.79563 25.5514 6.50724 25.263 6.15149 25.263C5.79574 25.263 5.50735 25.5514 5.50735 25.9071C5.50735 26.2629 5.79574 26.5512 6.15149 26.5512Z" fill="white"/>
<path d="M16.0325 30.6479C16.3883 30.6479 16.6767 30.3596 16.6767 30.0038C16.6767 29.6481 16.3883 29.3597 16.0325 29.3597C15.6768 29.3597 15.3884 29.6481 15.3884 30.0038C15.3884 30.3596 15.6768 30.6479 16.0325 30.6479Z" fill="white"/>
<path d="M6.15149 6.79563C6.50724 6.79563 6.79563 6.50724 6.79563 6.15149C6.79563 5.79574 6.50724 5.50735 6.15149 5.50735C5.79574 5.50735 5.50735 5.79574 5.50735 6.15149C5.50735 6.50724 5.79574 6.79563 6.15149 6.79563Z" fill="white"/>
<path d="M25.9136 26.5512C26.2693 26.5512 26.5577 26.2629 26.5577 25.9071C26.5577 25.5514 26.2693 25.263 25.9136 25.263C25.5578 25.263 25.2694 25.5514 25.2694 25.9071C25.2694 26.2629 25.5578 26.5512 25.9136 26.5512Z" fill="white"/>
<path opacity="0.1" d="M4.30927 5.10155C1.6361 7.96795 0 11.807 0 16.0325C0 24.8829 7.17567 32.0586 16.0261 32.0586C20.2516 32.0586 24.0907 30.4225 26.9571 27.7493C27.2985 27.3951 27.627 27.0279 27.9297 26.6414C25.1921 28.8186 21.7331 30.1262 17.9585 30.1262C9.10807 30.1262 1.93241 22.9505 1.93241 14.1001C1.93241 10.3319 3.23356 6.86648 5.41718 4.12891C5.03714 4.43165 4.66998 4.76016 4.30927 5.10155Z" fill="black"/>
</svg>
