<svg width="98" height="31" viewBox="0 0 98 31" fill="none" xmlns="http://www.w3.org/2000/svg">
<path d="M15.381 16.9819V16.9861C18.5602 16.8446 20.9336 16.2954 20.9336 15.6379C20.9336 14.9805 18.5623 14.4312 15.381 14.2897V16.4368C15.2887 16.4452 14.7934 16.4868 13.8029 16.4868C12.9782 16.4868 12.3801 16.4514 12.1724 16.4368V14.2876C8.98686 14.427 6.60716 14.9784 6.60716 15.6358C6.60716 16.2954 8.98476 16.8446 12.1724 16.984V16.9819C12.378 16.9923 12.9593 17.0152 13.7882 17.0152C14.8249 17.0152 15.2908 16.9882 15.381 16.9819Z" fill="#EEEEEE"/>
<path fill-rule="evenodd" clip-rule="evenodd" d="M27.0424 15.7898C27.0424 22.9369 21.1985 28.7308 13.9897 28.7308C6.78089 28.7308 0.937012 22.9369 0.937012 15.7898C0.937012 8.64273 6.78089 2.84888 13.9897 2.84888C21.1985 2.84888 27.0424 8.64273 27.0424 15.7898ZM15.381 12.1447V14.0671L15.3831 14.0692C18.9841 14.2335 21.6912 14.943 21.6912 15.7898C21.6912 16.6386 18.9841 17.346 15.3831 17.5104V23.6729H12.1745V17.5104C8.56926 17.3439 5.8559 16.6366 5.8559 15.7877C5.8559 14.9388 8.56716 14.2315 12.1745 14.0671V12.1447H7.73616V9.21321H19.8193V12.1447H15.381Z" fill="#EEEEEE"/>
<path d="M38.1298 10.0142V13.1225H41.1768V15.4548H38.1088V20.1839C38.1088 21.2283 38.6901 21.738 39.5421 21.738C39.9681 21.738 40.4612 21.6049 40.8641 21.4052L41.6259 23.7146C40.8432 24.0246 40.1926 24.1577 39.3637 24.1806C36.9672 24.2701 35.3996 22.9156 35.3996 20.1839V15.4548H33.3389V13.1225H35.3996V10.3034L38.1298 10.0142ZM90.6616 12.9769L90.863 14.2419C91.715 12.8874 92.8566 12.6877 93.9772 12.6877C95.1188 12.6877 96.2163 13.1309 96.8207 13.7301L95.5889 16.0831C95.0286 15.6171 94.5144 15.3716 93.6184 15.3716C92.1851 15.3716 90.863 16.1268 90.863 18.147V23.9205H88.1308V12.9727L90.6616 12.9769ZM83.9653 17.1733C83.7869 15.7523 82.6663 15.0408 81.0987 15.0408C79.6214 15.0408 78.4105 15.7523 78.0076 17.1733H83.9653ZM77.9635 19.4162C78.1419 20.7706 79.3297 21.7484 81.2561 21.7484C82.2634 21.7484 83.5854 21.3698 84.2129 20.7269L85.9588 22.4371C84.7942 23.6355 82.8908 24.2139 81.2099 24.2139C77.4032 24.2139 75.139 21.8816 75.139 18.3738C75.139 15.0429 77.4242 12.644 81.0085 12.644C84.7039 12.644 87.0123 14.9097 86.5863 19.4162H77.9635ZM65.9139 8.37892V14.4624C66.9002 13.1974 68.109 12.8188 69.3639 12.8188C72.499 12.8188 73.8883 14.9284 73.8883 18.1491V23.9226H71.156V18.172C71.156 16.1726 70.1026 15.33 68.6462 15.33C67.0324 15.33 65.9139 16.6844 65.9139 18.328V23.9247H63.1817V8.381L65.9139 8.37892ZM58.6573 9.88939V12.9977H61.7044V15.33H58.6363V20.0591C58.6363 21.1035 59.2197 21.6132 60.0696 21.6132C60.4956 21.6132 60.9888 21.4801 61.3917 21.2803L62.1534 23.5897C61.3707 23.8997 60.7202 24.0329 59.8912 24.0558C57.4948 24.1452 55.9272 22.7887 55.9272 20.0591V15.33H53.8665V12.9977H55.9272V10.1786L58.6573 9.88939ZM51.109 17.1733C50.9306 15.7523 49.81 15.0408 48.2425 15.0408C46.7651 15.0408 45.5543 15.7523 45.1514 17.1733H51.109ZM45.1073 19.4162C45.2857 20.7706 46.4734 21.7484 48.3999 21.7484C49.4071 21.7484 50.7292 21.3698 51.3566 20.7269L53.1026 22.4371C51.9379 23.6355 50.0346 24.2139 48.3537 24.2139C44.5449 24.2139 42.2827 21.8816 42.2827 18.3738C42.2827 15.0429 44.568 12.644 48.1501 12.644C51.8456 12.644 54.1518 14.9097 53.728 19.4162H45.1073Z" fill="#EEEEEE"/>
</svg>
