<svg width="24" height="24" viewBox="0 0 24 24" fill="none" xmlns="http://www.w3.org/2000/svg">
<g clip-path="url(#clip0_1601_68799)">
<path d="M22.6429 18.1943H20.0498V14.8759C20.0494 14.5179 19.9063 14.1747 19.6519 13.9216C19.3975 13.6685 19.0526 13.5261 18.6928 13.5258H13.357V10.9415C13.357 10.5835 13.2141 10.24 12.9596 9.98684C12.7052 9.73364 12.3601 9.59139 12.0003 9.59139C11.6404 9.59139 11.2953 9.73364 11.0409 9.98684C10.7865 10.24 10.6435 10.5835 10.6435 10.9415V13.5258H5.30769C4.94805 13.5263 4.60329 13.6687 4.34903 13.9218C4.09477 14.1749 3.95179 14.518 3.95145 14.8759V18.1943H1.35714C0.997384 18.1946 0.65246 18.337 0.398053 18.5901C0.143646 18.8432 0.000536472 19.1864 0.000128442 19.5444V22.5903C-0.00234488 22.7692 0.0309244 22.9468 0.0980042 23.1128C0.165084 23.2788 0.264637 23.4298 0.39088 23.5572C0.517124 23.6846 0.66754 23.7857 0.833394 23.8547C0.999248 23.9238 1.17723 23.9593 1.35701 23.9593C1.53678 23.9593 1.71477 23.9238 1.88062 23.8547C2.04647 23.7857 2.19689 23.6846 2.32313 23.5572C2.44938 23.4298 2.54893 23.2788 2.61601 23.1128C2.68309 22.9468 2.71636 22.7692 2.71389 22.5903V20.8948H7.89995V22.5903C7.89748 22.7692 7.93075 22.9468 7.99783 23.1128C8.06491 23.2788 8.16446 23.4298 8.2907 23.5572C8.41695 23.6846 8.56736 23.7857 8.73322 23.8547C8.89907 23.9238 9.07705 23.9593 9.25683 23.9593C9.43661 23.9593 9.61459 23.9238 9.78045 23.8547C9.9463 23.7857 10.0967 23.6846 10.223 23.5572C10.3492 23.4298 10.4488 23.2788 10.5158 23.1128C10.5829 22.9468 10.6162 22.7692 10.6137 22.5903V19.5444C10.6133 19.1865 10.4702 18.8433 10.2159 18.5902C9.96152 18.3371 9.61667 18.1947 9.25696 18.1943H6.66264V16.2261H17.3361V18.1943H14.7433C14.3835 18.1946 14.0386 18.337 13.7842 18.5901C13.5298 18.8432 13.3867 19.1864 13.3863 19.5444V22.5903C13.3838 22.7692 13.4171 22.9468 13.4842 23.1128C13.5512 23.2788 13.6508 23.4298 13.777 23.5572C13.9033 23.6846 14.0537 23.7857 14.2196 23.8547C14.3854 23.9238 14.5634 23.9593 14.7432 23.9593C14.9229 23.9593 15.1009 23.9238 15.2668 23.8547C15.4326 23.7857 15.5831 23.6846 15.7093 23.5572C15.8355 23.4298 15.9351 23.2788 16.0022 23.1128C16.0693 22.9468 16.1025 22.7692 16.1 22.5903V20.8948H21.2861V22.5903C21.2836 22.7692 21.3169 22.9468 21.384 23.1128C21.4511 23.2788 21.5506 23.4298 21.6769 23.5572C21.8031 23.6846 21.9535 23.7857 22.1194 23.8547C22.2852 23.9238 22.4632 23.9593 22.643 23.9593C22.8228 23.9593 23.0008 23.9238 23.1666 23.8547C23.3325 23.7857 23.4829 23.6846 23.6091 23.5572C23.7354 23.4298 23.8349 23.2788 23.902 23.1128C23.9691 22.9468 24.0023 22.7692 23.9999 22.5903V19.5444C23.9995 19.1864 23.8564 18.8432 23.6019 18.5901C23.3475 18.337 23.0026 18.1946 22.6429 18.1943ZM23.1009 22.5908C23.1023 22.6516 23.0915 22.712 23.0692 22.7685C23.0468 22.8251 23.0133 22.8766 22.9706 22.9201C22.928 22.9635 22.877 22.9981 22.8208 23.0217C22.7645 23.0452 22.7041 23.0574 22.643 23.0574C22.5819 23.0574 22.5215 23.0452 22.4652 23.0217C22.409 22.9981 22.358 22.9635 22.3153 22.9201C22.2727 22.8766 22.2392 22.8251 22.2168 22.7685C22.1945 22.712 22.1837 22.6516 22.1851 22.5908V20.4475C22.1851 20.3289 22.1378 20.2151 22.0535 20.1312C21.9692 20.0473 21.8548 20.0002 21.7356 20.0002H15.6505C15.5915 20.0002 15.533 20.0117 15.4785 20.0342C15.4239 20.0566 15.3744 20.0896 15.3326 20.1311C15.2909 20.1727 15.2578 20.222 15.2352 20.2763C15.2126 20.3306 15.201 20.3888 15.201 20.4475V22.5903C15.2025 22.6511 15.1917 22.7115 15.1693 22.768C15.147 22.8246 15.1135 22.8761 15.0708 22.9195C15.0282 22.963 14.9772 22.9976 14.9209 23.0211C14.8647 23.0447 14.8042 23.0569 14.7432 23.0569C14.6821 23.0569 14.6217 23.0447 14.5654 23.0211C14.5091 22.9976 14.4582 22.963 14.4155 22.9195C14.3729 22.8761 14.3394 22.8246 14.317 22.768C14.2946 22.7115 14.2839 22.6511 14.2853 22.5903V19.5444C14.2855 19.4237 14.3338 19.3079 14.4197 19.2225C14.5055 19.1371 14.6219 19.0891 14.7433 19.0889H17.7856C17.9048 19.0889 18.0191 19.0418 18.1034 18.9579C18.1877 18.874 18.2351 18.7603 18.2351 18.6416V15.7788C18.2351 15.6601 18.1877 15.5463 18.1034 15.4624C18.0191 15.3786 17.9048 15.3314 17.7856 15.3314H6.21493C6.09571 15.3314 5.98138 15.3786 5.89708 15.4624C5.81278 15.5463 5.76542 15.6601 5.76542 15.7788V18.6416C5.76542 18.7603 5.81278 18.874 5.89708 18.9579C5.98138 19.0418 6.09571 19.0889 6.21493 19.0889H9.25773C9.37907 19.0891 9.49537 19.1372 9.58117 19.2226C9.66697 19.308 9.71526 19.4237 9.71546 19.5444V22.5903C9.71691 22.6511 9.70613 22.7115 9.68377 22.768C9.66141 22.8246 9.62792 22.8761 9.58526 22.9195C9.5426 22.963 9.49164 22.9976 9.43537 23.0211C9.3791 23.0447 9.31866 23.0569 9.2576 23.0569C9.19655 23.0569 9.1361 23.0447 9.07984 23.0211C9.02357 22.9976 8.9726 22.963 8.92994 22.9195C8.88729 22.8761 8.85379 22.8246 8.83143 22.768C8.80907 22.7115 8.7983 22.6511 8.79974 22.5903V20.4475C8.79978 20.3888 8.78817 20.3306 8.7656 20.2763C8.74302 20.222 8.70991 20.1727 8.66816 20.1311C8.62641 20.0896 8.57685 20.0566 8.52229 20.0342C8.46774 20.0117 8.40927 20.0002 8.35023 20.0002H2.26515C2.14593 20.0002 2.03159 20.0473 1.9473 20.1312C1.863 20.2151 1.81564 20.3289 1.81564 20.4475V22.5903C1.81708 22.6511 1.80631 22.7115 1.78395 22.768C1.76159 22.8246 1.72809 22.8761 1.68544 22.9195C1.64278 22.963 1.59181 22.9976 1.53554 23.0211C1.47927 23.0447 1.41883 23.0569 1.35778 23.0569C1.29672 23.0569 1.23628 23.0447 1.18001 23.0211C1.12374 22.9976 1.07278 22.963 1.03012 22.9195C0.987461 22.8761 0.953967 22.8246 0.931607 22.768C0.909248 22.7115 0.898474 22.6511 0.89992 22.5903V19.5444C0.900123 19.4238 0.948343 19.3081 1.03403 19.2228C1.11972 19.1374 1.23589 19.0893 1.35714 19.0889H4.40045C4.51967 19.0889 4.634 19.0418 4.7183 18.9579C4.8026 18.874 4.84996 18.7603 4.84996 18.6416V14.8759C4.8501 14.7552 4.89836 14.6394 4.98418 14.554C5.06999 14.4686 5.18633 14.4206 5.30769 14.4204H11.0922C11.2114 14.4204 11.3257 14.3732 11.41 14.2893C11.4943 14.2055 11.5417 14.0917 11.5418 13.9731V10.9415C11.5418 10.8207 11.59 10.7049 11.6758 10.6194C11.7617 10.534 11.8781 10.486 11.9995 10.486C12.1209 10.486 12.2373 10.534 12.3232 10.6194C12.409 10.7049 12.4572 10.8207 12.4572 10.9415V13.9739C12.4573 14.0925 12.5047 14.2062 12.589 14.2901C12.6732 14.374 12.7875 14.4211 12.9067 14.4212H18.6928C18.8142 14.4213 18.9306 14.4693 19.0165 14.5547C19.1024 14.6401 19.1507 14.7559 19.1508 14.8767V18.6416C19.1508 18.7004 19.1624 18.7586 19.185 18.8128C19.2075 18.8671 19.2406 18.9165 19.2824 18.958C19.3241 18.9995 19.3737 19.0325 19.4283 19.055C19.4828 19.0774 19.5413 19.089 19.6003 19.0889H22.6429C22.7642 19.0891 22.8806 19.1371 22.9665 19.2225C23.0523 19.3079 23.1006 19.4237 23.1009 19.5444V22.5908Z" fill="white"/>
<path d="M9.5598 5.29239L9.13777 7.74296C9.12388 7.82512 9.13332 7.90952 9.16503 7.98663C9.19675 8.06375 9.24947 8.13051 9.31727 8.17941C9.38507 8.2283 9.46525 8.25738 9.54876 8.26337C9.63227 8.26935 9.71581 8.252 9.78995 8.21328L12.0003 7.05715L14.2108 8.21328C14.285 8.252 14.3685 8.26935 14.452 8.26337C14.5355 8.25738 14.6157 8.2283 14.6835 8.17941C14.7513 8.13051 14.804 8.06375 14.8357 7.98663C14.8674 7.90952 14.8769 7.82512 14.863 7.74296L14.441 5.29367L16.2295 3.55755C16.2896 3.4993 16.3321 3.42547 16.3522 3.34443C16.3723 3.26338 16.3692 3.17835 16.3432 3.09897C16.3173 3.01958 16.2695 2.94902 16.2053 2.89526C16.1411 2.8415 16.0631 2.8067 15.9801 2.7948L13.5088 2.43694L12.4043 0.208768C12.3672 0.133891 12.3098 0.0708426 12.2385 0.0267563C12.1673 -0.0173299 12.085 -0.0406952 12.0012 -0.0406952C11.9173 -0.0406952 11.835 -0.0173299 11.7638 0.0267563C11.6925 0.0708426 11.6351 0.133891 11.598 0.208768L10.4935 2.43694L8.02222 2.7948C7.93921 2.80674 7.86121 2.84157 7.79706 2.89534C7.73292 2.94912 7.68518 3.01969 7.65925 3.09906C7.63332 3.17844 7.63024 3.26345 7.65035 3.34448C7.67047 3.42551 7.71297 3.49932 7.77306 3.55755L9.5598 5.29239ZM10.8552 3.28865C10.9275 3.2785 10.9963 3.25091 11.0556 3.20828C11.1148 3.16564 11.1626 3.10926 11.195 3.04402L12.0015 1.41756L12.8083 3.04402C12.8405 3.10911 12.8882 3.1654 12.9472 3.20803C13.0062 3.25065 13.0747 3.27832 13.1469 3.28865L14.9493 3.5509L13.6442 4.81721C13.5921 4.86789 13.5532 4.93042 13.5308 4.9994C13.5084 5.06838 13.5033 5.14174 13.5157 5.21316L13.824 7.00091L12.2106 6.15739C12.1461 6.12365 12.0743 6.10602 12.0014 6.10602C11.9285 6.10602 11.8567 6.12365 11.7922 6.15739L10.1788 7.00091L10.4871 5.21316C10.4995 5.14174 10.4944 5.06838 10.472 4.9994C10.4496 4.93042 10.4107 4.86789 10.3586 4.81721L9.05121 3.5509L10.8552 3.28865Z" fill="white"/>
</g>
<defs>
<clipPath id="clip0_1601_68799">
<rect width="24" height="24" fill="white"/>
</clipPath>
</defs>
</svg>
