<svg width="100" height="31" viewBox="0 0 100 31" fill="none" xmlns="http://www.w3.org/2000/svg">
<g clip-path="url(#clip0_1578_42729)">
<path d="M40.2596 12.3683H38.5892V23.2804H40.2596V12.3683Z" fill="#EEEEEE"/>
<path d="M47.7427 7.74593H34.1272V9.41719H47.7427V7.74593Z" fill="#EEEEEE"/>
<path d="M43.2769 12.3683H41.6065V23.2804H43.2769V12.3683Z" fill="#EEEEEE"/>
<path d="M89.4244 23.2917H91.1099V16.7196L89.4244 14.8451V23.2917Z" fill="#EEEEEE"/>
<path d="M98.2995 7.74593V19.9304L86.377 6.67315V23.2917H88.0587V11.1035L99.9887 24.3645V7.74593H98.2995Z" fill="#EEEEEE"/>
<path d="M75.4628 7.7384C71.1776 7.7384 67.6938 11.224 67.6938 15.5113C67.6938 19.7986 71.1776 23.2842 75.4628 23.2842C79.7479 23.2842 83.2318 19.7986 83.2318 15.5113C83.2318 11.2277 79.7479 7.7384 75.4628 7.7384ZM75.4628 21.6092C72.1031 21.6092 69.3679 18.8764 69.3679 15.5113C69.3679 12.1462 72.0993 9.41343 75.4628 9.41343C78.8224 9.41343 81.5576 12.1462 81.5576 15.5113C81.5576 18.8727 78.8224 21.6092 75.4628 21.6092Z" fill="#EEEEEE"/>
<path d="M75.4628 14.3934C74.8457 14.3934 74.3454 14.894 74.3454 15.5113C74.3454 16.1286 74.8457 16.6292 75.4628 16.6292C76.0798 16.6292 76.5801 16.1286 76.5801 15.5113C76.5801 14.894 76.0798 14.3934 75.4628 14.3934Z" fill="#EEEEEE"/>
<path d="M64.7705 12.5151C64.7705 9.88771 62.6486 7.74969 60.0414 7.74969H51.155V23.2955H52.8141V9.43602H60.0414C61.7156 9.43602 63.0775 10.8174 63.0775 12.5151C63.0775 14.2051 61.7344 15.5791 60.0752 15.5979L54.1798 15.5941V23.2955H55.839V17.2804H59.7254L62.9007 23.2917H64.8307L61.5162 17.0433C63.4312 16.4072 64.7705 14.5552 64.7705 12.5151Z" fill="#EEEEEE"/>
<path d="M22.6411 4.66687L0 0.5L11.915 30.4925L28.5139 10.2566L22.6411 4.66687ZM22.2799 6.50376L25.7449 9.79737L16.2716 11.5138L22.2799 6.50376ZM14.2137 11.1713L4.22874 2.88645L20.5455 5.89021L14.2137 11.1713ZM13.4989 12.6393L11.8736 26.1035L3.09631 4.00063L13.4989 12.6393ZM15.0038 13.3507L25.4929 11.4498L13.465 26.1148L15.0038 13.3507Z" fill="#EEEEEE"/>
</g>
<defs>
<clipPath id="clip0_1578_42729">
<rect width="100" height="30" fill="white" transform="translate(0 0.5)"/>
</clipPath>
</defs>
</svg>
