<svg width="18" height="18" viewBox="0 0 18 18" fill="none" xmlns="http://www.w3.org/2000/svg">
<g clip-path="url(#clip0_1571_68717)">
<path d="M5.76201 6.74569C3.81407 6.4965 1.84138 7.16025 0.452568 8.54906C0.380568 8.62106 0.310256 8.69531 0.242193 8.76956C-0.023307 9.0615 -0.0744945 9.47156 0.111131 9.81525C0.299006 10.1629 0.67588 10.3468 1.06907 10.2838C2.41288 10.0684 3.76851 10.3322 4.92613 11.0145C4.37601 11.6664 3.98732 12.4354 3.81463 13.2712C3.76232 13.5244 3.84163 13.7865 4.02782 13.9727C4.17576 14.1212 4.37263 14.2011 4.57457 14.2011C4.62576 14.2011 4.67807 14.196 4.72926 14.1853C5.56569 14.0121 6.33463 13.6234 6.98601 13.0738C7.66888 14.232 7.93157 15.5876 7.71726 16.9309C7.65426 17.3252 7.83819 17.7015 8.18582 17.8894C8.32194 17.9642 8.46988 18.0002 8.61669 18.0002C8.83719 18.0002 9.05544 17.9181 9.23038 17.7583C9.30519 17.6908 9.37832 17.6205 9.45088 17.5485C10.7531 16.2458 11.4804 14.2438 11.2149 12.2677C12.0091 11.7204 12.7612 11.1011 13.4463 10.416C15.9922 7.86956 17.6083 4.49906 17.9953 0.925498C18.0228 0.675186 17.9345 0.427123 17.7534 0.246561C17.5728 0.065998 17.3253 -0.020627 17.0744 0.00468554C13.5009 0.392248 10.1304 2.00831 7.58394 4.55475C6.91007 5.22862 6.30144 5.96775 5.76201 6.74569ZM17.1352 0.564373C17.2134 0.553123 17.2961 0.584623 17.3557 0.644811C17.4153 0.704998 17.4446 0.784873 17.4361 0.865873C17.057 4.36237 15.5399 7.52756 13.0486 10.0189C12.4479 10.6196 11.7886 11.1608 11.0996 11.6524C10.8532 10.6388 10.3318 9.65156 9.47226 8.79206C9.36257 8.68237 9.18426 8.68237 9.07457 8.79206C8.96488 8.90175 8.96488 9.08006 9.07457 9.18975C11.0259 11.1411 11.5513 14.6528 9.05319 17.1503C8.98738 17.2161 8.92044 17.2796 8.85238 17.3421C8.68138 17.499 8.50307 17.4225 8.45244 17.3949C8.34557 17.337 8.24207 17.2082 8.27188 17.0203C8.52557 15.4318 8.17738 13.8231 7.29088 12.4911C7.28582 12.4832 7.27738 12.4793 7.27176 12.4719C7.26669 12.4658 7.26501 12.4584 7.25938 12.4528C7.25263 12.4461 7.24363 12.4432 7.23688 12.4371C7.22001 12.423 7.20313 12.4106 7.18401 12.4005C7.17107 12.3938 7.15869 12.3887 7.14463 12.3842C7.12326 12.3769 7.10244 12.3724 7.07994 12.3707C7.06701 12.3696 7.05407 12.3696 7.04113 12.3707C7.01863 12.3718 6.99726 12.3757 6.97532 12.3825C6.96126 12.387 6.94888 12.3926 6.93538 12.3988C6.92413 12.4044 6.91176 12.4056 6.90107 12.4129C6.89207 12.4185 6.88757 12.4275 6.87969 12.4342C6.87407 12.4388 6.86676 12.4404 6.86169 12.4461C6.23844 13.0485 5.46107 13.4602 4.61451 13.6352C4.51494 13.6543 4.44969 13.6003 4.42551 13.5756C4.40076 13.5508 4.34563 13.4828 4.36588 13.386C4.54082 12.54 4.95201 11.7626 5.55501 11.1388C5.56232 11.1315 5.56457 11.1219 5.57076 11.1141C5.57526 11.1084 5.58257 11.1056 5.58707 11.0994C5.59326 11.0899 5.59438 11.0792 5.59944 11.0696C5.60788 11.0533 5.61463 11.037 5.61969 11.0196C5.62476 11.0016 5.62757 10.9841 5.62926 10.9656C5.63094 10.9481 5.63094 10.9312 5.62869 10.9132C5.62701 10.8952 5.62307 10.8784 5.61744 10.8609C5.61238 10.8441 5.60563 10.8283 5.59719 10.812C5.58819 10.7957 5.57751 10.7811 5.56569 10.7659C5.55894 10.758 5.55613 10.7479 5.54826 10.7406C5.54151 10.7344 5.53307 10.7321 5.52632 10.7265C5.51957 10.7209 5.51563 10.7136 5.50832 10.7085C4.17688 9.82312 2.56813 9.47437 0.980193 9.7275C0.791193 9.76012 0.663505 9.65438 0.605568 9.5475C0.578568 9.49687 0.501505 9.31969 0.65788 9.14756C0.719755 9.0795 0.783318 9.01312 0.84913 8.94731C2.15019 7.64569 4.01207 7.03369 5.83457 7.31437C5.83794 7.31494 5.84019 7.31269 5.84301 7.31269H5.84863C5.85313 7.31269 5.85707 7.31437 5.86101 7.31494C5.89251 7.31831 5.92401 7.31944 5.95494 7.31212C5.96901 7.30875 5.98138 7.302 5.99488 7.29694C6.01457 7.28906 6.03426 7.28287 6.05169 7.2705C6.06857 7.25869 6.08094 7.2435 6.09444 7.22831C6.10401 7.21762 6.11638 7.21087 6.12482 7.1985C6.66707 6.3975 7.29257 5.6415 7.98219 4.95187C10.4381 2.496 13.6882 0.937873 17.1352 0.564373Z" fill="#EEEEEE"/>
<path d="M12.4538 7.23319C12.9043 7.23319 13.3285 7.05769 13.6474 6.73932C14.305 6.08119 14.305 5.01076 13.6474 4.35263C13.0095 3.71532 11.898 3.71532 11.2607 4.35263C10.6026 5.01076 10.6026 6.08119 11.2607 6.73932C11.5791 7.05825 12.0032 7.23319 12.4538 7.23319ZM11.6584 4.75032C11.871 4.53769 12.1534 4.42069 12.4538 4.42069C12.7541 4.42069 13.0371 4.53769 13.2497 4.75032C13.6879 5.18907 13.6879 5.90288 13.2497 6.34163C12.8245 6.76576 12.0831 6.76576 11.6584 6.34163C11.2197 5.90288 11.2197 5.18963 11.6584 4.75032Z" fill="#EEEEEE"/>
<path d="M3.06115 14.5412L2.12796 15.4749C2.01828 15.5846 2.01828 15.7629 2.12796 15.8726C2.18309 15.9278 2.25509 15.9548 2.32709 15.9548C2.39909 15.9548 2.47109 15.9272 2.52621 15.8726L3.4594 14.9389C3.56909 14.8292 3.56909 14.6509 3.4594 14.5412C3.34971 14.4315 3.17084 14.4309 3.06115 14.5412Z" fill="#EEEEEE"/>
<path d="M3.0589 11.7349L0.723401 14.0698C0.613713 14.1795 0.613713 14.3578 0.723401 14.4675C0.778526 14.5226 0.850526 14.5496 0.922526 14.5496C0.994526 14.5496 1.06653 14.5221 1.12165 14.4675L3.45715 12.1326C3.56684 12.0229 3.56684 11.8446 3.45715 11.7349C3.34746 11.6252 3.16859 11.6252 3.0589 11.7349Z" fill="#EEEEEE"/>
<path d="M3.47178 17.2159C3.5269 17.271 3.5989 17.298 3.6709 17.298C3.7429 17.298 3.8149 17.2704 3.87003 17.2159L6.20553 14.8809C6.31521 14.7713 6.31521 14.5929 6.20553 14.4833C6.09584 14.3736 5.91753 14.3736 5.80784 14.4833L3.47234 16.8182C3.36209 16.9284 3.36209 17.1062 3.47178 17.2159Z" fill="#EEEEEE"/>
</g>
<defs>
<clipPath id="clip0_1571_68717">
<rect width="18" height="18" fill="white"/>
</clipPath>
</defs>
</svg>
