<svg width="18" height="18" viewBox="0 0 18 18" fill="none" xmlns="http://www.w3.org/2000/svg">
<g clip-path="url(#clip0_1571_68698)">
<path d="M17.89 6.53892L13.6178 1.65644C13.5749 1.60728 13.5218 1.56789 13.4624 1.54092C13.4029 1.51394 13.3383 1.50001 13.273 1.50004H4.72868C4.66366 1.49953 4.59928 1.51287 4.53982 1.53918C4.48037 1.56549 4.4272 1.60416 4.38385 1.65262L0.111681 6.5351C0.0379711 6.62024 -0.0017692 6.72956 6.04805e-05 6.84215C0.00189016 6.95475 0.0451614 7.06272 0.121599 7.14541L8.66594 16.3001C8.70877 16.346 8.76061 16.3827 8.81823 16.4078C8.87585 16.4328 8.93801 16.4458 9.00085 16.4458C9.06368 16.4458 9.12585 16.4328 9.18347 16.4078C9.24108 16.3827 9.29292 16.346 9.33576 16.3001L17.8801 7.14541C17.9555 7.06295 17.9981 6.95576 17.9999 6.84404C18.0018 6.73233 17.9627 6.6238 17.89 6.53892ZM5.02925 7.29799L7.66885 13.8962L1.51005 7.29799H5.02925ZM11.9868 7.29799L9.00085 14.7621L6.01491 7.29799H11.9868ZM6.25445 6.38253L9.00085 2.72067L11.7472 6.38253H6.25445ZM12.9724 7.29799H16.4916L10.3329 13.8962L12.9724 7.29799ZM16.5367 6.38253H12.8916L9.91631 2.41551H13.0655L16.5367 6.38253ZM4.93618 2.41551H8.08538L5.11012 6.38253H1.46504L4.93618 2.41551Z" fill="#EEEEEE"/>
</g>
<defs>
<clipPath id="clip0_1571_68698">
<rect width="18" height="18" fill="white"/>
</clipPath>
</defs>
</svg>
