<svg width="18" height="18" viewBox="0 0 18 18" fill="none" xmlns="http://www.w3.org/2000/svg">
<g clip-path="url(#clip0_1571_68733)">
<path d="M15.0789 0.75H2.92105C1.70526 0.75 0.75 1.69286 0.75 2.89286V12.3214C0.75 13.5214 1.70526 14.4643 2.92105 14.4643H5.91711L5.39605 15.3214C5.00526 15.9214 5.22237 16.7357 5.83026 17.0786C6.04737 17.2071 6.26447 17.25 6.525 17.25H11.5618C12.3 17.25 12.8645 16.6929 12.8645 15.9643C12.8645 15.75 12.7776 15.4929 12.6908 15.2786L12.1697 14.4214H15.0789C16.2947 14.4214 17.25 13.4786 17.25 12.2786V2.85C17.25 1.69286 16.2947 0.75 15.0789 0.75ZM11.8658 15.7929C11.9961 16.0071 11.9092 16.2643 11.7355 16.3929C11.6487 16.4357 11.6053 16.4357 11.5184 16.4357H6.48158C6.22105 16.4357 6.04737 16.2214 6.04737 16.0071C6.04737 15.9214 6.09079 15.8357 6.09079 15.7929L6.91579 14.5071H11.0842L11.8658 15.7929ZM16.3816 12.3643C16.3816 13.0929 15.8171 13.65 15.0789 13.65H2.92105C2.18289 13.65 1.61842 13.0929 1.61842 12.3643V2.89286C1.61842 2.16429 2.18289 1.60714 2.92105 1.60714H15.0789C15.8171 1.60714 16.3816 2.16429 16.3816 2.89286V12.3643Z" fill="#EEEEEE"/>
<path d="M8.95658 8.84998C8.65263 7.94998 8.08816 6.10712 7.26316 3.40712H5.52632C6.00395 4.77855 6.91579 7.60712 8.34868 11.7643H9.56447C10.0421 10.3928 10.9539 7.60712 12.3868 3.40712H10.65C10.3461 4.34998 9.78158 6.14998 8.95658 8.84998Z" fill="#EEEEEE"/>
</g>
<defs>
<clipPath id="clip0_1571_68733">
<rect width="18" height="18" fill="white"/>
</clipPath>
</defs>
</svg>
