<svg width="25" height="24" viewBox="0 0 25 24" fill="none" xmlns="http://www.w3.org/2000/svg">
<path d="M22.5196 11.6706H22.3995V8.39241C22.3995 7.36929 21.6419 6.52233 20.6586 6.37689V5.63937C20.6586 4.51449 19.7435 3.59937 18.6186 3.59937H17.7148L17.2388 2.33097C17.2063 2.24434 17.1417 2.17355 17.0584 2.13329C16.9751 2.09303 16.8795 2.08638 16.7915 2.11473L12.1832 3.59937H2.77595C1.81859 3.59937 1.03955 4.37841 1.03955 5.33577V19.8625C1.03955 20.9874 1.95467 21.9025 3.07955 21.9025H20.3596C21.4844 21.9025 22.3995 20.9874 22.3995 19.8625V16.5843H22.5196C22.9827 16.5843 23.3596 16.2075 23.3596 15.7443V12.5106C23.3596 12.0476 22.9827 11.6706 22.5196 11.6706ZM17.985 4.31961H18.6186C19.3463 4.31961 19.9386 4.91169 19.9386 5.63961V6.35265H18.748L17.985 4.31961ZM17.979 6.35265H5.98571L16.6854 2.90577L17.979 6.35265ZM2.77595 4.31961H9.94811L3.63779 6.35265H2.77595C2.21555 6.35265 1.75955 5.89665 1.75955 5.33625C1.75955 4.77585 2.21555 4.31961 2.77595 4.31961ZM21.6796 19.8625C21.6796 20.5904 21.0872 21.1825 20.3596 21.1825H3.07955C2.72958 21.1821 2.39406 21.0429 2.14659 20.7954C1.89913 20.548 1.75993 20.2125 1.75955 19.8625V6.74313C1.76459 6.74697 1.77059 6.74937 1.77587 6.75321C1.83875 6.79761 1.90427 6.83817 1.97291 6.87417C1.98563 6.88089 1.99907 6.88665 2.01203 6.89313C2.07563 6.92457 2.14115 6.95217 2.20883 6.97569C2.22035 6.97977 2.23139 6.98433 2.24291 6.98817C2.31779 7.01241 2.39483 7.03065 2.47379 7.04457C2.49131 7.04769 2.50907 7.05009 2.52683 7.05273C2.60843 7.06449 2.69123 7.07265 2.77595 7.07265H20.3596C21.0872 7.07265 21.6796 7.66473 21.6796 8.39265V11.6708H19.2944C18.1695 11.6708 17.2544 12.5859 17.2544 13.7108V14.5446C17.2544 15.6694 18.1695 16.5846 19.2944 16.5846H21.6796V19.8625ZM22.6396 15.7443C22.6396 15.7762 22.6269 15.8067 22.6044 15.8292C22.5819 15.8517 22.5514 15.8643 22.5196 15.8643H19.2944C18.9445 15.8639 18.6089 15.7248 18.3615 15.4773C18.114 15.2298 17.9748 14.8943 17.9744 14.5443V13.7106C17.9744 12.9826 18.5667 12.3906 19.2944 12.3906H22.5196C22.5514 12.3906 22.5819 12.4032 22.6044 12.4257C22.6269 12.4482 22.6396 12.4787 22.6396 12.5106V15.7443Z" fill="white"/>
<path d="M20.2273 13.0854C19.951 13.0856 19.6861 13.1955 19.4906 13.3909C19.2952 13.5862 19.1853 13.8511 19.185 14.1274C19.185 14.7022 19.6525 15.1695 20.2273 15.1695C20.8021 15.1695 21.2694 14.702 21.2694 14.1274C21.2691 13.8512 21.1592 13.5863 20.9638 13.3909C20.7685 13.1956 20.5036 13.0857 20.2273 13.0854ZM20.2273 14.4498C20.0497 14.4498 19.905 14.3053 19.905 14.1277C19.9073 14.0438 19.9422 13.964 20.0024 13.9055C20.0626 13.8469 20.1432 13.8142 20.2272 13.8142C20.3112 13.8142 20.3918 13.8469 20.452 13.9055C20.5121 13.964 20.5471 14.0438 20.5494 14.1277C20.5494 14.305 20.4049 14.4498 20.2273 14.4498Z" fill="white"/>
</svg>
