<svg width="18" height="18" viewBox="0 0 18 18" fill="none" xmlns="http://www.w3.org/2000/svg">
<g clip-path="url(#clip0_1571_68706)">
<path d="M11.8897 15.75C10.668 15.75 9.6435 15.2317 8.99325 14.3048C8.34225 15.2242 7.3185 15.7388 6.09975 15.7388C5.15775 15.7388 3.4545 15.405 2.6235 13.1693C2.14275 11.859 1.752 10.7992 1.4325 9.93525C0.10875 6.354 0 6.0615 0 5.2125C0 3.55125 1.4595 2.25 3.324 2.25C4.51875 2.25 5.568 2.86275 6.15 3.84C6.97875 2.4225 8.3835 2.25 9.01575 2.25C9.648 2.25 11.0512 2.42175 11.874 3.83625C12.4545 2.86125 13.5038 2.25 14.697 2.25C15.6593 2.25 16.5247 2.58975 17.1337 3.207C17.7037 3.7845 18.0112 4.57275 18 5.4285C18 6.06525 17.9753 6.132 16.6628 9.666C16.3245 10.5757 15.8993 11.7195 15.3652 13.1685C14.5005 15.4988 12.6458 15.75 11.8897 15.75ZM8.994 13.1798C9.141 13.1798 9.27375 13.2653 9.3345 13.3988C9.8085 14.4315 10.716 15 11.8897 15C12.6353 15 13.9867 14.7285 14.6617 12.909C15.1965 11.46 15.621 10.3155 15.9592 9.405C17.25 5.93025 17.25 5.92125 17.25 5.42325C17.259 4.75575 17.034 4.17375 16.5998 3.7335C16.1325 3.261 15.4568 3 14.697 3C14.1367 2.99522 13.5908 3.17748 13.1458 3.51791C12.7008 3.85834 12.382 4.33749 12.24 4.8795C12.2188 4.95779 12.1727 5.02709 12.1087 5.07699C12.0448 5.12689 11.9664 5.1547 11.8853 5.15625C11.6858 5.1555 11.5703 5.052 11.5208 4.893C11.0025 3.246 9.729 3 9.01575 3C8.30325 3 7.02825 3.246 6.50025 4.89525C6.45 5.0535 6.321 5.14275 6.13425 5.15625C6.0534 5.15438 5.97532 5.12642 5.91166 5.07655C5.848 5.02667 5.80217 4.95755 5.781 4.8795C5.472 3.73725 4.5075 3 3.324 3C1.881 3 0.75 3.972 0.75 5.2125C0.75 5.92725 0.828 6.13875 2.13525 9.675C2.4555 10.5398 2.84625 11.5995 3.327 12.9097C3.96525 14.6272 5.18625 14.988 6.099 14.988C7.27125 14.988 8.17875 14.4225 8.6535 13.3965C8.68397 13.3319 8.73213 13.2772 8.7924 13.2389C8.85266 13.2005 8.92256 13.18 8.994 13.1798ZM11.817 14.0107C10.8975 14.0107 10.2607 13.5263 9.97575 12.6112L8.99475 9.6915L8.01075 12.6188C7.71675 13.5218 7.0815 14.001 6.1725 14.001C5.2725 14.001 4.62975 13.4985 4.263 12.5085L2.07525 6.63525C1.8825 6.10725 1.785 5.7645 1.785 5.3475C1.785 4.57275 2.50125 3.9885 3.4515 3.9885C4.2285 3.9885 4.8495 4.4835 5.0325 5.25075L6.17325 8.85375L7.332 5.32275C7.60725 4.428 8.154 3.98925 9.00075 3.98925C9.852 3.98925 10.398 4.428 10.6725 5.331L11.8275 8.85375L12.9757 5.22525C13.1513 4.48425 13.7723 3.98925 14.55 3.98925C15.5317 3.98925 16.2172 4.63575 16.2172 5.562C16.2067 5.8215 16.1295 6.0435 16.0402 6.3C16.0095 6.38925 15.9765 6.4845 15.9443 6.58725L15.9375 6.606L13.7272 12.5198C13.3597 13.5083 12.7177 14.0107 11.817 14.0107ZM8.97825 8.1885C9.1395 8.1885 9.315 8.29125 9.36675 8.44425L10.6898 12.3802C10.8802 12.9915 11.2275 13.2607 11.8177 13.2607C12.396 13.2607 12.7673 12.9518 13.0238 12.2572L15.234 6.342C15.267 6.2385 15.3 6.1425 15.3315 6.05175C15.4042 5.84325 15.462 5.67825 15.4672 5.54475C15.4672 5.04525 15.1245 4.73775 14.55 4.73775C14.1195 4.73775 13.8007 4.99425 13.698 5.424L12.2078 10.137C12.1103 10.4482 11.5627 10.4513 11.4608 10.1415L9.957 5.556C9.77625 4.9575 9.5175 4.73775 9.0015 4.73775C8.48775 4.73775 8.22975 4.9575 8.0475 5.54925L6.54 10.1415C6.4395 10.4497 5.892 10.4467 5.7945 10.1378L4.31025 5.45025C4.20075 4.99425 3.882 4.73775 3.45075 4.73775C2.92875 4.73775 2.53425 5.00025 2.53425 5.34675C2.53425 5.62275 2.59125 5.86275 2.778 6.37425L4.965 12.246C5.22225 12.9412 5.59425 13.2502 6.171 13.2502C6.7545 13.2502 7.1025 12.9832 7.2975 12.3832L8.622 8.4435C8.64735 8.36914 8.69533 8.30457 8.75922 8.25885C8.8231 8.21312 8.89969 8.18852 8.97825 8.1885Z" fill="#EEEEEE"/>
</g>
<defs>
<clipPath id="clip0_1571_68706">
<rect width="18" height="18" fill="white"/>
</clipPath>
</defs>
</svg>
