<svg width="18" height="18" viewBox="0 0 18 18" fill="none" xmlns="http://www.w3.org/2000/svg">
<g clip-path="url(#clip0_1571_68725)">
<path d="M14.2999 3.64324C12.8908 3.52818 11.0725 3.7759 8.7412 4.40059C7.08315 4.84486 5.39227 5.60852 4.06497 6.50885L2.99165 5.55674C2.9227 5.49558 2.82761 5.47312 2.73858 5.49697L0.264991 6.15977C0.177865 6.18312 0.107796 6.24779 0.0775501 6.33276C0.0472951 6.4177 0.0607463 6.51214 0.113508 6.58525L1.74901 8.85235C1.47727 9.38446 1.40191 9.88882 1.52647 10.3537C1.65102 10.8185 1.96846 11.2176 2.46984 11.5426L2.18703 14.3236C2.1779 14.4133 2.21346 14.5018 2.28213 14.5602C2.35081 14.6187 2.44383 14.6397 2.53096 14.6163L5.00451 13.9535C5.09354 13.9297 5.16466 13.8627 5.19379 13.7752L5.64741 12.4136C7.02766 12.5139 8.59161 12.3904 10.0601 12.0691L10.2265 12.6903C10.2658 12.8367 10.4162 12.9235 10.5625 12.8843L14.8814 11.7271C15.4668 11.5702 15.8155 10.9663 15.6587 10.3808L15.5939 10.1392C15.7242 10.0645 15.8504 9.9877 15.9716 9.9085C16.7153 9.42252 17.2214 8.89245 17.5187 8.28802C17.8507 7.61319 17.9065 6.85147 17.6848 6.02402C17.3023 4.59645 16.1634 3.79547 14.2999 3.64324ZM0.791148 6.5868L2.73795 6.06516L4.8545 7.94268L2.26905 8.63545L0.791148 6.5868ZM2.17934 9.22235C2.19569 9.22104 2.21206 9.2187 2.22828 9.21435L5.48886 8.34068C5.58638 8.31455 5.66162 8.23698 5.68483 8.13875C5.70804 8.04051 5.67539 7.93747 5.59988 7.87046L4.489 6.88501C5.74887 6.05182 7.32998 5.34673 8.88316 4.93056C12.7677 3.88969 15.268 3.90537 16.4575 4.98831C15.9758 4.86443 15.3635 4.82785 14.5908 4.87702C13.2481 4.96248 11.4685 5.30595 9.1502 5.92714C8.27173 6.16252 7.38806 6.44648 6.52381 6.7711C6.38195 6.82437 6.31017 6.98254 6.36346 7.12435C6.41673 7.26621 6.57465 7.33818 6.71671 7.2847C7.56435 6.96631 8.43086 6.68786 9.29219 6.45707C14.7265 5.00094 16.5446 5.29151 17.0297 5.91551L2.01777 9.93794C2.01234 9.71515 2.06617 9.47594 2.17934 9.22235ZM4.71986 13.4618L2.77306 13.9834L3.02864 11.4703L5.61408 10.7775L4.71986 13.4618ZM15.1286 10.5229C15.2072 10.8161 15.0326 11.1185 14.7393 11.1971L10.6854 12.2834L10.5941 11.9425C10.6466 11.9291 10.6989 11.9154 10.751 11.9014C12.2819 11.4912 13.8407 11.0271 15.0967 10.4038L15.1286 10.5229ZM15.6714 9.44921C14.3815 10.2921 12.476 10.8712 10.609 11.3715C9.05567 11.7877 7.3339 11.9675 5.82653 11.8758L6.06148 11.1705C7.42988 11.0305 8.942 10.75 10.342 10.3748C12.2437 9.86528 14.1961 9.30206 15.5938 8.63706C16.3213 8.29098 16.8477 7.94334 17.2008 7.57621C17.026 8.2813 16.5219 8.8935 15.6714 9.44921ZM15.358 8.14165C14.0001 8.78773 12.0765 9.34206 10.1999 9.84489C8.91094 10.1903 7.52583 10.4537 6.25213 10.5981L6.2957 10.4673C6.32764 10.3716 6.30436 10.266 6.23518 10.1925C6.16596 10.1191 6.06197 10.0895 5.9645 10.1156L2.70387 10.9893C2.68762 10.9937 2.67227 10.9998 2.65746 11.0069C2.43269 10.8438 2.26648 10.6636 2.15982 10.4679L17.1845 6.44208C17.1558 7.01378 16.5545 7.57242 15.358 8.14165Z" fill="#EEEEEE"/>
<path d="M5.64827 7.49507C5.65003 7.49735 5.65049 7.49792 5.64827 7.49507V7.49507Z" fill="#EEEEEE"/>
<path d="M5.96673 7.07111C5.86018 7.02745 5.73322 7.05776 5.65723 7.14413C5.57226 7.2407 5.56681 7.39035 5.64596 7.49214C5.7149 7.58068 5.83252 7.62026 5.94074 7.58831C6.04862 7.55649 6.12733 7.45977 6.13675 7.34766C6.14664 7.22952 6.07614 7.11594 5.96673 7.07111Z" fill="#EEEEEE"/>
<path d="M5.64418 7.4898C5.64226 7.48734 5.64273 7.48798 5.64418 7.4898V7.4898Z" fill="#EEEEEE"/>
</g>
<defs>
<clipPath id="clip0_1571_68725">
<rect width="18" height="18" fill="white"/>
</clipPath>
</defs>
</svg>
